<svg version="1.1" viewBox="0.0 0.0 728.6929133858267 230.34120734908137" fill="none" stroke="none" stroke-linecap="square" stroke-miterlimit="10" xmlns:xlink="http://www.w3.org/1999/xlink" xmlns="http://www.w3.org/2000/svg"><clipPath id="p.0"><path d="m0 0l728.69293 0l0 230.3412l-728.69293 0l0 -230.3412z" clip-rule="nonzero"/></clipPath><g clip-path="url(#p.0)"><path fill="#ffffff" d="m0 0l728.69293 0l0 230.3412l-728.69293 0z" fill-rule="evenodd"/><path fill="#000000" fill-opacity="0.0" d="m67.990814 96.997375l604.81885 0" fill-rule="evenodd"/><path stroke="#28b76b" stroke-width="3.0" stroke-linejoin="round" stroke-linecap="butt" d="m79.36082 96.997375l575.44885 0" fill-rule="evenodd"/><path fill="#28b76b" stroke="#28b76b" stroke-width="3.0" stroke-linecap="butt" d="m69.490814 96.997375c0 -2.725525 2.2094727 -4.9349976 4.9349976 -4.9349976c2.725525 0 4.935005 2.2094727 4.935005 4.9349976c0 2.725525 -2.2094803 4.9349976 -4.935005 4.9349976c-2.725525 0 -4.9349976 -2.2094727 -4.9349976 -4.9349976z" fill-rule="nonzero"/><path fill="#28b76b" stroke="#28b76b" stroke-width="3.0" stroke-linecap="butt" d="m654.8097 101.952576l13.614319 -4.9552l-13.614319 -4.9552z" fill-rule="evenodd"/><path fill="#4bb543" d="m61.47113 80.902885l0 -13.401573l0 0c0 -7.4014854 6.000084 -13.401573 13.401573 -13.401573c7.4014816 0 13.401573 6.0000877 13.401573 13.401573l0 13.401573z" fill-rule="evenodd"/><path stroke="#28b76b" stroke-width="1.0" stroke-linejoin="round" stroke-linecap="butt" d="m61.47113 80.902885l0 -13.401573l0 0c0 -7.4014854 6.000084 -13.401573 13.401573 -13.401573c7.4014816 0 13.401573 6.0000877 13.401573 13.401573l0 13.401573z" fill-rule="evenodd"/><path fill="#4bb543" d="m156.42651 80.902885l0 -13.401573l0 0c0 -7.4014854 6.0000916 -13.401573 13.401566 -13.401573c7.4014893 0 13.401581 6.0000877 13.401581 13.401573l0 13.401573z" fill-rule="evenodd"/><path stroke="#28b76b" stroke-width="1.0" stroke-linejoin="round" stroke-linecap="butt" d="m156.42651 80.902885l0 -13.401573l0 0c0 -7.4014854 6.0000916 -13.401573 13.401566 -13.401573c7.4014893 0 13.401581 6.0000877 13.401581 13.401573l0 13.401573z" fill-rule="evenodd"/><path fill="#4bb543" d="m255.00394 80.902885l0 -13.401573l0 0c0 -7.4014854 6.0000916 -13.401573 13.401581 -13.401573c7.4014893 0 13.401581 6.0000877 13.401581 13.401573l0 13.401573z" fill-rule="evenodd"/><path stroke="#28b76b" stroke-width="1.0" stroke-linejoin="round" stroke-linecap="butt" d="m255.00394 80.902885l0 -13.401573l0 0c0 -7.4014854 6.0000916 -13.401573 13.401581 -13.401573c7.4014893 0 13.401581 6.0000877 13.401581 13.401573l0 13.401573z" fill-rule="evenodd"/><path fill="#4bb543" d="m358.6496 80.902885l0 -13.401573l0 0c0 -7.4014854 6.0000916 -13.401573 13.401581 -13.401573c7.4014893 0 13.401581 6.0000877 13.401581 13.401573l0 13.401573z" fill-rule="evenodd"/><path stroke="#28b76b" stroke-width="1.0" stroke-linejoin="round" stroke-linecap="butt" d="m358.6496 80.902885l0 -13.401573l0 0c0 -7.4014854 6.0000916 -13.401573 13.401581 -13.401573c7.4014893 0 13.401581 6.0000877 13.401581 13.401573l0 13.401573z" fill-rule="evenodd"/><path fill="#4bb543" d="m452.15353 80.902885l0 -13.401573l0 0c0 -7.4014854 6.0000916 -13.401573 13.401581 -13.401573c7.4014893 0 13.401581 6.0000877 13.401581 13.401573l0 13.401573z" fill-rule="evenodd"/><path stroke="#28b76b" stroke-width="1.0" stroke-linejoin="round" stroke-linecap="butt" d="m452.15353 80.902885l0 -13.401573l0 0c0 -7.4014854 6.0000916 -13.401573 13.401581 -13.401573c7.4014893 0 13.401581 6.0000877 13.401581 13.401573l0 13.401573z" fill-rule="evenodd"/><path fill="#4bb543" d="m565.2139 80.902885l0 -13.401573l0 0c0 -7.4014854 6.000061 -13.401573 13.40155 -13.401573c7.4014893 0 13.401611 6.0000877 13.401611 13.401573l0 13.401573z" fill-rule="evenodd"/><path stroke="#28b76b" stroke-width="1.0" stroke-linejoin="round" stroke-linecap="butt" d="m565.2139 80.902885l0 -13.401573l0 0c0 -7.4014854 6.000061 -13.401573 13.40155 -13.401573c7.4014893 0 13.401611 6.0000877 13.401611 13.401573l0 13.401573z" fill-rule="evenodd"/><path fill="#4bb543" d="m646.0066 80.902885l0 -13.401573l0 0c0 -7.4014854 6.000061 -13.401573 13.40155 -13.401573c7.4014893 0 13.40155 6.0000877 13.40155 13.401573l0 13.401573z" fill-rule="evenodd"/><path stroke="#28b76b" stroke-width="1.0" stroke-linejoin="round" stroke-linecap="butt" d="m646.0066 80.902885l0 -13.401573l0 0c0 -7.4014854 6.000061 -13.401573 13.40155 -13.401573c7.4014893 0 13.40155 6.0000877 13.40155 13.401573l0 13.401573z" fill-rule="evenodd"/><path fill="#000000" fill-opacity="0.0" d="m47.40814 220.70079l0 -115.14961l72.72441 0l0 115.14961z" fill-rule="evenodd"/><path fill="#000000" d="m60.269386 199.12343l1.09375 0l0 2.796875l9.125 0l0 1.328125l-9.125 0l0 2.796875l-1.09375 0l0 -6.921875zm3.484375 -2.975937q-0.6875 -0.34375 -1.0625 -1.0q-0.375 -0.65625 -0.375 -1.59375l1.375 0l0 0.359375q0 2.234375 2.421875 2.234375l4.375 0l0 1.34375l-8.03125 0l0 -1.34375l1.296875 0zm2.6875 -3.6230469q-1.234375 0 -2.15625 -0.5q-0.9375 -0.5 -1.4375 -1.375q-0.515625 -0.875 -0.515625 -1.9375q0 -1.0625 0.453125 -1.828125q0.453125 -0.78125 1.140625 -1.171875l-1.46875 0l0 -1.34375l8.03125 0l0 1.34375l-1.5 0q0.703125 0.40625 1.171875 1.1875q0.453125 0.78125 0.453125 1.828125q0 1.0625 -0.515625 1.9375q-0.53125 0.859375 -1.484375 1.359375q-0.953125 0.5 -2.171875 0.5zm0.015625 -6.8125q-0.90625 0 -1.578125 0.375q-0.671875 0.359375 -1.03125 0.984375q-0.359375 0.625 -0.359375 1.375q0 0.75 0.359375 1.375q0.34375 0.609375 1.015625 0.96875q0.671875 0.359375 1.578125 0.359375q0.921875 0 1.609375 -0.359375q0.671875 -0.359375 1.03125 -0.96875q0.359375 -0.625 0.359375 -1.375q0 -0.75 -0.359375 -1.375q-0.359375 -0.625 -1.03125 -0.984375q-0.6875 -0.375 -1.59375 -0.375zm-4.140625 -7.517044q0 -1.453125 0.890625 -2.359375q0.875 -0.921875 2.546875 -0.921875l4.734375 0l0 1.328125l-4.546875 0q-1.203125 0 -1.828125 0.609375q-0.640625 0.59375 -0.640625 1.625q0 1.0625 0.65625 1.6875q0.65625 0.609375 1.921875 0.609375l4.4375 0l0 1.34375l-8.03125 0l0 -1.34375l1.140625 0q-0.609375 -0.390625 -0.9375 -1.0625q-0.34375 -0.6875 -0.34375 -1.515625zm8.296875 -8.30191q0 0.921875 -0.3125 1.65625q-0.3125 0.734375 -0.875 1.15625q-0.5625 0.421875 -1.296875 0.46875l0 -1.375q0.59375 -0.0625 0.984375 -0.5625q0.375 -0.515625 0.375 -1.328125q0 -0.765625 -0.328125 -1.203125q-0.34375 -0.4375 -0.859375 -0.4375q-0.53125 0 -0.78125 0.46875q-0.25 0.46875 -0.5 1.453125q-0.234375 0.890625 -0.46875 1.453125q-0.25 0.5625 -0.71875 0.96875q-0.484375 0.40625 -1.265625 0.40625q-0.609375 0 -1.125 -0.359375q-0.515625 -0.375 -0.8125 -1.046875q-0.296875 -0.6875 -0.296875 -1.546875q0 -1.328125 0.671875 -2.140625q0.671875 -0.828125 1.84375 -0.890625l0 1.328125q-0.625 0.046875 -1.0 0.515625q-0.390625 0.453125 -0.390625 1.234375q0 0.71875 0.3125 1.140625q0.296875 0.421875 0.796875 0.421875q0.390625 0 0.65625 -0.25q0.25 -0.265625 0.40625 -0.640625q0.15625 -0.390625 0.34375 -1.078125q0.234375 -0.875 0.46875 -1.40625q0.21875 -0.546875 0.671875 -0.9375q0.453125 -0.390625 1.1875 -0.40625q0.65625 0 1.1875 0.375q0.53125 0.359375 0.828125 1.03125q0.296875 0.65625 0.296875 1.53125zm-4.171875 -4.306839q-1.234375 0 -2.15625 -0.5q-0.9375 -0.5 -1.4375 -1.375q-0.515625 -0.875 -0.515625 -1.9375q0 -1.0625 0.453125 -1.828125q0.453125 -0.78125 1.140625 -1.171875l-1.46875 0l0 -1.34375l8.03125 0l0 1.34375l-1.5 0q0.703125 0.40625 1.171875 1.1875q0.453125 0.78125 0.453125 1.828125q0 1.0625 -0.515625 1.9375q-0.53125 0.859375 -1.484375 1.359375q-0.953125 0.5 -2.171875 0.5zm0.015625 -6.8125q-0.90625 0 -1.578125 0.375q-0.671875 0.359375 -1.03125 0.984375q-0.359375 0.625 -0.359375 1.375q0 0.75 0.359375 1.375q0.34375 0.609375 1.015625 0.96875q0.671875 0.359375 1.578125 0.359375q0.921875 0 1.609375 -0.359375q0.671875 -0.359375 1.03125 -0.96875q0.359375 -0.625 0.359375 -1.375q0 -0.75 -0.359375 -1.375q-0.359375 -0.625 -1.03125 -0.984375q-0.6875 -0.375 -1.59375 -0.375zm0 -3.095169q-1.25 0 -2.171875 -0.5q-0.9375 -0.5 -1.4375 -1.390625q-0.515625 -0.890625 -0.515625 -2.03125q0 -1.484375 0.71875 -2.4375q0.703125 -0.953125 1.984375 -1.265625l0 1.4375q-0.734375 0.203125 -1.15625 0.796875q-0.421875 0.59375 -0.421875 1.46875q0 1.140625 0.78125 1.84375q0.78125 0.703125 2.21875 0.703125q1.453125 0 2.25 -0.703125q0.78125 -0.703125 0.78125 -1.84375q0 -0.875 -0.40625 -1.453125q-0.40625 -0.59375 -1.171875 -0.8125l0 -1.4375q1.234375 0.328125 1.96875 1.296875q0.734375 0.953125 0.734375 2.40625q0 1.140625 -0.5 2.03125q-0.515625 0.890625 -1.453125 1.390625q-0.9375 0.5 -2.203125 0.5zm-2.90625 -11.021378l4.734375 0q0.59375 0 0.84375 -0.25q0.234375 -0.25 0.234375 -0.875l0 -0.96875l1.125 0l0 1.1875q0 1.125 -0.515625 1.6875q-0.515625 0.546875 -1.6875 0.546875l-4.734375 0l0 1.046875l-1.09375 0l0 -1.046875l-2.015625 0l0 -1.328125l2.015625 0l0 -2.09375l1.09375 0l0 2.09375zm-2.40625 -4.3974q0 0.375 -0.25 0.640625q-0.265625 0.265625 -0.65625 0.265625q-0.375 0 -0.640625 -0.265625q-0.265625 -0.265625 -0.265625 -0.640625q0 -0.375 0.265625 -0.625q0.265625 -0.265625 0.640625 -0.265625q0.390625 0 0.65625 0.265625q0.25 0.25 0.25 0.625zm1.3125 -0.65625l8.03125 0l0 1.34375l-8.03125 0l0 -1.34375zm8.15625 -5.7617035q0 1.125 -0.5 2.046875q-0.515625 0.90625 -1.453125 1.4375q-0.953125 0.515625 -2.203125 0.515625q-1.234375 0 -2.171875 -0.53125q-0.953125 -0.546875 -1.453125 -1.46875q-0.5 -0.921875 -0.5 -2.0625q0 -1.140625 0.5 -2.0625q0.5 -0.9375 1.4375 -1.46875q0.9375 -0.53125 2.1875 -0.53125q1.25 0 2.203125 0.546875q0.9375 0.546875 1.453125 1.484375q0.5 0.9375 0.5 2.09375zm-1.171875 0q0 -0.71875 -0.328125 -1.34375q-0.34375 -0.640625 -1.015625 -1.03125q-0.671875 -0.390625 -1.640625 -0.390625q-0.96875 0 -1.640625 0.390625q-0.671875 0.375 -1.0 1.0q-0.328125 0.609375 -0.328125 1.328125q0 0.734375 0.328125 1.34375q0.328125 0.609375 1.0 0.96875q0.671875 0.359375 1.640625 0.359375q0.984375 0 1.65625 -0.359375q0.671875 -0.359375 1.0 -0.953125q0.328125 -0.59375 0.328125 -1.3125zm-7.125 -9.80191q0 -1.453125 0.890625 -2.359375q0.875 -0.921875 2.546875 -0.921875l4.734375 0l0 1.328125l-4.546875 0q-1.203125 0 -1.828125 0.609375q-0.640625 0.59375 -0.640625 1.625q0 1.0625 0.65625 1.6875q0.65625 0.609375 1.921875 0.609375l4.4375 0l0 1.34375l-8.03125 0l0 -1.34375l1.140625 0q-0.609375 -0.390625 -0.9375 -1.0625q-0.34375 -0.6875 -0.34375 -1.515625z" fill-rule="nonzero"/><path fill="#000000" d="m88.19751 187.52133q0 1.015625 -0.359375 1.8125q-0.359375 0.796875 -1.0 1.265625q-0.640625 0.453125 -1.46875 0.46875l0 -1.421875q0.703125 -0.078125 1.203125 -0.59375q0.484375 -0.53125 0.484375 -1.53125q0 -0.9375 -0.46875 -1.484375q-0.484375 -0.5625 -1.21875 -0.5625q-0.59375 0 -0.953125 0.328125q-0.375 0.3125 -0.5625 0.796875q-0.1875 0.484375 -0.40625 1.3125q-0.265625 1.015625 -0.53125 1.625q-0.265625 0.59375 -0.828125 1.03125q-0.5625 0.4375 -1.515625 0.4375q-0.84375 0 -1.484375 -0.421875q-0.640625 -0.4375 -0.984375 -1.203125q-0.359375 -0.765625 -0.359375 -1.765625q0 -1.4375 0.71875 -2.34375q0.71875 -0.921875 1.90625 -1.046875l0 1.46875q-0.59375 0.078125 -1.03125 0.625q-0.453125 0.53125 -0.453125 1.4375q0 0.828125 0.4375 1.359375q0.421875 0.53125 1.203125 0.53125q0.5625 0 0.921875 -0.3125q0.34375 -0.328125 0.53125 -0.78125q0.171875 -0.46875 0.40625 -1.296875q0.28125 -1.015625 0.5625 -1.625q0.265625 -0.625 0.828125 -1.0625q0.5625 -0.4375 1.53125 -0.4375q0.75 0 1.40625 0.40625q0.65625 0.390625 1.078125 1.171875q0.40625 0.765625 0.40625 1.8125zm-7.046875 -6.978256l4.734375 0q0.59375 0 0.84375 -0.25q0.234375 -0.25 0.234375 -0.875l0 -0.96875l1.125 0l0 1.1875q0 1.125 -0.515625 1.6875q-0.515625 0.546875 -1.6875 0.546875l-4.734375 0l0 1.046875l-1.09375 0l0 -1.046875l-2.015625 0l0 -1.328125l2.015625 0l0 -2.09375l1.09375 0l0 2.09375zm2.890625 -3.2099q-1.234375 0 -2.15625 -0.5q-0.9375 -0.5 -1.4375 -1.375q-0.515625 -0.875 -0.515625 -1.9375q0 -1.0625 0.453125 -1.828125q0.453125 -0.78125 1.140625 -1.171875l-1.46875 0l0 -1.34375l8.03125 0l0 1.34375l-1.5 0q0.703125 0.40625 1.171875 1.1875q0.453125 0.78125 0.453125 1.828125q0 1.0625 -0.515625 1.9375q-0.53125 0.859375 -1.484375 1.359375q-0.953125 0.5 -2.171875 0.5zm0.015625 -6.8125q-0.90625 0 -1.578125 0.375q-0.671875 0.359375 -1.03125 0.984375q-0.359375 0.625 -0.359375 1.375q0 0.75 0.359375 1.375q0.34375 0.609375 1.015625 0.96875q0.671875 0.359375 1.578125 0.359375q0.921875 0 1.609375 -0.359375q0.671875 -0.359375 1.03125 -0.96875q0.359375 -0.625 0.359375 -1.375q0 -0.75 -0.359375 -1.375q-0.359375 -0.625 -1.03125 -0.984375q-0.6875 -0.375 -1.59375 -0.375zm-2.703125 -4.938919q-0.6875 -0.34375 -1.0625 -1.0q-0.375 -0.65625 -0.375 -1.59375l1.375 0l0 0.359375q0 2.234375 2.421875 2.234375l4.375 0l0 1.34375l-8.03125 0l0 -1.34375l1.296875 0zm-0.203125 -5.748047l4.734375 0q0.59375 0 0.84375 -0.25q0.234375 -0.25 0.234375 -0.875l0 -0.96875l1.125 0l0 1.1875q0 1.125 -0.515625 1.6875q-0.515625 0.546875 -1.6875 0.546875l-4.734375 0l0 1.046875l-1.09375 0l0 -1.046875l-2.015625 0l0 -1.328125l2.015625 0l0 -2.09375l1.09375 0l0 2.09375zm-2.40625 -4.3974q0 0.375 -0.25 0.640625q-0.265625 0.265625 -0.65625 0.265625q-0.375 0 -0.640625 -0.265625q-0.265625 -0.265625 -0.265625 -0.640625q0 -0.375 0.265625 -0.625q0.265625 -0.265625 0.640625 -0.265625q0.390625 0 0.65625 0.265625q0.25 0.25 0.25 0.625zm1.3125 -0.65625l8.03125 0l0 1.34375l-8.03125 0l0 -1.34375zm-0.140625 -6.1835785q0 -1.453125 0.890625 -2.359375q0.875 -0.921875 2.546875 -0.921875l4.734375 0l0 1.328125l-4.546875 0q-1.203125 0 -1.828125 0.609375q-0.640625 0.59375 -0.640625 1.625q0 1.0625 0.65625 1.6875q0.65625 0.609375 1.921875 0.609375l4.4375 0l0 1.34375l-8.03125 0l0 -1.34375l1.140625 0q-0.609375 -0.390625 -0.9375 -1.0625q-0.34375 -0.6875 -0.34375 -1.515625zm0.015625 -8.77066q0 -1.046875 0.453125 -1.828125q0.453125 -0.78125 1.140625 -1.171875l-1.46875 0l0 -1.34375l8.203125 0q1.109375 0 1.953125 0.46875q0.859375 0.46875 1.34375 1.34375q0.484375 0.875 0.484375 2.03125q0 1.578125 -0.75 2.640625q-0.734375 1.046875 -2.03125 1.234375l0 -1.3125q0.734375 -0.21875 1.171875 -0.90625q0.453125 -0.6875 0.453125 -1.65625q0 -1.09375 -0.6875 -1.796875q-0.6875 -0.703125 -1.9375 -0.703125l-1.6875 0q0.703125 0.40625 1.171875 1.1875q0.46875 0.765625 0.46875 1.8125q0 1.0625 -0.515625 1.9375q-0.53125 0.875 -1.484375 1.375q-0.953125 0.5 -2.171875 0.5q-1.234375 0 -2.15625 -0.5q-0.9375 -0.5 -1.4375 -1.375q-0.515625 -0.875 -0.515625 -1.9375zm4.125 -3.0q-0.90625 0 -1.578125 0.375q-0.671875 0.359375 -1.03125 0.984375q-0.359375 0.625 -0.359375 1.375q0 0.75 0.359375 1.375q0.34375 0.609375 1.015625 0.96875q0.671875 0.359375 1.578125 0.359375q0.921875 0 1.609375 -0.359375q0.671875 -0.359375 1.03125 -0.96875q0.359375 -0.625 0.359375 -1.375q0 -0.75 -0.359375 -1.375q-0.359375 -0.625 -1.03125 -0.984375q-0.6875 -0.375 -1.59375 -0.375z" fill-rule="nonzero"/><path fill="#000000" d="m99.14126 179.46129q-0.6875 -0.390625 -1.140625 -1.171875q-0.46875 -0.78125 -0.46875 -1.828125q0 -1.0625 0.515625 -1.9375q0.5 -0.875 1.4375 -1.375q0.921875 -0.5 2.15625 -0.5q1.21875 0 2.171875 0.5q0.953125 0.5 1.484375 1.375q0.515625 0.875 0.515625 1.9375q0 1.03125 -0.453125 1.8125q-0.46875 0.78125 -1.15625 1.1875l5.296875 0l0 1.34375l-11.84375 0l0 -1.34375l1.484375 0zm2.5 -5.453125q-0.90625 0 -1.578125 0.375q-0.671875 0.359375 -1.015625 0.984375q-0.359375 0.625 -0.359375 1.375q0 0.734375 0.359375 1.359375q0.359375 0.625 1.046875 1.0q0.671875 0.359375 1.5625 0.359375q0.90625 0 1.59375 -0.359375q0.671875 -0.375 1.03125 -1.0q0.359375 -0.625 0.359375 -1.359375q0 -0.75 -0.359375 -1.375q-0.359375 -0.625 -1.03125 -0.984375q-0.6875 -0.375 -1.609375 -0.375zm4.171875 -6.610794q0 1.125 -0.5 2.046875q-0.515625 0.90625 -1.453125 1.4375q-0.953125 0.515625 -2.203125 0.515625q-1.234375 0 -2.171875 -0.53125q-0.953125 -0.546875 -1.453125 -1.46875q-0.5 -0.921875 -0.5 -2.0625q0 -1.140625 0.5 -2.0625q0.5 -0.9375 1.4375 -1.46875q0.9375 -0.53125 2.1875 -0.53125q1.25 0 2.203125 0.546875q0.9375 0.546875 1.453125 1.484375q0.5 0.9375 0.5 2.09375zm-1.171875 0q0 -0.71875 -0.328125 -1.34375q-0.34375 -0.640625 -1.015625 -1.03125q-0.671875 -0.390625 -1.640625 -0.390625q-0.96875 0 -1.640625 0.390625q-0.671875 0.375 -1.0 1.0q-0.328125 0.609375 -0.328125 1.328125q0 0.734375 0.328125 1.34375q0.328125 0.609375 1.0 0.96875q0.671875 0.359375 1.640625 0.359375q0.984375 0 1.65625 -0.359375q0.671875 -0.359375 1.0 -0.953125q0.328125 -0.59375 0.328125 -1.3125zm-8.296875 -6.5675354q0 0.375 -0.25 0.640625q-0.265625 0.265625 -0.65625 0.265625q-0.375 0 -0.640625 -0.265625q-0.265625 -0.265625 -0.265625 -0.640625q0 -0.375 0.265625 -0.625q0.265625 -0.265625 0.640625 -0.265625q0.390625 0 0.65625 0.265625q0.25 0.25 0.25 0.625zm1.3125 -0.65625l8.03125 0l0 1.34375l-8.03125 0l0 -1.34375zm-0.140625 -6.1835785q0 -1.453125 0.890625 -2.359375q0.875 -0.921875 2.546875 -0.921875l4.734375 0l0 1.328125l-4.546875 0q-1.203125 0 -1.828125 0.609375q-0.640625 0.59375 -0.640625 1.625q0 1.0625 0.65625 1.6875q0.65625 0.609375 1.921875 0.609375l4.4375 0l0 1.34375l-8.03125 0l0 -1.34375l1.140625 0q-0.609375 -0.390625 -0.9375 -1.0625q-0.34375 -0.6875 -0.34375 -1.515625zm1.234375 -7.0831604l4.734375 0q0.59375 0 0.84375 -0.25q0.234375 -0.25 0.234375 -0.875l0 -0.96875l1.125 0l0 1.1875q0 1.125 -0.515625 1.6875q-0.515625 0.546875 -1.6875 0.546875l-4.734375 0l0 1.046875l-1.09375 0l0 -1.046875l-2.015625 0l0 -1.328125l2.015625 0l0 -2.09375l1.09375 0l0 2.09375z" fill-rule="nonzero"/><path fill="#000000" fill-opacity="0.0" d="m623.04596 222.87401l0 -117.32283l72.724365 0l0 117.32283z" fill-rule="evenodd"/><path fill="#000000" d="m635.90717 180.60722l1.09375 0l0 2.796875l9.125 0l0 1.328125l-9.125 0l0 2.796875l-1.09375 0l0 -6.921875zm6.171875 -1.1321869q-1.234375 0 -2.15625 -0.5q-0.9375 -0.5 -1.4375 -1.375q-0.515625 -0.875 -0.515625 -1.9375q0 -1.0625 0.453125 -1.828125q0.453125 -0.78125 1.140625 -1.171875l-1.46875 0l0 -1.34375l8.03125 0l0 1.34375l-1.5 0q0.703125 0.40625 1.171875 1.1875q0.453125 0.78125 0.453125 1.828125q0 1.0625 -0.515625 1.9375q-0.53125 0.859375 -1.484375 1.359375q-0.953125 0.5 -2.171875 0.5zm0.015625 -6.8125q-0.90625 0 -1.578125 0.375q-0.671875 0.359375 -1.03125 0.984375q-0.359375 0.625 -0.359375 1.375q0 0.75 0.359375 1.375q0.34375 0.609375 1.015625 0.96875q0.671875 0.359375 1.578125 0.359375q0.921875 0 1.609375 -0.359375q0.671875 -0.359375 1.03125 -0.96875q0.359375 -0.625 0.359375 -1.375q0 -0.75 -0.359375 -1.375q-0.359375 -0.625 -1.03125 -0.984375q-0.6875 -0.375 -1.59375 -0.375zm-2.703125 -4.938919q-0.6875 -0.34375 -1.0625 -1.0q-0.375 -0.65625 -0.375 -1.59375l1.375 0l0 0.359375q0 2.234375 2.421875 2.234375l4.375 0l0 1.34375l-8.03125 0l0 -1.34375l1.296875 0zm-1.421875 -7.435547q0 -1.046875 0.453125 -1.828125q0.453125 -0.78125 1.140625 -1.171875l-1.46875 0l0 -1.34375l8.203125 0q1.109375 0 1.953125 0.46875q0.859375 0.46875 1.34375 1.34375q0.484375 0.875 0.484375 2.03125q0 1.578125 -0.75 2.640625q-0.734375 1.046875 -2.03125 1.234375l0 -1.3125q0.734375 -0.21875 1.171875 -0.90625q0.453125 -0.6875 0.453125 -1.65625q0 -1.09375 -0.6875 -1.796875q-0.6875 -0.703125 -1.9375 -0.703125l-1.6875 0q0.703125 0.40625 1.171875 1.1875q0.46875 0.765625 0.46875 1.8125q0 1.0625 -0.515625 1.9375q-0.53125 0.875 -1.484375 1.375q-0.953125 0.5 -2.171875 0.5q-1.234375 0 -2.15625 -0.5q-0.9375 -0.5 -1.4375 -1.375q-0.515625 -0.875 -0.515625 -1.9375zm4.125 -3.0q-0.90625 0 -1.578125 0.375q-0.671875 0.359375 -1.03125 0.984375q-0.359375 0.625 -0.359375 1.375q0 0.75 0.359375 1.375q0.34375 0.609375 1.015625 0.96875q0.671875 0.359375 1.578125 0.359375q0.921875 0 1.609375 -0.359375q0.671875 -0.359375 1.03125 -0.96875q0.359375 -0.625 0.359375 -1.375q0 -0.75 -0.359375 -1.375q-0.359375 -0.625 -1.03125 -0.984375q-0.6875 -0.375 -1.59375 -0.375zm-0.296875 -10.923294q0.390625 0 0.8125 0.046875l0 6.40625q1.1875 -0.0625 1.859375 -0.796875q0.65625 -0.75 0.65625 -1.8125q0 -0.859375 -0.390625 -1.4375q-0.40625 -0.578125 -1.09375 -0.8125l0 -1.4375q1.171875 0.328125 1.890625 1.296875q0.71875 0.96875 0.71875 2.390625q0 1.15625 -0.5 2.0625q-0.515625 0.890625 -1.453125 1.40625q-0.953125 0.515625 -2.203125 0.515625q-1.25 0 -2.1875 -0.5q-0.9375 -0.5 -1.4375 -1.390625q-0.5 -0.90625 -0.5 -2.09375q0 -1.140625 0.5 -2.015625q0.484375 -0.875 1.359375 -1.34375q0.875 -0.484375 1.96875 -0.484375zm-0.28125 1.375q-0.75 0 -1.296875 0.34375q-0.5625 0.328125 -0.84375 0.90625q-0.28125 0.578125 -0.28125 1.28125q0 1.015625 0.640625 1.734375q0.640625 0.703125 1.78125 0.796875l0 -5.0625zm-2.328125 -4.758789l4.734375 0q0.59375 0 0.84375 -0.25q0.234375 -0.25 0.234375 -0.875l0 -0.96875l1.125 0l0 1.1875q0 1.125 -0.515625 1.6875q-0.515625 0.546875 -1.6875 0.546875l-4.734375 0l0 1.046875l-1.09375 0l0 -1.046875l-2.015625 0l0 -1.328125l2.015625 0l0 -2.09375l1.09375 0l0 2.09375z" fill-rule="nonzero"/><path fill="#000000" d="m654.60095 209.50877l3.40625 0l0 -3.71875l1.109375 0l0 3.71875l3.515625 0l0 -4.15625l1.09375 0l0 5.5l-10.234375 0l0 -5.5l1.109375 0l0 4.15625zm0.953125 -10.096817q0 -1.453125 0.890625 -2.359375q0.875 -0.921875 2.546875 -0.921875l4.734375 0l0 1.328125l-4.546875 0q-1.203125 0 -1.828125 0.609375q-0.640625 0.59375 -0.640625 1.625q0 1.0625 0.65625 1.6875q0.65625 0.609375 1.921875 0.609375l4.4375 0l0 1.34375l-8.03125 0l0 -1.34375l1.140625 0q-0.609375 -0.390625 -0.9375 -1.0625q-0.34375 -0.6875 -0.34375 -1.515625zm4.125 -4.9581604q-1.234375 0 -2.15625 -0.5q-0.9375 -0.5 -1.4375 -1.375q-0.515625 -0.875 -0.515625 -1.953125q0 -0.9375 0.4375 -1.734375q0.421875 -0.8125 1.125 -1.25l-4.25 0l0 -1.34375l10.84375 0l0 1.34375l-1.515625 0q0.71875 0.40625 1.1875 1.1875q0.453125 0.765625 0.453125 1.8125q0 1.0625 -0.515625 1.9375q-0.53125 0.875 -1.484375 1.375q-0.953125 0.5 -2.171875 0.5zm0.015625 -6.8125q-0.90625 0 -1.578125 0.375q-0.671875 0.359375 -1.03125 0.984375q-0.359375 0.625 -0.359375 1.375q0 0.75 0.359375 1.375q0.34375 0.609375 1.015625 0.96875q0.671875 0.359375 1.578125 0.359375q0.921875 0 1.609375 -0.359375q0.671875 -0.359375 1.03125 -0.96875q0.359375 -0.625 0.359375 -1.375q0 -0.75 -0.359375 -1.375q-0.359375 -0.625 -1.03125 -0.984375q-0.6875 -0.375 -1.59375 -0.375zm-5.3125 -4.282669q0 0.375 -0.25 0.640625q-0.265625 0.265625 -0.65625 0.265625q-0.375 0 -0.640625 -0.265625q-0.265625 -0.265625 -0.265625 -0.640625q0 -0.375 0.265625 -0.625q0.265625 -0.265625 0.640625 -0.265625q0.390625 0 0.65625 0.265625q0.25 0.25 0.25 0.625zm1.3125 -0.65625l8.03125 0l0 1.34375l-8.03125 0l0 -1.34375zm-0.140625 -6.1835785q0 -1.453125 0.890625 -2.359375q0.875 -0.921875 2.546875 -0.921875l4.734375 0l0 1.328125l-4.546875 0q-1.203125 0 -1.828125 0.609375q-0.640625 0.59375 -0.640625 1.625q0 1.0625 0.65625 1.6875q0.65625 0.609375 1.921875 0.609375l4.4375 0l0 1.34375l-8.03125 0l0 -1.34375l1.140625 0q-0.609375 -0.390625 -0.9375 -1.0625q-0.34375 -0.6875 -0.34375 -1.515625zm0.015625 -8.77066q0 -1.046875 0.453125 -1.828125q0.453125 -0.78125 1.140625 -1.171875l-1.46875 0l0 -1.34375l8.203125 0q1.109375 0 1.953125 0.46875q0.859375 0.46875 1.34375 1.34375q0.484375 0.875 0.484375 2.03125q0 1.578125 -0.75 2.640625q-0.734375 1.046875 -2.03125 1.234375l0 -1.3125q0.734375 -0.21875 1.171875 -0.90625q0.453125 -0.6875 0.453125 -1.65625q0 -1.09375 -0.6875 -1.796875q-0.6875 -0.703125 -1.9375 -0.703125l-1.6875 0q0.703125 0.40625 1.171875 1.1875q0.46875 0.765625 0.46875 1.8125q0 1.0625 -0.515625 1.9375q-0.53125 0.875 -1.484375 1.375q-0.953125 0.5 -2.171875 0.5q-1.234375 0 -2.15625 -0.5q-0.9375 -0.5 -1.4375 -1.375q-0.515625 -0.875 -0.515625 -1.9375zm4.125 -3.0q-0.90625 0 -1.578125 0.375q-0.671875 0.359375 -1.03125 0.984375q-0.359375 0.625 -0.359375 1.375q0 0.75 0.359375 1.375q0.34375 0.609375 1.015625 0.96875q0.671875 0.359375 1.578125 0.359375q0.921875 0 1.609375 -0.359375q0.671875 -0.359375 1.03125 -0.96875q0.359375 -0.625 0.359375 -1.375q0 -0.75 -0.359375 -1.375q-0.359375 -0.625 -1.03125 -0.984375q-0.6875 -0.375 -1.59375 -0.375zm4.15625 -11.008423q0 1.125 -0.5 2.046875q-0.515625 0.90625 -1.453125 1.4375q-0.953125 0.515625 -2.203125 0.515625q-1.234375 0 -2.171875 -0.53125q-0.953125 -0.546875 -1.453125 -1.46875q-0.5 -0.921875 -0.5 -2.0625q0 -1.140625 0.5 -2.0625q0.5 -0.9375 1.4375 -1.46875q0.9375 -0.53125 2.1875 -0.53125q1.25 0 2.203125 0.546875q0.9375 0.546875 1.453125 1.484375q0.5 0.9375 0.5 2.09375zm-1.171875 0q0 -0.71875 -0.328125 -1.34375q-0.34375 -0.640625 -1.015625 -1.03125q-0.671875 -0.390625 -1.640625 -0.390625q-0.96875 0 -1.640625 0.390625q-0.671875 0.375 -1.0 1.0q-0.328125 0.609375 -0.328125 1.328125q0 0.734375 0.328125 1.34375q0.328125 0.609375 1.0 0.96875q0.671875 0.359375 1.640625 0.359375q0.984375 0 1.65625 -0.359375q0.671875 -0.359375 1.0 -0.953125q0.328125 -0.59375 0.328125 -1.3125zm-5.890625 -9.14566l0 1.671875l6.9375 0l0 1.34375l-6.9375 0l0 1.03125l-1.09375 0l0 -1.03125l-0.578125 0q-1.34375 0 -1.96875 -0.6875q-0.625 -0.703125 -0.625 -2.25l1.125 0q0 0.890625 0.34375 1.25q0.34375 0.34375 1.125 0.34375l0.578125 0l0 -1.671875l1.09375 0zm0 -7.0945435l4.734375 0q0.59375 0 0.84375 -0.25q0.234375 -0.25 0.234375 -0.875l0 -0.96875l1.125 0l0 1.1875q0 1.125 -0.515625 1.6875q-0.515625 0.546875 -1.6875 0.546875l-4.734375 0l0 1.046875l-1.09375 0l0 -1.046875l-2.015625 0l0 -1.328125l2.015625 0l0 -2.09375l1.09375 0l0 2.09375zm-1.234375 -7.694275q0 -0.921875 0.390625 -1.640625q0.375 -0.7343674 1.15625 -1.1562424q0.78125 -0.421875 1.890625 -0.421875l4.734375 0l0 1.328125l-4.546875 0q-1.203125 0 -1.828125 0.6093674q-0.640625 0.59375 -0.640625 1.625q0 1.0625 0.65625 1.6875q0.65625 0.609375 1.921875 0.609375l4.4375 0l0 1.34375l-10.84375 0l0 -1.34375l3.953125 0q-0.609375 -0.390625 -0.9375 -1.078125q-0.34375 -0.703125 -0.34375 -1.5625zm3.84375 -12.723778q0.390625 0 0.8125 0.046875l0 6.40625q1.1875 -0.0625 1.859375 -0.796875q0.65625 -0.75 0.65625 -1.8125q0 -0.859375 -0.390625 -1.4375q-0.40625 -0.578125 -1.09375 -0.8125l0 -1.4375q1.171875 0.328125 1.890625 1.296875q0.71875 0.96875 0.71875 2.390625q0 1.15625 -0.5 2.0625q-0.515625 0.890625 -1.453125 1.40625q-0.953125 0.515625 -2.203125 0.515625q-1.25 0 -2.1875 -0.5q-0.9375 -0.5 -1.4375 -1.390625q-0.5 -0.90625 -0.5 -2.09375q0 -1.140625 0.5 -2.015625q0.484375 -0.875 1.359375 -1.34375q0.875 -0.484375 1.96875 -0.484375zm-0.28125 1.375q-0.75 0 -1.296875 0.34375q-0.5625 0.328125 -0.84375 0.90625q-0.28125 0.578125 -0.28125 1.28125q0 1.015625 0.640625 1.734375q0.640625 0.703125 1.78125 0.796875l0 -5.0625z" fill-rule="nonzero"/><path fill="#000000" d="m674.3884 203.58482l4.734375 0q0.59375 0 0.84375 -0.25q0.234375 -0.25 0.234375 -0.875l0 -0.96875l1.125 0l0 1.1875q0 1.125 -0.515625 1.6875q-0.515625 0.546875 -1.6875 0.546875l-4.734375 0l0 1.046875l-1.09375 0l0 -1.046875l-2.015625 0l0 -1.328125l2.015625 0l0 -2.09375l1.09375 0l0 2.09375zm0.203125 -5.05365q-0.6875 -0.34375 -1.0625 -1.0q-0.375 -0.65625 -0.375 -1.59375l1.375 0l0 0.359375q0 2.234375 2.421875 2.234375l4.375 0l0 1.34375l-8.03125 0l0 -1.34375l1.296875 0zm2.6875 -3.6230469q-1.234375 0 -2.15625 -0.5q-0.9375 -0.5 -1.4375 -1.375q-0.515625 -0.875 -0.515625 -1.9375q0 -1.0625 0.453125 -1.828125q0.453125 -0.78125 1.140625 -1.171875l-1.46875 0l0 -1.34375l8.03125 0l0 1.34375l-1.5 0q0.703125 0.40625 1.171875 1.1875q0.453125 0.78125 0.453125 1.828125q0 1.0625 -0.515625 1.9375q-0.53125 0.859375 -1.484375 1.359375q-0.953125 0.5 -2.171875 0.5zm0.015625 -6.8125q-0.90625 0 -1.578125 0.375q-0.671875 0.359375 -1.03125 0.984375q-0.359375 0.625 -0.359375 1.375q0 0.75 0.359375 1.375q0.34375 0.609375 1.015625 0.96875q0.671875 0.359375 1.578125 0.359375q0.921875 0 1.609375 -0.359375q0.671875 -0.359375 1.03125 -0.96875q0.359375 -0.625 0.359375 -1.375q0 -0.75 -0.359375 -1.375q-0.359375 -0.625 -1.03125 -0.984375q-0.6875 -0.375 -1.59375 -0.375zm-4.140625 -7.517044q0 -1.453125 0.890625 -2.359375q0.875 -0.921875 2.546875 -0.921875l4.734375 0l0 1.328125l-4.546875 0q-1.203125 0 -1.828125 0.609375q-0.640625 0.59375 -0.640625 1.625q0 1.0625 0.65625 1.6875q0.65625 0.609375 1.921875 0.609375l4.4375 0l0 1.34375l-8.03125 0l0 -1.34375l1.140625 0q-0.609375 -0.390625 -0.9375 -1.0625q-0.34375 -0.6875 -0.34375 -1.515625zm8.296875 -8.30191q0 0.921875 -0.3125 1.65625q-0.3125 0.734375 -0.875 1.15625q-0.5625 0.421875 -1.296875 0.46875l0 -1.375q0.59375 -0.0625 0.984375 -0.5625q0.375 -0.515625 0.375 -1.328125q0 -0.765625 -0.328125 -1.203125q-0.34375 -0.4375 -0.859375 -0.4375q-0.53125 0 -0.78125 0.46875q-0.25 0.46875 -0.5 1.453125q-0.234375 0.890625 -0.46875 1.453125q-0.25 0.5625 -0.71875 0.96875q-0.484375 0.40625 -1.265625 0.40625q-0.609375 0 -1.125 -0.359375q-0.515625 -0.375 -0.8125 -1.046875q-0.296875 -0.6875 -0.296875 -1.546875q0 -1.328125 0.671875 -2.140625q0.671875 -0.828125 1.84375 -0.890625l0 1.328125q-0.625 0.046875 -1.0 0.515625q-0.390625 0.453125 -0.390625 1.234375q0 0.71875 0.3125 1.140625q0.296875 0.421875 0.796875 0.421875q0.390625 0 0.65625 -0.25q0.25 -0.265625 0.40625 -0.640625q0.15625 -0.390625 0.34375 -1.078125q0.234375 -0.875 0.46875 -1.40625q0.21875 -0.546875 0.671875 -0.9375q0.453125 -0.390625 1.1875 -0.40625q0.65625 0 1.1875 0.375q0.53125 0.359375 0.828125 1.03125q0.296875 0.65625 0.296875 1.53125zm-4.171875 -4.306839q-1.234375 0 -2.15625 -0.5q-0.9375 -0.5 -1.4375 -1.375q-0.515625 -0.875 -0.515625 -1.9375q0 -1.0625 0.453125 -1.828125q0.453125 -0.78125 1.140625 -1.171875l-1.46875 0l0 -1.34375l8.03125 0l0 1.34375l-1.5 0q0.703125 0.40625 1.171875 1.1875q0.453125 0.78125 0.453125 1.828125q0 1.0625 -0.515625 1.9375q-0.53125 0.859375 -1.484375 1.359375q-0.953125 0.5 -2.171875 0.5zm0.015625 -6.8125q-0.90625 0 -1.578125 0.375q-0.671875 0.359375 -1.03125 0.984375q-0.359375 0.625 -0.359375 1.375q0 0.75 0.359375 1.375q0.34375 0.609375 1.015625 0.96875q0.671875 0.359375 1.578125 0.359375q0.921875 0 1.609375 -0.359375q0.671875 -0.359375 1.03125 -0.96875q0.359375 -0.625 0.359375 -1.375q0 -0.75 -0.359375 -1.375q-0.359375 -0.625 -1.03125 -0.984375q-0.6875 -0.375 -1.59375 -0.375zm0 -3.095169q-1.25 0 -2.171875 -0.5q-0.9375 -0.5 -1.4375 -1.390625q-0.515625 -0.890625 -0.515625 -2.03125q0 -1.484375 0.71875 -2.4375q0.703125 -0.953125 1.984375 -1.265625l0 1.4375q-0.734375 0.203125 -1.15625 0.796875q-0.421875 0.59375 -0.421875 1.46875q0 1.140625 0.78125 1.84375q0.78125 0.703125 2.21875 0.703125q1.453125 0 2.25 -0.703125q0.78125 -0.703125 0.78125 -1.84375q0 -0.875 -0.40625 -1.453125q-0.40625 -0.59375 -1.171875 -0.8125l0 -1.4375q1.234375 0.328125 1.96875 1.296875q0.734375 0.953125 0.734375 2.40625q0 1.140625 -0.5 2.03125q-0.515625 0.890625 -1.453125 1.390625q-0.9375 0.5 -2.203125 0.5zm-2.90625 -11.021378l4.734375 0q0.59375 0 0.84375 -0.25q0.234375 -0.25 0.234375 -0.875l0 -0.96875l1.125 0l0 1.1875q0 1.125 -0.515625 1.6875q-0.515625 0.546875 -1.6875 0.546875l-4.734375 0l0 1.046875l-1.09375 0l0 -1.046875l-2.015625 0l0 -1.328125l2.015625 0l0 -2.09375l1.09375 0l0 2.09375zm-2.40625 -4.3974q0 0.375 -0.25 0.640625q-0.265625 0.265625 -0.65625 0.265625q-0.375 0 -0.640625 -0.265625q-0.265625 -0.265625 -0.265625 -0.640625q0 -0.375 0.265625 -0.625q0.265625 -0.265625 0.640625 -0.265625q0.390625 0 0.65625 0.265625q0.25 0.25 0.25 0.625zm1.3125 -0.65625l8.03125 0l0 1.34375l-8.03125 0l0 -1.34375zm8.15625 -5.7617035q0 1.125 -0.5 2.046875q-0.515625 0.90625 -1.453125 1.4375q-0.953125 0.515625 -2.203125 0.515625q-1.234375 0 -2.171875 -0.53125q-0.953125 -0.546875 -1.453125 -1.46875q-0.5 -0.921875 -0.5 -2.0625q0 -1.140625 0.5 -2.0625q0.5 -0.9375 1.4375 -1.46875q0.9375 -0.53125 2.1875 -0.53125q1.25 0 2.203125 0.546875q0.9375 0.546875 1.453125 1.484375q0.5 0.9375 0.5 2.09375zm-1.171875 0q0 -0.71875 -0.328125 -1.34375q-0.34375 -0.640625 -1.015625 -1.03125q-0.671875 -0.390625 -1.640625 -0.390625q-0.96875 0 -1.640625 0.390625q-0.671875 0.375 -1.0 1.0q-0.328125 0.609375 -0.328125 1.328125q0 0.734375 0.328125 1.34375q0.328125 0.609375 1.0 0.96875q0.671875 0.359375 1.640625 0.359375q0.984375 0 1.65625 -0.359375q0.671875 -0.359375 1.0 -0.953125q0.328125 -0.59375 0.328125 -1.3125zm-7.125 -9.801903q0 -1.453125 0.890625 -2.359375q0.875 -0.921875 2.546875 -0.921875l4.734375 0l0 1.328125l-4.546875 0q-1.203125 0 -1.828125 0.609375q-0.640625 0.59375 -0.640625 1.625q0 1.0625 0.65625 1.6874924q0.65625 0.609375 1.921875 0.609375l4.4375 0l0 1.34375l-8.03125 0l0 -1.34375l1.140625 0q-0.609375 -0.390625 -0.9375 -1.0624924q-0.34375 -0.6875 -0.34375 -1.515625z" fill-rule="nonzero"/><path fill="#4bb543" d="m0 0l729.2598 0l0 7.4960628l-729.2598 0z" fill-rule="evenodd"/><path stroke="#4bb543" stroke-width="1.0" stroke-linejoin="round" stroke-linecap="butt" d="m0 0l729.2598 0l0 7.4960628l-729.2598 0z" fill-rule="evenodd"/></g></svg>