<svg width="1280" height="720" xmlns="http://www.w3.org/2000/svg" xmlns:xlink="http://www.w3.org/1999/xlink" overflow="hidden"><defs><clipPath id="clip0"><rect x="0" y="0" width="1280" height="720"/></clipPath></defs><g clip-path="url(#clip0)"><rect x="0" y="0" width="1280" height="720" fill="#FFFFFF"/><rect x="144.5" y="296.5" width="155" height="115" stroke="#28B86C" stroke-width="3" stroke-miterlimit="8" fill="#83FFBB"/><text fill="#262626" font-family="Poppins Light,Poppins Light_MSFontService,sans-serif" font-weight="700" font-size="15" transform="translate(167.748 349)">CREATE_ORDER<tspan font-size="15" x="0.666656" y="18">Transaction</tspan><tspan font-size="15" x="86.5" y="18">-</tspan><tspan font-size="15" x="94.1667" y="18">01</tspan></text><rect x="523.5" y="296.5" width="155" height="115" stroke="#28B86C" stroke-width="3" stroke-miterlimit="8" fill="#83FFBB"/><text fill="#262626" font-family="Poppins Light,Poppins Light_MSFontService,sans-serif" font-weight="700" font-size="14" transform="translate(535.197 350)">PROCESS_PAYMENT<tspan font-size="14" x="12.5" y="17">Transaction</tspan><tspan font-size="14" x="94.5001" y="17">-</tspan><tspan font-size="14" x="101.833" y="17">02</tspan></text><rect x="735.5" y="296.5" width="155" height="115" stroke="#28B86C" stroke-width="3" stroke-miterlimit="8" fill="#83FFBB"/><text fill="#262626" font-family="Poppins Light,Poppins Light_MSFontService,sans-serif" font-weight="700" font-size="14" transform="translate(745.659 350)">UPDATE_INVENTORY<tspan font-size="14" x="13.4133" y="17">Transaction</tspan><tspan font-size="14" x="95.4133" y="17">-</tspan><tspan font-size="14" x="102.747" y="17">03</tspan></text><rect x="955.5" y="296.5" width="155" height="115" stroke="#28B86C" stroke-width="3" stroke-miterlimit="8" fill="#83FFBB"/><text fill="#262626" font-family="Poppins Light,Poppins Light_MSFontService,sans-serif" font-weight="700" font-size="14" transform="translate(980.519 350)">DELIVER_ORDER<tspan font-size="14" x="-1.41333" y="17">Transaction</tspan><tspan font-size="14" x="80.5867" y="17">-</tspan><tspan font-size="14" x="87.92" y="17">04</tspan></text><rect x="144.5" y="458.5" width="155" height="115" stroke="#FFC000" stroke-width="3" stroke-miterlimit="8" fill="#FFD966"/><text fill="#262626" font-family="Poppins Light,Poppins Light_MSFontService,sans-serif" font-weight="700" font-size="15" transform="translate(165.832 520)">CANCEL_ORDER</text><rect x="523.5" y="458.5" width="155" height="115" stroke="#FFC000" stroke-width="3" stroke-miterlimit="8" fill="#FFD966"/><text fill="#262626" font-family="Poppins Light,Poppins Light_MSFontService,sans-serif" font-weight="700" font-size="14" transform="translate(538.363 520)">REVERSE_PAYMENT</text><rect x="735.5" y="458.5" width="155" height="116" stroke="#FFC000" stroke-width="3" stroke-miterlimit="8" fill="#FFD966"/><text fill="#262626" font-family="Poppins Light,Poppins Light_MSFontService,sans-serif" font-weight="700" font-size="14" transform="translate(747.492 512)">REVERT_INVENTORY<tspan font-size="14" x="34.6667" y="17">_UPDATE</tspan></text><rect x="955.5" y="458.5" width="155" height="115" stroke="#FFC000" stroke-width="3" stroke-miterlimit="8" fill="#FFD966"/><text fill="#262626" font-family="Poppins Light,Poppins Light_MSFontService,sans-serif" font-weight="700" font-size="14" transform="translate(972.022 520)">CANCEL_DELIVERY</text><path d="M138.315 356.16 106.971 355.833 107.029 350.167 138.374 350.493ZM122.902 340.801 143.968 353.385 122.644 365.528C121.285 366.302 119.555 365.827 118.78 364.468 118.006 363.108 118.481 361.378 119.84 360.603L136.943 350.864 136.892 355.759 119.996 345.666C118.653 344.863 118.214 343.124 119.017 341.78 119.819 340.437 121.559 339.998 122.902 340.801Z" fill="#28B86C"/><path d="M299 350.833 516.316 350.833 516.316 357.167 299 357.167ZM498.912 340.181 522.601 354 498.912 367.819C497.401 368.7 495.462 368.19 494.581 366.679 493.7 365.168 494.21 363.229 495.72 362.348L514.72 351.265 514.72 356.735 495.72 345.652C494.21 344.771 493.7 342.832 494.581 341.321 495.462 339.811 497.401 339.3 498.912 340.181Z" fill="#28B86C"/><path d="M678.01 350.833 727.922 350.983 727.903 357.317 677.99 357.167ZM710.55 340.279 734.198 354.169 710.467 367.916C708.954 368.793 707.016 368.277 706.14 366.764 705.263 365.25 705.779 363.313 707.292 362.436L726.326 351.41 726.309 356.88 707.343 345.74C705.834 344.854 705.33 342.914 706.216 341.406 707.102 339.898 709.042 339.393 710.55 340.279Z" fill="#28B86C"/><path d="M0.00822436-3.16666 58.7391-3.01412 58.7226 3.31919-0.00822436 3.16666ZM41.3625-13.7113 65.0156 0.168857 41.2907 13.9259C39.7778 14.8032 37.8401 14.2879 36.9628 12.775 36.0855 11.262 36.6008 9.32434 38.1138 8.44705L57.1425-2.5869 57.1283 2.88368 38.1571-8.24896C36.6488-9.1341 36.1435-11.0744 37.0287-12.5828 37.9138-14.0912 39.8541-14.5964 41.3625-13.7113Z" fill="#28B86C" transform="matrix(1 0 0 -1 890 354.169)"/><path d="M0.0232359-2.66657 59.7444-2.14617 59.6979 3.18696-0.0232359 2.66657ZM45.1668-11.2436 65.0133 0.566512 44.964 12.029C43.6854 12.76 42.0564 12.3161 41.3254 11.0375 40.5944 9.75894 41.0383 8.1299 42.3169 7.39893L58.3976-1.79463 58.3575 2.81201 42.4394-6.66038C41.1738-7.41352 40.7583-9.05005 41.5115-10.3157 42.2646-11.5813 43.9011-11.9967 45.1668-11.2436Z" fill="#FFC000" transform="matrix(-1 0 0 1 955.501 515.5)"/><path d="M734.656 518.733 683.753 518.22 683.807 512.887 734.71 513.4ZM698.318 527.337 678.488 515.5 698.553 504.065C699.832 503.336 701.461 503.782 702.19 505.061 702.919 506.341 702.473 507.969 701.193 508.699L685.1 517.87 685.147 513.264 701.052 522.758C702.316 523.513 702.729 525.15 701.975 526.414 701.22 527.679 699.583 528.092 698.318 527.337Z" fill="#FFC000"/><path d="M1.25216e-06-2.66667 218.306-2.66656 218.306 2.66677-1.25216e-06 2.66667ZM203.65-11.6366 223.598 0.000104334 203.65 11.6368C202.378 12.3789 200.745 11.9492 200.003 10.6771 199.261 9.40494 199.69 7.7721 200.962 7.03002L216.962-2.30331 216.962 2.30351 200.962-7.02983C199.69-7.77191 199.261-9.40476 200.003-10.6769 200.745-11.949 202.378-12.3787 203.65-11.6366Z" fill="#FFC000" transform="matrix(-1 0 0 1 523.086 515.5)"/><path d="M225 411.5 225 452.999 220 452.999 220 411.5ZM233.41 439.258 222.5 457.96 211.591 439.258C210.895 438.066 211.298 436.535 212.49 435.839 213.683 435.144 215.214 435.546 215.91 436.739L224.66 451.739 220.341 451.739 229.091 436.739C229.786 435.546 231.317 435.143 232.51 435.839 233.702 436.535 234.105 438.066 233.41 439.258Z" fill="#28B86C"/><path d="M604 411.5 604 452.999 599 452.999 599 411.5ZM612.41 439.258 601.5 457.96 590.591 439.258C589.895 438.066 590.298 436.535 591.49 435.839 592.683 435.144 594.214 435.546 594.91 436.739L603.66 451.739 599.341 451.739 608.091 436.739C608.786 435.546 610.317 435.143 611.51 435.839 612.702 436.535 613.105 438.066 612.41 439.258Z" fill="#28B86C"/><path d="M815 411.5 815 453.396 810 453.396 810 411.5ZM823.41 439.656 812.5 458.358 801.591 439.656C800.895 438.463 801.298 436.933 802.49 436.237 803.683 435.541 805.214 435.944 805.91 437.137L814.66 452.137 810.341 452.137 819.091 437.137C819.786 435.944 821.317 435.541 822.51 436.237 823.702 436.932 824.105 438.463 823.41 439.656Z" fill="#28B86C"/><path d="M1035 411.5 1035 452.999 1030 452.999 1030 411.5ZM1043.41 439.258 1032.5 457.96 1021.59 439.258C1020.89 438.066 1021.3 436.535 1022.49 435.839 1023.68 435.144 1025.21 435.546 1025.91 436.739L1034.66 451.739 1030.34 451.739 1039.09 436.739C1039.79 435.546 1041.32 435.143 1042.51 435.839 1043.7 436.535 1044.11 438.066 1043.41 439.258Z" fill="#28B86C"/><path d="M11.5001 353.5C11.5001 326.99 32.9904 305.5 59.5001 305.5 86.0097 305.5 107.5 326.99 107.5 353.5 107.5 380.01 86.0097 401.5 59.5001 401.5 32.9904 401.5 11.5001 380.01 11.5001 353.5Z" stroke="#28B86C" stroke-width="1.33333" stroke-miterlimit="8" fill="#28B86C" fill-rule="evenodd"/><text fill="#FFFFFF" font-family="Calibri,Calibri_MSFontService,sans-serif" font-weight="400" font-size="24" transform="translate(35.6474 361)">Start</text><path d="M5.6258-2.80182 68.6247-2.44841 68.5929 3.21817 5.59401 2.86476ZM21.1127 12.4827-0.013132-7.38413e-05 21.2514-12.245C22.6074-13.0259 24.3398-12.5596 25.1206-11.2036 25.9015-9.84751 25.4352-8.1152 24.0792-7.33433L7.0238 2.48681 7.05125-2.40786 23.9954 7.60402C25.3426 8.40005 25.7894 10.1375 24.9933 11.4847 24.1973 12.8319 22.4599 13.2787 21.1127 12.4827Z" fill="#28B86C" transform="matrix(-1 0 0 1 1178.61 353)"/><path d="M1179.5 353.5C1179.5 326.99 1200.99 305.5 1227.5 305.5 1254.01 305.5 1275.5 326.99 1275.5 353.5 1275.5 380.01 1254.01 401.5 1227.5 401.5 1200.99 401.5 1179.5 380.01 1179.5 353.5Z" stroke="#28B86C" stroke-width="1.33333" stroke-miterlimit="8" fill="#28B86C" fill-rule="evenodd"/><text fill="#FFFFFF" font-family="Calibri,Calibri_MSFontService,sans-serif" font-weight="400" font-size="24" transform="translate(1208.51 361)">End</text><path d="M225.167 573.094 225.167 597.095 222.5 594.428 1227.68 594.428 1225.01 597.095 1225.01 406.78 1230.34 406.78 1230.34 599.761 219.833 599.761 219.833 573.094ZM1216.04 421.436 1227.68 401.488 1239.31 421.436C1240.05 422.709 1239.62 424.341 1238.35 425.083 1237.08 425.826 1235.45 425.396 1234.71 424.124L1225.37 408.124 1229.98 408.124 1220.65 424.124C1219.9 425.396 1218.27 425.826 1217 425.083 1215.73 424.341 1215.3 422.709 1216.04 421.436Z" fill="#FFC000"/><path d="M604.167 573.094 604.167 597.095 601.5 594.429 1227.81 594.429 1225.14 597.095 1225.14 406.78 1230.48 406.78 1230.48 599.762 598.833 599.762 598.833 573.094ZM1216.17 421.436 1227.81 401.488 1239.45 421.436C1240.19 422.709 1239.76 424.341 1238.49 425.083 1237.22 425.826 1235.58 425.396 1234.84 424.124L1225.51 408.124 1230.11 408.124 1220.78 424.124C1220.04 425.396 1218.41 425.826 1217.13 425.083 1215.86 424.341 1215.43 422.709 1216.17 421.436Z" fill="#FFC000"/><path d="M815.167 573.66 815.167 597.659 812.5 594.993 1227.35 594.993 1224.68 597.659 1224.68 406.779 1230.02 406.779 1230.02 600.326 809.833 600.326 809.833 573.66ZM1215.71 421.436 1227.35 401.488 1238.99 421.436C1239.73 422.709 1239.3 424.341 1238.03 425.083 1236.75 425.826 1235.12 425.396 1234.38 424.124L1225.05 408.124 1229.65 408.124 1220.32 424.124C1219.58 425.396 1217.94 425.826 1216.67 425.083 1215.4 424.341 1214.97 422.709 1215.71 421.436Z" fill="#FFC000"/><path d="M1035.17 573.094 1035.17 597.095 1032.5 594.428 1227.07 594.428 1224.4 597.095 1224.4 406.78 1229.74 406.78 1229.74 599.762 1029.83 599.762 1029.83 573.094ZM1215.43 421.436 1227.07 401.488 1238.71 421.436C1239.45 422.709 1239.02 424.341 1237.75 425.083 1236.47 425.826 1234.84 425.396 1234.1 424.124L1224.77 408.124 1229.37 408.124 1220.04 424.124C1219.3 425.396 1217.66 425.826 1216.39 425.083 1215.12 424.341 1214.69 422.709 1215.43 421.436Z" fill="#FFC000"/><rect x="333.5" y="295.5" width="155" height="116" stroke="#28B86C" stroke-width="3" stroke-miterlimit="8" fill="#83FFBB"/><text fill="#262626" font-family="Poppins Light,Poppins Light_MSFontService,sans-serif" font-weight="700" font-size="15" transform="translate(356.474 349)">CREATE_ORDER<tspan font-size="15" x="0.666687" y="18">Transaction</tspan><tspan font-size="15" x="86.5" y="18">-</tspan><tspan font-size="15" x="94.1667" y="18">01</tspan></text><rect x="333.5" y="457.5" width="155" height="116" stroke="#FFC000" stroke-width="3" stroke-miterlimit="8" fill="#FFD966"/><text fill="#262626" font-family="Poppins Light,Poppins Light_MSFontService,sans-serif" font-weight="700" font-size="15" transform="translate(354.558 519)">CANCEL_ORDER</text><path d="M414 411.5 414 452.999 409 452.999 409 411.5ZM422.41 439.258 411.5 457.96 400.591 439.258C399.895 438.066 400.298 436.535 401.49 435.839 402.683 435.144 404.214 435.546 404.91 436.739L413.66 451.739 409.341 451.739 418.091 436.739C418.786 435.546 420.317 435.143 421.51 435.839 422.702 436.535 423.105 438.066 422.41 439.258Z" fill="#28B86C"/><rect x="821.5" y="107.5" width="289" height="62" stroke="#FFC000" stroke-width="3" stroke-miterlimit="8" fill="#FFD966"/><text font-family="Raleway,Raleway_MSFontService,sans-serif" font-weight="700" font-size="15" transform="translate(870.809 143)">Compensating <tspan font-size="15" x="106.167" y="0">T</tspan>ransaction</text><rect x="821.5" y="15.5001" width="289" height="66" stroke="#28B86C" stroke-width="3" stroke-miterlimit="8" fill="#83FFBB"/><text fill="#262626" font-family="Poppins Light,Poppins Light_MSFontService,sans-serif" font-weight="700" font-size="15" transform="translate(922.476 52)">Transaction</text></g></svg>