<svg version="1.1" viewBox="0.0 0.0 662.5643044619422 226.2755905511811" fill="none" stroke="none" stroke-linecap="square" stroke-miterlimit="10" xmlns:xlink="http://www.w3.org/1999/xlink" xmlns="http://www.w3.org/2000/svg"><clipPath id="p.0"><path d="m0 0l662.56433 0l0 226.27559l-662.56433 0l0 -226.27559z" clip-rule="nonzero"/></clipPath><g clip-path="url(#p.0)"><path fill="#ffffff" d="m0 0l662.56433 0l0 226.27559l-662.56433 0z" fill-rule="evenodd"/><path fill="#000000" fill-opacity="0.0" d="m37.250656 51.31496l407.33856 0.22047424" fill-rule="evenodd"/><path stroke="#28b76b" stroke-width="3.0" stroke-linejoin="round" stroke-linecap="butt" d="m48.62065 51.321114l377.96857 0.2045784" fill-rule="evenodd"/><path fill="#28b76b" stroke="#28b76b" stroke-width="3.0" stroke-linecap="butt" d="m38.750656 51.315773c0.0014762878 -2.725525 2.2121468 -4.9338036 4.9376717 -4.9323273c2.725521 0.0014724731 4.9337997 2.212143 4.9323273 4.937668c-0.0014762878 2.725525 -2.2121468 4.9338036 -4.9376717 4.9323273c-2.725525 -0.0014724731 -4.9338036 -2.212143 -4.9323273 -4.937668z" fill-rule="nonzero"/><path fill="#28b76b" stroke="#28b76b" stroke-width="3.0" stroke-linecap="butt" d="m426.58655 56.48089l13.616974 -4.94783l-13.611603 -4.9625626z" fill-rule="evenodd"/><path fill="#4bb543" d="m30.973753 35.62992l0 -13.401575l0 0c0 -7.4014845 6.0000896 -13.401574 13.401575 -13.401574c7.4014854 0 13.401573 6.0000896 13.401573 13.401574l0 13.401575z" fill-rule="evenodd"/><path stroke="#28b76b" stroke-width="1.0" stroke-linejoin="round" stroke-linecap="butt" d="m30.973753 35.62992l0 -13.401575l0 0c0 -7.4014845 6.0000896 -13.401574 13.401575 -13.401574c7.4014854 0 13.401573 6.0000896 13.401573 13.401574l0 13.401575z" fill-rule="evenodd"/><path fill="#4bb543" d="m125.92913 35.62992l0 -13.401575l0 0c0 -7.4014845 6.000099 -13.401574 13.401573 -13.401574c7.4014893 0 13.401581 6.0000896 13.401581 13.401574l0 13.401575z" fill-rule="evenodd"/><path stroke="#28b76b" stroke-width="1.0" stroke-linejoin="round" stroke-linecap="butt" d="m125.92913 35.62992l0 -13.401575l0 0c0 -7.4014845 6.000099 -13.401574 13.401573 -13.401574c7.4014893 0 13.401581 6.0000896 13.401581 13.401574l0 13.401575z" fill-rule="evenodd"/><path fill="#4bb543" d="m224.50656 35.62992l0 -13.401575l0 0c0 -7.4014845 6.0000916 -13.401574 13.401581 -13.401574c7.401474 0 13.401566 6.0000896 13.401566 13.401574l0 13.401575z" fill-rule="evenodd"/><path stroke="#28b76b" stroke-width="1.0" stroke-linejoin="round" stroke-linecap="butt" d="m224.50656 35.62992l0 -13.401575l0 0c0 -7.4014845 6.0000916 -13.401574 13.401581 -13.401574c7.401474 0 13.401566 6.0000896 13.401566 13.401574l0 13.401575z" fill-rule="evenodd"/><path fill="#cc3300" d="m436.09973 35.62992l0 -13.401575l0 0c0 -7.4014845 6.0000916 -13.401574 13.401581 -13.401574c7.4014893 0 13.401581 6.0000896 13.401581 13.401574l0 13.401575z" fill-rule="evenodd"/><path stroke="#cc0000" stroke-width="1.0" stroke-linejoin="round" stroke-linecap="butt" d="m436.09973 35.62992l0 -13.401575l0 0c0 -7.4014845 6.0000916 -13.401574 13.401581 -13.401574c7.4014893 0 13.401581 6.0000896 13.401581 13.401574l0 13.401575z" fill-rule="evenodd"/><path fill="#ffffff" d="m534.71655 35.62992l0 -13.401575l0 0c0 -7.4014845 6.000061 -13.401574 13.40155 -13.401574c7.4014893 0 13.401611 6.0000896 13.401611 13.401574l0 13.401575z" fill-rule="evenodd"/><path stroke="#28b76b" stroke-width="1.0" stroke-linejoin="round" stroke-linecap="butt" d="m534.71655 35.62992l0 -13.401575l0 0c0 -7.4014845 6.000061 -13.401574 13.40155 -13.401574c7.4014893 0 13.401611 6.0000896 13.401611 13.401574l0 13.401575z" fill-rule="evenodd"/><path fill="#ffffff" d="m615.5092 35.62992l0 -13.401575l0 0c0 -7.4014845 6.000061 -13.401574 13.40155 -13.401574c7.4014893 0 13.40155 6.0000896 13.40155 13.401574l0 13.401575z" fill-rule="evenodd"/><path stroke="#28b76b" stroke-width="1.0" stroke-linejoin="round" stroke-linecap="butt" d="m615.5092 35.62992l0 -13.401575l0 0c0 -7.4014845 6.000061 -13.401574 13.40155 -13.401574c7.4014893 0 13.40155 6.0000896 13.40155 13.401574l0 13.401575z" fill-rule="evenodd"/><path fill="#000000" fill-opacity="0.0" d="m-13.199475 79.379265l115.14961 0l0 29.07087l-115.14961 0z" fill-rule="evenodd"/><path fill="#000000" d="m28.634468 90.48114l0 0.59375l-1.515625 0l0 4.984375l-0.734375 0l0 -4.984375l-1.53125 0l0 -0.59375l3.78125 0zm3.187317 5.578125l-1.046875 -1.625l-1.0 1.625l-0.75 0l1.40625 -2.171875l-1.40625 -2.21875l0.8125 0l1.046875 1.625l0.984375 -1.625l0.765625 0l-1.40625 2.171875l1.421875 2.21875l-0.828125 0zm5.452301 0.0625q-0.5625 0 -1.0 -0.203125q-0.4375 -0.203125 -0.6875 -0.546875q-0.234375 -0.34375 -0.25 -0.796875l0.78125 0q0.03125 0.390625 0.3125 0.65625q0.296875 0.265625 0.84375 0.265625q0.515625 0 0.8125 -0.25q0.296875 -0.265625 0.296875 -0.671875q0 -0.328125 -0.171875 -0.515625q-0.171875 -0.203125 -0.4375 -0.3125q-0.265625 -0.109375 -0.71875 -0.21875q-0.546875 -0.15625 -0.890625 -0.296875q-0.328125 -0.140625 -0.5625 -0.4375q-0.234375 -0.3125 -0.234375 -0.84375q0 -0.453125 0.234375 -0.796875q0.234375 -0.359375 0.65625 -0.546875q0.421875 -0.1875 0.96875 -0.1875q0.78125 0 1.28125 0.390625q0.5 0.390625 0.5625 1.03125l-0.796875 0q-0.046875 -0.3125 -0.34375 -0.5625q-0.296875 -0.25 -0.78125 -0.25q-0.453125 0 -0.75 0.25q-0.28125 0.234375 -0.28125 0.65625q0 0.296875 0.171875 0.5q0.171875 0.1875 0.421875 0.296875q0.25 0.09375 0.703125 0.21875q0.5625 0.15625 0.890625 0.3125q0.34375 0.140625 0.578125 0.453125q0.234375 0.296875 0.234375 0.828125q0 0.40625 -0.21875 0.765625q-0.203125 0.359375 -0.640625 0.59375q-0.421875 0.21875 -0.984375 0.21875zm3.805313 -3.84375l0 2.578125q0 0.328125 0.140625 0.46875q0.140625 0.125 0.46875 0.125l0.53125 0l0 0.609375l-0.65625 0q-0.59375 0 -0.90625 -0.28125q-0.296875 -0.28125 -0.296875 -0.921875l0 -2.578125l-0.578125 0l0 -0.609375l0.578125 0l0 -1.09375l0.71875 0l0 1.09375l1.140625 0l0 0.609375l-1.140625 0zm1.7557068 1.578125q0 -0.671875 0.265625 -1.171875q0.28125 -0.515625 0.75 -0.796875q0.484375 -0.28125 1.0625 -0.28125q0.578125 0 1.0 0.25q0.421875 0.25 0.640625 0.625l0 -0.8125l0.734375 0l0 4.390625l-0.734375 0l0 -0.8125q-0.21875 0.375 -0.65625 0.640625q-0.421875 0.25 -0.984375 0.25q-0.59375 0 -1.0625 -0.28125q-0.46875 -0.296875 -0.75 -0.8125q-0.265625 -0.53125 -0.265625 -1.1875zm3.71875 0q0 -0.5 -0.203125 -0.859375q-0.203125 -0.375 -0.546875 -0.5625q-0.34375 -0.203125 -0.75 -0.203125q-0.40625 0 -0.75 0.203125q-0.328125 0.1875 -0.53125 0.5625q-0.1875 0.359375 -0.1875 0.859375q0 0.5 0.1875 0.875q0.203125 0.375 0.53125 0.578125q0.34375 0.1875 0.75 0.1875q0.40625 0 0.75 -0.1875q0.34375 -0.203125 0.546875 -0.578125q0.203125 -0.375 0.203125 -0.875zm2.6891785 -1.46875q0.1875 -0.375 0.546875 -0.578125q0.359375 -0.21875 0.875 -0.21875l0 0.75l-0.203125 0q-1.21875 0 -1.21875 1.328125l0 2.390625l-0.734375 0l0 -4.390625l0.734375 0l0 0.71875zm3.1402092 -0.109375l0 2.578125q0 0.328125 0.140625 0.46875q0.140625 0.125 0.46875 0.125l0.53125 0l0 0.609375l-0.65625 0q-0.59375 0 -0.90625 -0.28125q-0.296875 -0.28125 -0.296875 -0.921875l0 -2.578125l-0.578125 0l0 -0.609375l0.578125 0l0 -1.09375l0.71875 0l0 1.09375l1.140625 0l0 0.609375l-1.140625 0zm6.021332 1.421875q0 0.203125 -0.015625 0.4375l-3.5 0q0.03125 0.65625 0.4375 1.015625q0.40625 0.359375 0.984375 0.359375q0.46875 0 0.78125 -0.21875q0.3125 -0.21875 0.453125 -0.59375l0.78125 0q-0.171875 0.640625 -0.703125 1.046875q-0.53125 0.390625 -1.3125 0.390625q-0.625 0 -1.125 -0.28125q-0.484375 -0.28125 -0.765625 -0.796875q-0.28125 -0.515625 -0.28125 -1.203125q0 -0.671875 0.265625 -1.1875q0.28125 -0.515625 0.765625 -0.78125q0.5 -0.28125 1.140625 -0.28125q0.625 0 1.09375 0.28125q0.484375 0.265625 0.734375 0.75q0.265625 0.46875 0.265625 1.0625zm-0.75 -0.15625q0 -0.40625 -0.1875 -0.703125q-0.171875 -0.3125 -0.5 -0.46875q-0.3125 -0.15625 -0.6875 -0.15625q-0.5625 0 -0.953125 0.359375q-0.375 0.34375 -0.4375 0.96875l2.765625 0zm1.4443054 0.3125q0 -0.671875 0.265625 -1.171875q0.28125 -0.515625 0.75 -0.796875q0.484375 -0.28125 1.078125 -0.28125q0.5 0 0.9375 0.234375q0.453125 0.234375 0.6875 0.625l0 -2.328125l0.734375 0l0 5.921875l-0.734375 0l0 -0.828125q-0.21875 0.390625 -0.65625 0.65625q-0.421875 0.25 -0.984375 0.25q-0.578125 0 -1.0625 -0.28125q-0.46875 -0.296875 -0.75 -0.8125q-0.265625 -0.53125 -0.265625 -1.1875zm3.71875 0q0 -0.5 -0.203125 -0.859375q-0.203125 -0.375 -0.546875 -0.5625q-0.34375 -0.203125 -0.75 -0.203125q-0.40625 0 -0.75 0.203125q-0.328125 0.1875 -0.53125 0.5625q-0.1875 0.359375 -0.1875 0.859375q0 0.5 0.1875 0.875q0.203125 0.375 0.53125 0.578125q0.34375 0.1875 0.75 0.1875q0.40625 0 0.75 -0.1875q0.34375 -0.203125 0.546875 -0.578125q0.203125 -0.375 0.203125 -0.875z" fill-rule="nonzero"/><path fill="#000000" fill-opacity="0.0" d="m570.2493 79.38058l117.322876 0l0 29.07087l-117.322876 0z" fill-rule="evenodd"/><path fill="#000000" d="m611.14594 90.48245l0 0.59375l-1.515625 0l0 4.984375l-0.734375 0l0 -4.984375l-1.53125 0l0 -0.59375l3.78125 0zm0.6248169 3.375q0 -0.671875 0.265625 -1.171875q0.28125 -0.515625 0.75 -0.796875q0.484375 -0.28125 1.0625 -0.28125q0.578125 0 1.0 0.25q0.421875 0.25 0.640625 0.625l0 -0.8125l0.734375 0l0 4.390625l-0.734375 0l0 -0.8125q-0.21875 0.375 -0.65625 0.640625q-0.421875 0.25 -0.984375 0.25q-0.59375 0 -1.0625 -0.28125q-0.46875 -0.296875 -0.75 -0.8125q-0.265625 -0.53125 -0.265625 -1.1875zm3.71875 0q0 -0.5 -0.203125 -0.859375q-0.203125 -0.375 -0.546875 -0.5625q-0.34375 -0.203125 -0.75 -0.203125q-0.40625 0 -0.75 0.203125q-0.328125 0.1875 -0.53125 0.5625q-0.1875 0.359375 -0.1875 0.859375q0 0.5 0.1875 0.875q0.203125 0.375 0.53125 0.578125q0.34375 0.1875 0.75 0.1875q0.40625 0 0.75 -0.1875q0.34375 -0.203125 0.546875 -0.578125q0.203125 -0.375 0.203125 -0.875zm2.689148 -1.46875q0.1875 -0.375 0.546875 -0.578125q0.359375 -0.21875 0.875 -0.21875l0 0.75l-0.203125 0q-1.21875 0 -1.21875 1.328125l0 2.390625l-0.734375 0l0 -4.390625l0.734375 0l0 0.71875zm4.062134 -0.78125q0.5625 0 0.984375 0.25q0.4375 0.25 0.65625 0.625l0 -0.8125l0.734375 0l0 4.484375q0 0.609375 -0.265625 1.0625q-0.25 0.46875 -0.734375 0.734375q-0.46875 0.265625 -1.09375 0.265625q-0.875 0 -1.453125 -0.40625q-0.5625 -0.40625 -0.671875 -1.109375l0.71875 0q0.125 0.40625 0.5 0.640625q0.375 0.25 0.90625 0.25q0.59375 0 0.96875 -0.375q0.390625 -0.375 0.390625 -1.0625l0 -0.921875q-0.21875 0.390625 -0.65625 0.65625q-0.421875 0.25 -0.984375 0.25q-0.578125 0 -1.0625 -0.28125q-0.46875 -0.296875 -0.75 -0.8125q-0.265625 -0.53125 -0.265625 -1.1875q0 -0.671875 0.265625 -1.171875q0.28125 -0.515625 0.75 -0.796875q0.484375 -0.28125 1.0625 -0.28125zm1.640625 2.25q0 -0.5 -0.203125 -0.859375q-0.203125 -0.375 -0.546875 -0.5625q-0.34375 -0.203125 -0.75 -0.203125q-0.40625 0 -0.75 0.203125q-0.328125 0.1875 -0.53125 0.5625q-0.1875 0.359375 -0.1875 0.859375q0 0.5 0.1875 0.875q0.203125 0.375 0.53125 0.578125q0.34375 0.1875 0.75 0.1875q0.40625 0 0.75 -0.1875q0.34375 -0.203125 0.546875 -0.578125q0.203125 -0.375 0.203125 -0.875zm5.954773 -0.15625q0 0.203125 -0.015625 0.4375l-3.5 0q0.03125 0.65625 0.4375 1.015625q0.40625 0.359375 0.984375 0.359375q0.46875 0 0.78125 -0.21875q0.3125 -0.21875 0.453125 -0.59375l0.78125 0q-0.171875 0.640625 -0.703125 1.046875q-0.53125 0.390625 -1.3125 0.390625q-0.625 0 -1.125 -0.28125q-0.484375 -0.28125 -0.765625 -0.796875q-0.28125 -0.515625 -0.28125 -1.203125q0 -0.671875 0.265625 -1.1875q0.28125 -0.515625 0.765625 -0.78125q0.5 -0.28125 1.140625 -0.28125q0.625 0 1.09375 0.28125q0.484375 0.265625 0.734375 0.75q0.265625 0.46875 0.265625 1.0625zm-0.75 -0.15625q0 -0.40625 -0.1875 -0.703125q-0.171875 -0.3125 -0.5 -0.46875q-0.3125 -0.15625 -0.6875 -0.15625q-0.5625 0 -0.953125 0.359375q-0.375 0.34375 -0.4375 0.96875l2.765625 0zm2.600586 -1.265625l0 2.578125q0 0.328125 0.140625 0.46875q0.140625 0.125 0.46875 0.125l0.53125 0l0 0.609375l-0.65625 0q-0.59375 0 -0.90625 -0.28125q-0.296875 -0.28125 -0.296875 -0.921875l0 -2.578125l-0.578125 0l0 -0.609375l0.578125 0l0 -1.09375l0.71875 0l0 1.09375l1.140625 0l0 0.609375l-1.140625 0zm8.157288 1.421875q0 0.203125 -0.015625 0.4375l-3.5 0q0.03125 0.65625 0.4375 1.015625q0.40625 0.359375 0.984375 0.359375q0.46875 0 0.78125 -0.21875q0.3125 -0.21875 0.453125 -0.59375l0.78125 0q-0.171875 0.640625 -0.703125 1.046875q-0.53125 0.390625 -1.3125 0.390625q-0.625 0 -1.125 -0.28125q-0.484375 -0.28125 -0.765625 -0.796875q-0.28125 -0.515625 -0.28125 -1.203125q0 -0.671875 0.265625 -1.1875q0.28125 -0.515625 0.765625 -0.78125q0.5 -0.28125 1.140625 -0.28125q0.625 0 1.09375 0.28125q0.484375 0.265625 0.734375 0.75q0.265625 0.46875 0.265625 1.0625zm-0.75 -0.15625q0 -0.40625 -0.1875 -0.703125q-0.171875 -0.3125 -0.5 -0.46875q-0.3125 -0.15625 -0.6875 -0.15625q-0.5625 0 -0.953125 0.359375q-0.375 0.34375 -0.4375 0.96875l2.765625 0zm3.850525 -1.953125q0.796875 0 1.296875 0.484375q0.5 0.484375 0.5 1.40625l0 2.578125l-0.71875 0l0 -2.484375q0 -0.65625 -0.328125 -1.0q-0.328125 -0.34375 -0.90625 -0.34375q-0.5625 0 -0.90625 0.359375q-0.34375 0.359375 -0.34375 1.046875l0 2.421875l-0.734375 0l0 -4.390625l0.734375 0l0 0.625q0.21875 -0.328125 0.578125 -0.515625q0.375 -0.1875 0.828125 -0.1875zm2.713684 2.265625q0 -0.671875 0.265625 -1.171875q0.28125 -0.515625 0.75 -0.796875q0.484375 -0.28125 1.078125 -0.28125q0.5 0 0.9375 0.234375q0.453125 0.234375 0.6875 0.625l0 -2.328125l0.734375 0l0 5.921875l-0.734375 0l0 -0.828125q-0.21875 0.390625 -0.65625 0.65625q-0.421875 0.25 -0.984375 0.25q-0.578125 0 -1.0625 -0.28125q-0.46875 -0.296875 -0.75 -0.8125q-0.265625 -0.53125 -0.265625 -1.1875zm3.71875 0q0 -0.5 -0.203125 -0.859375q-0.203125 -0.375 -0.546875 -0.5625q-0.34375 -0.203125 -0.75 -0.203125q-0.40625 0 -0.75 0.203125q-0.328125 0.1875 -0.53125 0.5625q-0.1875 0.359375 -0.1875 0.859375q0 0.5 0.1875 0.875q0.203125 0.375 0.53125 0.578125q0.34375 0.1875 0.75 0.1875q0.40625 0 0.75 -0.1875q0.34375 -0.203125 0.546875 -0.578125q0.203125 -0.375 0.203125 -0.875z" fill-rule="nonzero"/><path fill="#ffffff" d="m444.58923 51.535435l0 0c0 -2.7135887 2.1997986 -4.9133873 4.913391 -4.9133873l0 0c1.3031006 0 2.5528564 0.51765823 3.4742737 1.4390984c0.92144775 0.9214363 1.4391174 2.171177 1.4391174 3.474289l0 0c0 2.713585 -2.1997986 4.9133835 -4.913391 4.9133835l0 0c-2.7135925 0 -4.913391 -2.1997986 -4.913391 -4.9133835z" fill-rule="evenodd"/><path stroke="#28b76b" stroke-width="3.0" stroke-linejoin="round" stroke-linecap="butt" d="m444.58923 51.535435l0 0c0 -2.7135887 2.1997986 -4.9133873 4.913391 -4.9133873l0 0c1.3031006 0 2.5528564 0.51765823 3.4742737 1.4390984c0.92144775 0.9214363 1.4391174 2.171177 1.4391174 3.474289l0 0c0 2.713585 -2.1997986 4.9133835 -4.913391 4.9133835l0 0c-2.7135925 0 -4.913391 -2.1997986 -4.913391 -4.9133835z" fill-rule="evenodd"/><path fill="#000000" fill-opacity="0.0" d="m454.41602 51.535435l169.57477 0.25196838" fill-rule="evenodd"/><path stroke="#28b76b" stroke-width="3.0" stroke-linejoin="round" stroke-linecap="butt" stroke-dasharray="12.0,9.0" d="m454.41602 51.535435l151.57483 0.22522354" fill-rule="evenodd"/><path stroke="#28b76b" stroke-width="3.0" stroke-linecap="butt" d="m605.98346 56.715847l13.621643 -4.934963l-13.606934 -4.975418z" fill-rule="evenodd"/><path fill="#000000" fill-opacity="0.0" d="m375.04633 79.38058l148.91339 0l0 29.07087l-148.91339 0z" fill-rule="evenodd"/><path fill="#000000" d="m408.0902 96.12308q-0.5625 0 -1.0 -0.203125q-0.4375 -0.203125 -0.6875 -0.546875q-0.234375 -0.34375 -0.25 -0.796875l0.78125 0q0.03125 0.390625 0.3125 0.65625q0.296875 0.265625 0.84375 0.265625q0.515625 0 0.8125 -0.25q0.296875 -0.265625 0.296875 -0.671875q0 -0.328125 -0.171875 -0.515625q-0.171875 -0.203125 -0.4375 -0.3125q-0.265625 -0.109375 -0.71875 -0.21875q-0.546875 -0.15625 -0.890625 -0.296875q-0.328125 -0.140625 -0.5625 -0.4375q-0.234375 -0.3125 -0.234375 -0.84375q0 -0.453125 0.234375 -0.796875q0.234375 -0.359375 0.65625 -0.546875q0.421875 -0.1875 0.96875 -0.1875q0.78125 0 1.28125 0.390625q0.5 0.390625 0.5625 1.03125l-0.796875 0q-0.046875 -0.3125 -0.34375 -0.5625q-0.296875 -0.25 -0.78125 -0.25q-0.453125 0 -0.75 0.25q-0.28125 0.234375 -0.28125 0.65625q0 0.296875 0.171875 0.5q0.171875 0.1875 0.421875 0.296875q0.25 0.09375 0.703125 0.21875q0.5625 0.15625 0.890625 0.3125q0.34375 0.140625 0.578125 0.453125q0.234375 0.296875 0.234375 0.828125q0 0.40625 -0.21875 0.765625q-0.203125 0.359375 -0.640625 0.59375q-0.421875 0.21875 -0.984375 0.21875zm3.8052979 -3.84375l0 2.578125q0 0.328125 0.140625 0.46875q0.140625 0.125 0.46875 0.125l0.53125 0l0 0.609375l-0.65625 0q-0.59375 0 -0.90625 -0.28125q-0.296875 -0.28125 -0.296875 -0.921875l0 -2.578125l-0.578125 0l0 -0.609375l0.578125 0l0 -1.09375l0.71875 0l0 1.09375l1.140625 0l0 0.609375l-1.140625 0zm3.9432068 3.859375q-0.625 0 -1.125 -0.28125q-0.5 -0.28125 -0.78125 -0.796875q-0.28125 -0.515625 -0.28125 -1.203125q0 -0.671875 0.28125 -1.1875q0.296875 -0.515625 0.796875 -0.78125q0.515625 -0.28125 1.140625 -0.28125q0.625 0 1.125 0.28125q0.5 0.265625 0.796875 0.78125q0.296875 0.515625 0.296875 1.1875q0 0.6875 -0.3125 1.203125q-0.296875 0.515625 -0.8125 0.796875q-0.5 0.28125 -1.125 0.28125zm0 -0.640625q0.390625 0 0.734375 -0.1875q0.34375 -0.1875 0.546875 -0.546875q0.21875 -0.375 0.21875 -0.90625q0 -0.53125 -0.21875 -0.890625q-0.203125 -0.375 -0.546875 -0.546875q-0.328125 -0.1875 -0.71875 -0.1875q-0.390625 0 -0.734375 0.1875q-0.328125 0.171875 -0.53125 0.546875q-0.1875 0.359375 -0.1875 0.890625q0 0.546875 0.1875 0.921875q0.203125 0.359375 0.53125 0.546875q0.328125 0.171875 0.71875 0.171875zm3.932434 -3.015625q0.21875 -0.375 0.640625 -0.625q0.4375 -0.25 1.0 -0.25q0.578125 0 1.046875 0.28125q0.484375 0.28125 0.75 0.796875q0.28125 0.5 0.28125 1.171875q0 0.65625 -0.28125 1.1875q-0.265625 0.515625 -0.75 0.8125q-0.46875 0.28125 -1.046875 0.28125q-0.5625 0 -1.0 -0.25q-0.421875 -0.265625 -0.640625 -0.640625l0 2.890625l-0.734375 0l0 -6.46875l0.734375 0l0 0.8125zm2.96875 1.375q0 -0.5 -0.203125 -0.859375q-0.1875 -0.375 -0.53125 -0.5625q-0.34375 -0.203125 -0.75 -0.203125q-0.390625 0 -0.734375 0.203125q-0.34375 0.1875 -0.546875 0.5625q-0.203125 0.375 -0.203125 0.859375q0 0.5 0.203125 0.875q0.203125 0.375 0.546875 0.578125q0.34375 0.1875 0.734375 0.1875q0.40625 0 0.75 -0.1875q0.34375 -0.203125 0.53125 -0.578125q0.203125 -0.375 0.203125 -0.875zm2.4391785 -1.375q0.21875 -0.375 0.640625 -0.625q0.4375 -0.25 1.0 -0.25q0.578125 0 1.046875 0.28125q0.484375 0.28125 0.75 0.796875q0.28125 0.5 0.28125 1.171875q0 0.65625 -0.28125 1.1875q-0.265625 0.515625 -0.75 0.8125q-0.46875 0.28125 -1.046875 0.28125q-0.5625 0 -1.0 -0.25q-0.421875 -0.265625 -0.640625 -0.640625l0 2.890625l-0.734375 0l0 -6.46875l0.734375 0l0 0.8125zm2.96875 1.375q0 -0.5 -0.203125 -0.859375q-0.1875 -0.375 -0.53125 -0.5625q-0.34375 -0.203125 -0.75 -0.203125q-0.390625 0 -0.734375 0.203125q-0.34375 0.1875 -0.546875 0.5625q-0.203125 0.375 -0.203125 0.859375q0 0.5 0.203125 0.875q0.203125 0.375 0.546875 0.578125q0.34375 0.1875 0.734375 0.1875q0.40625 0 0.75 -0.1875q0.34375 -0.203125 0.53125 -0.578125q0.203125 -0.375 0.203125 -0.875zm5.7048035 -0.15625q0 0.203125 -0.015625 0.4375l-3.5 0q0.03125 0.65625 0.4375 1.015625q0.40625 0.359375 0.984375 0.359375q0.46875 0 0.78125 -0.21875q0.3125 -0.21875 0.453125 -0.59375l0.78125 0q-0.171875 0.640625 -0.703125 1.046875q-0.53125 0.390625 -1.3125 0.390625q-0.625 0 -1.125 -0.28125q-0.484375 -0.28125 -0.765625 -0.796875q-0.28125 -0.515625 -0.28125 -1.203125q0 -0.671875 0.265625 -1.1875q0.28125 -0.515625 0.765625 -0.78125q0.5 -0.28125 1.140625 -0.28125q0.625 0 1.09375 0.28125q0.484375 0.265625 0.734375 0.75q0.265625 0.46875 0.265625 1.0625zm-0.75 -0.15625q0 -0.40625 -0.1875 -0.703125q-0.171875 -0.3125 -0.5 -0.46875q-0.3125 -0.15625 -0.6875 -0.15625q-0.5625 0 -0.953125 0.359375q-0.375 0.34375 -0.4375 0.96875l2.765625 0zm1.4443054 0.3125q0 -0.671875 0.265625 -1.171875q0.28125 -0.515625 0.75 -0.796875q0.484375 -0.28125 1.078125 -0.28125q0.5 0 0.9375 0.234375q0.453125 0.234375 0.6875 0.625l0 -2.328125l0.734375 0l0 5.921875l-0.734375 0l0 -0.828125q-0.21875 0.390625 -0.65625 0.65625q-0.421875 0.25 -0.984375 0.25q-0.578125 0 -1.0625 -0.28125q-0.46875 -0.296875 -0.75 -0.8125q-0.265625 -0.53125 -0.265625 -1.1875zm3.71875 0q0 -0.5 -0.203125 -0.859375q-0.203125 -0.375 -0.546875 -0.5625q-0.34375 -0.203125 -0.75 -0.203125q-0.40625 0 -0.75 0.203125q-0.328125 0.1875 -0.53125 0.5625q-0.1875 0.359375 -0.1875 0.859375q0 0.5 0.1875 0.875q0.203125 0.375 0.53125 0.578125q0.34375 0.1875 0.75 0.1875q0.40625 0 0.75 -0.1875q0.34375 -0.203125 0.546875 -0.578125q0.203125 -0.375 0.203125 -0.875zm7.52829 -3.375l0 0.59375l-1.515625 0l0 4.984375l-0.734375 0l0 -4.984375l-1.53125 0l0 -0.59375l3.78125 0zm3.187317 5.578125l-1.046875 -1.625l-1.0 1.625l-0.75 0l1.40625 -2.171875l-1.40625 -2.21875l0.8125 0l1.046875 1.625l0.984375 -1.625l0.765625 0l-1.40625 2.171875l1.421875 2.21875l-0.828125 0zm4.561676 -3.78125l0 2.578125q0 0.328125 0.140625 0.46875q0.140625 0.125 0.46875 0.125l0.53125 0l0 0.609375l-0.65625 0q-0.59375 0 -0.90625 -0.28125q-0.296875 -0.28125 -0.296875 -0.921875l0 -2.578125l-0.578125 0l0 -0.609375l0.578125 0l0 -1.09375l0.71875 0l0 1.09375l1.140625 0l0 0.609375l-1.140625 0zm3.9432068 3.859375q-0.625 0 -1.125 -0.28125q-0.5 -0.28125 -0.78125 -0.796875q-0.28125 -0.515625 -0.28125 -1.203125q0 -0.671875 0.28125 -1.1875q0.296875 -0.515625 0.796875 -0.78125q0.515625 -0.28125 1.140625 -0.28125q0.625 0 1.125 0.28125q0.5 0.265625 0.796875 0.78125q0.296875 0.515625 0.296875 1.1875q0 0.6875 -0.3125 1.203125q-0.296875 0.515625 -0.8125 0.796875q-0.5 0.28125 -1.125 0.28125zm0 -0.640625q0.390625 0 0.734375 -0.1875q0.34375 -0.1875 0.546875 -0.546875q0.21875 -0.375 0.21875 -0.90625q0 -0.53125 -0.21875 -0.890625q-0.203125 -0.375 -0.546875 -0.546875q-0.328125 -0.1875 -0.71875 -0.1875q-0.390625 0 -0.734375 0.1875q-0.328125 0.171875 -0.53125 0.546875q-0.1875 0.359375 -0.1875 0.890625q0 0.546875 0.1875 0.921875q0.203125 0.359375 0.53125 0.546875q0.328125 0.171875 0.71875 0.171875zm7.13089 -3.21875l-0.921875 0l0 3.78125l-0.734375 0l0 -3.78125l-0.5625 0l0 -0.609375l0.5625 0l0 -0.3125q0 -0.734375 0.375 -1.0625q0.390625 -0.34375 1.234375 -0.34375l0 0.609375q-0.484375 0 -0.6875 0.1875q-0.1875 0.1875 -0.1875 0.609375l0 0.3125l0.921875 0l0 0.609375zm2.7569885 3.859375q-0.625 0 -1.125 -0.28125q-0.5 -0.28125 -0.78125 -0.796875q-0.28125 -0.515625 -0.28125 -1.203125q0 -0.671875 0.28125 -1.1875q0.296875 -0.515625 0.796875 -0.78125q0.515625 -0.28125 1.140625 -0.28125q0.625 0 1.125 0.28125q0.5 0.265625 0.796875 0.78125q0.296875 0.515625 0.296875 1.1875q0 0.6875 -0.3125 1.203125q-0.296875 0.515625 -0.8125 0.796875q-0.5 0.28125 -1.125 0.28125zm0 -0.640625q0.390625 0 0.734375 -0.1875q0.34375 -0.1875 0.546875 -0.546875q0.21875 -0.375 0.21875 -0.90625q0 -0.53125 -0.21875 -0.890625q-0.203125 -0.375 -0.546875 -0.546875q-0.328125 -0.1875 -0.71875 -0.1875q-0.390625 0 -0.734375 0.1875q-0.328125 0.171875 -0.53125 0.546875q-0.1875 0.359375 -0.1875 0.890625q0 0.546875 0.1875 0.921875q0.203125 0.359375 0.53125 0.546875q0.328125 0.171875 0.71875 0.171875zm3.932434 -3.109375q0.1875 -0.375 0.546875 -0.578125q0.359375 -0.21875 0.875 -0.21875l0 0.75l-0.203125 0q-1.21875 0 -1.21875 1.328125l0 2.390625l-0.734375 0l0 -4.390625l0.734375 0l0 0.71875zm8.093323 -0.71875l-1.359375 4.390625l-0.75 0l-1.0625 -3.484375l-1.0625 3.484375l-0.75 0l-1.375 -4.390625l0.75 0l1.0 3.6875l1.09375 -3.6875l0.75 0l1.0625 3.6875l0.984375 -3.6875l0.71875 0zm0.45056152 2.1875q0 -0.671875 0.265625 -1.171875q0.28125 -0.515625 0.75 -0.796875q0.484375 -0.28125 1.0625 -0.28125q0.578125 0 1.0 0.25q0.421875 0.25 0.640625 0.625l0 -0.8125l0.734375 0l0 4.390625l-0.734375 0l0 -0.8125q-0.21875 0.375 -0.65625 0.640625q-0.421875 0.25 -0.984375 0.25q-0.59375 0 -1.0625 -0.28125q-0.46875 -0.296875 -0.75 -0.8125q-0.265625 -0.53125 -0.265625 -1.1875zm3.71875 0q0 -0.5 -0.203125 -0.859375q-0.203125 -0.375 -0.546875 -0.5625q-0.34375 -0.203125 -0.75 -0.203125q-0.40625 0 -0.75 0.203125q-0.328125 0.1875 -0.53125 0.5625q-0.1875 0.359375 -0.1875 0.859375q0 0.5 0.1875 0.875q0.203125 0.375 0.53125 0.578125q0.34375 0.1875 0.75 0.1875q0.40625 0 0.75 -0.1875q0.34375 -0.203125 0.546875 -0.578125q0.203125 -0.375 0.203125 -0.875zm2.6891785 -1.46875q0.1875 -0.375 0.546875 -0.578125q0.359375 -0.21875 0.875 -0.21875l0 0.75l-0.203125 0q-1.21875 0 -1.21875 1.328125l0 2.390625l-0.734375 0l0 -4.390625l0.734375 0l0 0.71875zm1.9839478 1.46875q0 -0.671875 0.265625 -1.171875q0.28125 -0.515625 0.75 -0.796875q0.484375 -0.28125 1.078125 -0.28125q0.5 0 0.9375 0.234375q0.453125 0.234375 0.6875 0.625l0 -2.328125l0.734375 0l0 5.921875l-0.734375 0l0 -0.828125q-0.21875 0.390625 -0.65625 0.65625q-0.421875 0.25 -0.984375 0.25q-0.578125 0 -1.0625 -0.28125q-0.46875 -0.296875 -0.75 -0.8125q-0.265625 -0.53125 -0.265625 -1.1875zm3.71875 0q0 -0.5 -0.203125 -0.859375q-0.203125 -0.375 -0.546875 -0.5625q-0.34375 -0.203125 -0.75 -0.203125q-0.40625 0 -0.75 0.203125q-0.328125 0.1875 -0.53125 0.5625q-0.1875 0.359375 -0.1875 0.859375q0 0.5 0.1875 0.875q0.203125 0.375 0.53125 0.578125q0.34375 0.1875 0.75 0.1875q0.40625 0 0.75 -0.1875q0.34375 -0.203125 0.546875 -0.578125q0.203125 -0.375 0.203125 -0.875z" fill-rule="nonzero"/><path fill="#000000" fill-opacity="0.0" d="m144.2454 166.9029l203.43306 -0.85040283" fill-rule="evenodd"/><path stroke="#28b76b" stroke-width="3.0" stroke-linejoin="round" stroke-linecap="butt" d="m162.24525 166.82764l174.06334 -0.72761536" fill-rule="evenodd"/><path fill="#28b76b" stroke="#28b76b" stroke-width="3.0" stroke-linecap="butt" d="m162.22453 161.8725l-13.59346 5.0120544l13.634888 4.898239z" fill-rule="evenodd"/><path fill="#28b76b" stroke="#28b76b" stroke-width="3.0" stroke-linecap="butt" d="m346.1785 166.05876c0.011383057 2.7255096 -2.1888428 4.9441986 -4.914337 4.9555817c-2.7254944 0.011398315 -4.9441833 -2.1888275 -4.955597 -4.914322c-0.011383057 -2.7254944 2.1888428 -4.9441986 4.914337 -4.9555817c2.7254944 -0.011398315 4.9441833 2.1888275 4.955597 4.914322z" fill-rule="nonzero"/><path fill="#ffffff" d="m30.975065 151.69029l0 -13.401581l0 0c0 -7.4014893 6.0000896 -13.401573 13.401575 -13.401573c7.4014854 0 13.401573 6.000084 13.401573 13.401573l0 13.401581z" fill-rule="evenodd"/><path stroke="#ff9900" stroke-width="1.0" stroke-linejoin="round" stroke-linecap="butt" d="m30.975065 151.69029l0 -13.401581l0 0c0 -7.4014893 6.0000896 -13.401573 13.401575 -13.401573c7.4014854 0 13.401573 6.000084 13.401573 13.401573l0 13.401581z" fill-rule="evenodd"/><path fill="#ffcc00" d="m328.15353 151.58661l0 -13.401566l0 0c0 -7.4014893 6.0000916 -13.401581 13.401581 -13.401581c7.4014893 0 13.401581 6.0000916 13.401581 13.401581l0 13.401566z" fill-rule="evenodd"/><path stroke="#ff9900" stroke-width="1.0" stroke-linejoin="round" stroke-linecap="butt" d="m328.15353 151.58661l0 -13.401566l0 0c0 -7.4014893 6.0000916 -13.401581 13.401581 -13.401581c7.4014893 0 13.401581 6.0000916 13.401581 13.401581l0 13.401566z" fill-rule="evenodd"/><path fill="#000000" fill-opacity="0.0" d="m-25.009186 197.20473l138.77165 0l0 29.070862l-138.77165 0z" fill-rule="evenodd"/><path fill="#000000" d="m9.628028 208.3066l0 0.59375l-1.515625 0l0 4.984375l-0.7343745 0l0 -4.984375l-1.53125 0l0 -0.59375l3.7812495 0zm0.6248169 3.375q0 -0.671875 0.265625 -1.171875q0.28125 -0.515625 0.75 -0.796875q0.484375 -0.28125 1.0625 -0.28125q0.578125 0 1.0 0.25q0.421875 0.25 0.640625 0.625l0 -0.8125l0.734375 0l0 4.390625l-0.734375 0l0 -0.8125q-0.21875 0.375 -0.65625 0.640625q-0.421875 0.25 -0.984375 0.25q-0.59375 0 -1.0625 -0.28125q-0.46875 -0.296875 -0.75 -0.8125q-0.265625 -0.53125 -0.265625 -1.1875zm3.71875 0q0 -0.5 -0.203125 -0.859375q-0.203125 -0.375 -0.546875 -0.5625q-0.34375 -0.203125 -0.75 -0.203125q-0.40625 0 -0.75 0.203125q-0.328125 0.1875 -0.53125 0.5625q-0.1875 0.359375 -0.1875 0.859375q0 0.5 0.1875 0.875q0.203125 0.375 0.53125 0.578125q0.34375 0.1875 0.75 0.1875q0.40625 0 0.75 -0.1875q0.34375 -0.203125 0.546875 -0.578125q0.203125 -0.375 0.203125 -0.875zm2.6891794 -1.46875q0.1875 -0.375 0.546875 -0.578125q0.359375 -0.21875 0.875 -0.21875l0 0.75l-0.203125 0q-1.21875 0 -1.21875 1.328125l0 2.390625l-0.73437595 0l0 -4.390625l0.73437595 0l0 0.71875zm4.062088 -0.78125q0.5625 0 0.984375 0.25q0.4375 0.25 0.65625 0.625l0 -0.8125l0.734375 0l0 4.484375q0 0.609375 -0.265625 1.0625q-0.25 0.46875 -0.734375 0.734375q-0.46875 0.265625 -1.09375 0.265625q-0.875 0 -1.453125 -0.40625q-0.5625 -0.40625 -0.671875 -1.109375l0.71875 0q0.125 0.40625 0.5 0.640625q0.375 0.25 0.90625 0.25q0.59375 0 0.96875 -0.375q0.390625 -0.375 0.390625 -1.0625l0 -0.921875q-0.21875 0.390625 -0.65625 0.65625q-0.421875 0.25 -0.984375 0.25q-0.578125 0 -1.0625 -0.28125q-0.46875 -0.296875 -0.75 -0.8125q-0.265625 -0.53125 -0.265625 -1.1875q0 -0.671875 0.265625 -1.171875q0.28125 -0.515625 0.75 -0.796875q0.484375 -0.28125 1.0625 -0.28125zm1.640625 2.25q0 -0.5 -0.203125 -0.859375q-0.203125 -0.375 -0.546875 -0.5625q-0.34375 -0.203125 -0.75 -0.203125q-0.40625 0 -0.75 0.203125q-0.328125 0.1875 -0.53125 0.5625q-0.1875 0.359375 -0.1875 0.859375q0 0.5 0.1875 0.875q0.203125 0.375 0.53125 0.578125q0.34375 0.1875 0.75 0.1875q0.40625 0 0.75 -0.1875q0.34375 -0.203125 0.546875 -0.578125q0.203125 -0.375 0.203125 -0.875zm5.9548035 -0.15625q0 0.203125 -0.015625 0.4375l-3.5 0q0.03125 0.65625 0.4375 1.015625q0.40625 0.359375 0.984375 0.359375q0.46875 0 0.78125 -0.21875q0.3125 -0.21875 0.453125 -0.59375l0.78125 0q-0.171875 0.640625 -0.703125 1.046875q-0.53125 0.390625 -1.3125 0.390625q-0.625 0 -1.125 -0.28125q-0.484375 -0.28125 -0.765625 -0.796875q-0.28125 -0.515625 -0.28125 -1.203125q0 -0.671875 0.265625 -1.1875q0.28125 -0.515625 0.765625 -0.78125q0.5 -0.28125 1.140625 -0.28125q0.625 0 1.09375 0.28125q0.484375 0.265625 0.734375 0.75q0.265625 0.46875 0.265625 1.0625zm-0.75 -0.15625q0 -0.40625 -0.1875 -0.703125q-0.171875 -0.3125 -0.5 -0.46875q-0.3125 -0.15625 -0.6875 -0.15625q-0.5625 0 -0.953125 0.359375q-0.375 0.34375 -0.4375 0.96875l2.765625 0zm2.6005554 -1.265625l0 2.578125q0 0.328125 0.140625 0.46875q0.140625 0.125 0.46875 0.125l0.53125 0l0 0.609375l-0.65625 0q-0.59375 0 -0.90625 -0.28125q-0.296875 -0.28125 -0.296875 -0.921875l0 -2.578125l-0.578125 0l0 -0.609375l0.578125 0l0 -1.09375l0.71875 0l0 1.09375l1.140625 0l0 0.609375l-1.140625 0zm4.891678 0.109375q0.1875 -0.375 0.546875 -0.578125q0.359375 -0.21875 0.875 -0.21875l0 0.75l-0.203125 0q-1.21875 0 -1.21875 1.328125l0 2.390625l-0.734375 0l0 -4.390625l0.734375 0l0 0.71875zm4.171463 3.75q-0.625 0 -1.125 -0.28125q-0.5 -0.28125 -0.78125 -0.796875q-0.28125 -0.515625 -0.28125 -1.203125q0 -0.671875 0.28125 -1.1875q0.296875 -0.515625 0.796875 -0.78125q0.515625 -0.28125 1.140625 -0.28125q0.625 0 1.125 0.28125q0.5 0.265625 0.796875 0.78125q0.296875 0.515625 0.296875 1.1875q0 0.6875 -0.3125 1.203125q-0.296875 0.515625 -0.8125 0.796875q-0.5 0.28125 -1.125 0.28125zm0 -0.640625q0.390625 0 0.734375 -0.1875q0.34375 -0.1875 0.546875 -0.546875q0.21875 -0.375 0.21875 -0.90625q0 -0.53125 -0.21875 -0.890625q-0.203125 -0.375 -0.546875 -0.546875q-0.328125 -0.1875 -0.71875 -0.1875q-0.390625 0 -0.734375 0.1875q-0.328125 0.171875 -0.53125 0.546875q-0.1875 0.359375 -0.1875 0.890625q0 0.546875 0.1875 0.921875q0.203125 0.359375 0.53125 0.546875q0.328125 0.171875 0.71875 0.171875zm3.932434 -5.359375l0 5.921875l-0.734375 0l0 -5.921875l0.734375 0zm1.9679718 0l0 5.921875l-0.734375 0l0 -5.921875l0.734375 0zm1.9679718 2.359375q0.21875 -0.390625 0.65625 -0.640625q0.4375 -0.25 0.984375 -0.25q0.59375 0 1.0625 0.28125q0.46875 0.28125 0.734375 0.796875q0.28125 0.5 0.28125 1.171875q0 0.65625 -0.28125 1.1875q-0.265625 0.515625 -0.75 0.8125q-0.46875 0.28125 -1.046875 0.28125q-0.5625 0 -1.0 -0.25q-0.421875 -0.25 -0.640625 -0.640625l0 0.8125l-0.734375 0l0 -5.921875l0.734375 0l0 2.359375zm2.96875 1.359375q0 -0.5 -0.203125 -0.859375q-0.1875 -0.375 -0.53125 -0.5625q-0.34375 -0.203125 -0.75 -0.203125q-0.390625 0 -0.734375 0.203125q-0.34375 0.1875 -0.546875 0.5625q-0.203125 0.375 -0.203125 0.859375q0 0.5 0.203125 0.875q0.203125 0.375 0.546875 0.578125q0.34375 0.1875 0.734375 0.1875q0.40625 0 0.75 -0.1875q0.34375 -0.203125 0.53125 -0.578125q0.203125 -0.375 0.203125 -0.875zm1.4391785 0q0 -0.671875 0.265625 -1.171875q0.28125 -0.515625 0.75 -0.796875q0.484375 -0.28125 1.0625 -0.28125q0.578125 0 1.0 0.25q0.421875 0.25 0.640625 0.625l0 -0.8125l0.734375 0l0 4.390625l-0.734375 0l0 -0.8125q-0.21875 0.375 -0.65625 0.640625q-0.421875 0.25 -0.984375 0.25q-0.59375 0 -1.0625 -0.28125q-0.46875 -0.296875 -0.75 -0.8125q-0.265625 -0.53125 -0.265625 -1.1875zm3.71875 0q0 -0.5 -0.203125 -0.859375q-0.203125 -0.375 -0.546875 -0.5625q-0.34375 -0.203125 -0.75 -0.203125q-0.40625 0 -0.75 0.203125q-0.328125 0.1875 -0.53125 0.5625q-0.1875 0.359375 -0.1875 0.859375q0 0.5 0.1875 0.875q0.203125 0.375 0.53125 0.578125q0.34375 0.1875 0.75 0.1875q0.40625 0 0.75 -0.1875q0.34375 -0.203125 0.546875 -0.578125q0.203125 -0.375 0.203125 -0.875zm1.6891785 0q0 -0.671875 0.265625 -1.171875q0.28125 -0.515625 0.765625 -0.796875q0.484375 -0.28125 1.109375 -0.28125q0.796875 0 1.328125 0.390625q0.53125 0.390625 0.6875 1.09375l-0.78125 0q-0.109375 -0.40625 -0.4375 -0.640625q-0.328125 -0.234375 -0.796875 -0.234375q-0.625 0 -1.015625 0.4375q-0.375 0.421875 -0.375 1.203125q0 0.796875 0.375 1.234375q0.390625 0.421875 1.015625 0.421875q0.46875 0 0.78125 -0.21875q0.328125 -0.21875 0.453125 -0.640625l0.78125 0q-0.171875 0.671875 -0.703125 1.078125q-0.53125 0.40625 -1.3125 0.40625q-0.625 0 -1.109375 -0.28125q-0.484375 -0.28125 -0.765625 -0.796875q-0.265625 -0.515625 -0.265625 -1.203125zm7.574692 2.203125l-1.71875 -1.9375l0 1.9375l-0.734375 0l0 -5.921875l0.734375 0l0 3.484375l1.6875 -1.953125l1.015625 0l-2.0625 2.1875l2.078125 2.203125l-1.0 0zm7.8027954 -2.359375q0 0.203125 -0.015625 0.4375l-3.5 0q0.03125 0.65625 0.4375 1.015625q0.40625 0.359375 0.984375 0.359375q0.46875 0 0.78125 -0.21875q0.3125 -0.21875 0.453125 -0.59375l0.78125 0q-0.171875 0.640625 -0.703125 1.046875q-0.53125 0.390625 -1.3125 0.390625q-0.625 0 -1.125 -0.28125q-0.484375 -0.28125 -0.765625 -0.796875q-0.28125 -0.515625 -0.28125 -1.203125q0 -0.671875 0.265625 -1.1875q0.28125 -0.515625 0.765625 -0.78125q0.5 -0.28125 1.140625 -0.28125q0.625 0 1.09375 0.28125q0.484375 0.265625 0.734375 0.75q0.265625 0.46875 0.265625 1.0625zm-0.75 -0.15625q0 -0.40625 -0.1875 -0.703125q-0.171875 -0.3125 -0.5 -0.46875q-0.3125 -0.15625 -0.6875 -0.15625q-0.5625 0 -0.953125 0.359375q-0.375 0.34375 -0.4375 0.96875l2.765625 0zm3.8505554 -1.953125q0.796875 0 1.296875 0.484375q0.5 0.484375 0.5 1.40625l0 2.578125l-0.71875 0l0 -2.484375q0 -0.65625 -0.328125 -1.0q-0.328125 -0.34375 -0.90625 -0.34375q-0.5625 0 -0.90625 0.359375q-0.34375 0.359375 -0.34375 1.046875l0 2.421875l-0.734375 0l0 -4.390625l0.734375 0l0 0.625q0.21875 -0.328125 0.578125 -0.515625q0.375 -0.1875 0.828125 -0.1875zm2.713684 2.265625q0 -0.671875 0.265625 -1.171875q0.28125 -0.515625 0.75 -0.796875q0.484375 -0.28125 1.078125 -0.28125q0.5 0 0.9375 0.234375q0.453125 0.234375 0.6875 0.625l0 -2.328125l0.734375 0l0 5.921875l-0.734375 0l0 -0.828125q-0.21875 0.390625 -0.65625 0.65625q-0.421875 0.25 -0.984375 0.25q-0.578125 0 -1.0625 -0.28125q-0.46875 -0.296875 -0.75 -0.8125q-0.265625 -0.53125 -0.265625 -1.1875zm3.71875 0q0 -0.5 -0.203125 -0.859375q-0.203125 -0.375 -0.546875 -0.5625q-0.34375 -0.203125 -0.75 -0.203125q-0.40625 0 -0.75 0.203125q-0.328125 0.1875 -0.53125 0.5625q-0.1875 0.359375 -0.1875 0.859375q0 0.5 0.1875 0.875q0.203125 0.375 0.53125 0.578125q0.34375 0.1875 0.75 0.1875q0.40625 0 0.75 -0.1875q0.34375 -0.203125 0.546875 -0.578125q0.203125 -0.375 0.203125 -0.875z" fill-rule="nonzero"/><path fill="#000000" fill-opacity="0.0" d="m272.16928 197.20473l138.77167 0l0 29.070862l-138.77167 0z" fill-rule="evenodd"/><path fill="#000000" d="m311.53528 210.21284q0.1875 -0.375 0.546875 -0.578125q0.359375 -0.21875 0.875 -0.21875l0 0.75l-0.203125 0q-1.21875 0 -1.21875 1.328125l0 2.390625l-0.734375 0l0 -4.390625l0.734375 0l0 0.71875zm4.1714783 3.75q-0.625 0 -1.125 -0.28125q-0.5 -0.28125 -0.78125 -0.796875q-0.28125 -0.515625 -0.28125 -1.203125q0 -0.671875 0.28125 -1.1875q0.296875 -0.515625 0.796875 -0.78125q0.515625 -0.28125 1.140625 -0.28125q0.625 0 1.125 0.28125q0.5 0.265625 0.796875 0.78125q0.296875 0.515625 0.296875 1.1875q0 0.6875 -0.3125 1.203125q-0.296875 0.515625 -0.8125 0.796875q-0.5 0.28125 -1.125 0.28125zm0 -0.640625q0.390625 0 0.734375 -0.1875q0.34375 -0.1875 0.546875 -0.546875q0.21875 -0.375 0.21875 -0.90625q0 -0.53125 -0.21875 -0.890625q-0.203125 -0.375 -0.546875 -0.546875q-0.328125 -0.1875 -0.71875 -0.1875q-0.390625 0 -0.734375 0.1875q-0.328125 0.171875 -0.53125 0.546875q-0.1875 0.359375 -0.1875 0.890625q0 0.546875 0.1875 0.921875q0.203125 0.359375 0.53125 0.546875q0.328125 0.171875 0.71875 0.171875zm3.932434 -5.359375l0 5.921875l-0.734375 0l0 -5.921875l0.734375 0zm1.9679565 0l0 5.921875l-0.734375 0l0 -5.921875l0.734375 0zm1.9679871 2.359375q0.21875 -0.390625 0.65625 -0.640625q0.4375 -0.25 0.984375 -0.25q0.59375 0 1.0625 0.28125q0.46875 0.28125 0.734375 0.796875q0.28125 0.5 0.28125 1.171875q0 0.65625 -0.28125 1.1875q-0.265625 0.515625 -0.75 0.8125q-0.46875 0.28125 -1.046875 0.28125q-0.5625 0 -1.0 -0.25q-0.421875 -0.25 -0.640625 -0.640625l0 0.8125l-0.734375 0l0 -5.921875l0.734375 0l0 2.359375zm2.96875 1.359375q0 -0.5 -0.203125 -0.859375q-0.1875 -0.375 -0.53125 -0.5625q-0.34375 -0.203125 -0.75 -0.203125q-0.390625 0 -0.734375 0.203125q-0.34375 0.1875 -0.546875 0.5625q-0.203125 0.375 -0.203125 0.859375q0 0.5 0.203125 0.875q0.203125 0.375 0.546875 0.578125q0.34375 0.1875 0.734375 0.1875q0.40625 0 0.75 -0.1875q0.34375 -0.203125 0.53125 -0.578125q0.203125 -0.375 0.203125 -0.875zm1.4391785 0q0 -0.671875 0.265625 -1.171875q0.28125 -0.515625 0.75 -0.796875q0.484375 -0.28125 1.0625 -0.28125q0.578125 0 1.0 0.25q0.421875 0.25 0.640625 0.625l0 -0.8125l0.734375 0l0 4.390625l-0.734375 0l0 -0.8125q-0.21875 0.375 -0.65625 0.640625q-0.421875 0.25 -0.984375 0.25q-0.59375 0 -1.0625 -0.28125q-0.46875 -0.296875 -0.75 -0.8125q-0.265625 -0.53125 -0.265625 -1.1875zm3.71875 0q0 -0.5 -0.203125 -0.859375q-0.203125 -0.375 -0.546875 -0.5625q-0.34375 -0.203125 -0.75 -0.203125q-0.40625 0 -0.75 0.203125q-0.328125 0.1875 -0.53125 0.5625q-0.1875 0.359375 -0.1875 0.859375q0 0.5 0.1875 0.875q0.203125 0.375 0.53125 0.578125q0.34375 0.1875 0.75 0.1875q0.40625 0 0.75 -0.1875q0.34375 -0.203125 0.546875 -0.578125q0.203125 -0.375 0.203125 -0.875zm1.6891785 0q0 -0.671875 0.265625 -1.171875q0.28125 -0.515625 0.765625 -0.796875q0.484375 -0.28125 1.109375 -0.28125q0.796875 0 1.328125 0.390625q0.53125 0.390625 0.6875 1.09375l-0.78125 0q-0.109375 -0.40625 -0.4375 -0.640625q-0.328125 -0.234375 -0.796875 -0.234375q-0.625 0 -1.015625 0.4375q-0.375 0.421875 -0.375 1.203125q0 0.796875 0.375 1.234375q0.390625 0.421875 1.015625 0.421875q0.46875 0 0.78125 -0.21875q0.328125 -0.21875 0.453125 -0.640625l0.78125 0q-0.171875 0.671875 -0.703125 1.078125q-0.53125 0.40625 -1.3125 0.40625q-0.625 0 -1.109375 -0.28125q-0.484375 -0.28125 -0.765625 -0.796875q-0.265625 -0.515625 -0.265625 -1.203125zm7.5746765 2.203125l-1.71875 -1.9375l0 1.9375l-0.734375 0l0 -5.921875l0.734375 0l0 3.484375l1.6875 -1.953125l1.015625 0l-2.0625 2.1875l2.078125 2.203125l-1.0 0zm5.3652954 0.078125q-0.515625 0 -0.921875 -0.171875q-0.390625 -0.171875 -0.625 -0.484375q-0.21875 -0.3125 -0.25 -0.703125l0.75 0q0.03125 0.328125 0.3125 0.53125q0.28125 0.203125 0.71875 0.203125q0.421875 0 0.65625 -0.171875q0.25 -0.1875 0.25 -0.46875q0 -0.296875 -0.265625 -0.4375q-0.25 -0.140625 -0.78125 -0.265625q-0.5 -0.140625 -0.8125 -0.265625q-0.296875 -0.125 -0.515625 -0.390625q-0.21875 -0.265625 -0.21875 -0.6875q0 -0.328125 0.1875 -0.609375q0.203125 -0.28125 0.5625 -0.4375q0.375 -0.171875 0.859375 -0.171875q0.71875 0 1.171875 0.375q0.453125 0.359375 0.484375 1.0l-0.734375 0q-0.03125 -0.34375 -0.28125 -0.546875q-0.25 -0.21875 -0.671875 -0.21875q-0.390625 0 -0.625 0.171875q-0.234375 0.171875 -0.234375 0.4375q0 0.21875 0.140625 0.359375q0.140625 0.140625 0.34375 0.234375q0.21875 0.078125 0.59375 0.171875q0.484375 0.125 0.78125 0.25q0.296875 0.125 0.5 0.375q0.21875 0.25 0.21875 0.65625q0 0.359375 -0.203125 0.65625q-0.1875 0.28125 -0.5625 0.453125q-0.359375 0.15625 -0.828125 0.15625zm3.5040894 -3.859375l0 2.578125q0 0.328125 0.140625 0.46875q0.140625 0.125 0.46875 0.125l0.53125 0l0 0.609375l-0.65625 0q-0.59375 0 -0.90625 -0.28125q-0.296875 -0.28125 -0.296875 -0.921875l0 -2.578125l-0.578125 0l0 -0.609375l0.578125 0l0 -1.09375l0.71875 0l0 1.09375l1.140625 0l0 0.609375l-1.140625 0zm1.7557068 1.578125q0 -0.671875 0.265625 -1.171875q0.28125 -0.515625 0.75 -0.796875q0.484375 -0.28125 1.0625 -0.28125q0.578125 0 1.0 0.25q0.421875 0.25 0.640625 0.625l0 -0.8125l0.734375 0l0 4.390625l-0.734375 0l0 -0.8125q-0.21875 0.375 -0.65625 0.640625q-0.421875 0.25 -0.984375 0.25q-0.59375 0 -1.0625 -0.28125q-0.46875 -0.296875 -0.75 -0.8125q-0.265625 -0.53125 -0.265625 -1.1875zm3.71875 0q0 -0.5 -0.203125 -0.859375q-0.203125 -0.375 -0.546875 -0.5625q-0.34375 -0.203125 -0.75 -0.203125q-0.40625 0 -0.75 0.203125q-0.328125 0.1875 -0.53125 0.5625q-0.1875 0.359375 -0.1875 0.859375q0 0.5 0.1875 0.875q0.203125 0.375 0.53125 0.578125q0.34375 0.1875 0.75 0.1875q0.40625 0 0.75 -0.1875q0.34375 -0.203125 0.546875 -0.578125q0.203125 -0.375 0.203125 -0.875zm2.6891785 -1.46875q0.1875 -0.375 0.546875 -0.578125q0.359375 -0.21875 0.875 -0.21875l0 0.75l-0.203125 0q-1.21875 0 -1.21875 1.328125l0 2.390625l-0.734375 0l0 -4.390625l0.734375 0l0 0.71875zm3.1401978 -0.109375l0 2.578125q0 0.328125 0.140625 0.46875q0.140625 0.125 0.46875 0.125l0.53125 0l0 0.609375l-0.65625 0q-0.59375 0 -0.90625 -0.28125q-0.296875 -0.28125 -0.296875 -0.921875l0 -2.578125l-0.578125 0l0 -0.609375l0.578125 0l0 -1.09375l0.71875 0l0 1.09375l1.140625 0l0 0.609375l-1.140625 0zm6.021332 1.421875q0 0.203125 -0.015625 0.4375l-3.5 0q0.03125 0.65625 0.4375 1.015625q0.40625 0.359375 0.984375 0.359375q0.46875 0 0.78125 -0.21875q0.3125 -0.21875 0.453125 -0.59375l0.78125 0q-0.171875 0.640625 -0.703125 1.046875q-0.53125 0.390625 -1.3125 0.390625q-0.625 0 -1.125 -0.28125q-0.484375 -0.28125 -0.765625 -0.796875q-0.28125 -0.515625 -0.28125 -1.203125q0 -0.671875 0.265625 -1.1875q0.28125 -0.515625 0.765625 -0.78125q0.5 -0.28125 1.140625 -0.28125q0.625 0 1.09375 0.28125q0.484375 0.265625 0.734375 0.75q0.265625 0.46875 0.265625 1.0625zm-0.75 -0.15625q0 -0.40625 -0.1875 -0.703125q-0.171875 -0.3125 -0.5 -0.46875q-0.3125 -0.15625 -0.6875 -0.15625q-0.5625 0 -0.953125 0.359375q-0.375 0.34375 -0.4375 0.96875l2.765625 0zm1.4443054 0.3125q0 -0.671875 0.265625 -1.171875q0.28125 -0.515625 0.75 -0.796875q0.484375 -0.28125 1.078125 -0.28125q0.5 0 0.9375 0.234375q0.453125 0.234375 0.6875 0.625l0 -2.328125l0.734375 0l0 5.921875l-0.734375 0l0 -0.828125q-0.21875 0.390625 -0.65625 0.65625q-0.421875 0.25 -0.984375 0.25q-0.578125 0 -1.0625 -0.28125q-0.46875 -0.296875 -0.75 -0.8125q-0.265625 -0.53125 -0.265625 -1.1875zm3.71875 0q0 -0.5 -0.203125 -0.859375q-0.203125 -0.375 -0.546875 -0.5625q-0.34375 -0.203125 -0.75 -0.203125q-0.40625 0 -0.75 0.203125q-0.328125 0.1875 -0.53125 0.5625q-0.1875 0.359375 -0.1875 0.859375q0 0.5 0.1875 0.875q0.203125 0.375 0.53125 0.578125q0.34375 0.1875 0.75 0.1875q0.40625 0 0.75 -0.1875q0.34375 -0.203125 0.546875 -0.578125q0.203125 -0.375 0.203125 -0.875z" fill-rule="nonzero"/><path fill="#ffffff" d="m134.41864 166.9029l0 0c0 -2.7135925 2.1997986 -4.913391 4.913376 -4.913391l0 0c1.3031158 0 2.5528564 0.5176544 3.474289 1.4391022c0.92144775 0.9214325 1.4391022 2.171173 1.4391022 3.474289l0 0c0 2.7135773 -2.1997986 4.913376 -4.913391 4.913376l0 0c-2.7135773 0 -4.913376 -2.1997986 -4.913376 -4.913376z" fill-rule="evenodd"/><path stroke="#28b76b" stroke-width="3.0" stroke-linejoin="round" stroke-linecap="butt" d="m134.41864 166.9029l0 0c0 -2.7135925 2.1997986 -4.913391 4.913376 -4.913391l0 0c1.3031158 0 2.5528564 0.5176544 3.474289 1.4391022c0.92144775 0.9214325 1.4391022 2.171173 1.4391022 3.474289l0 0c0 2.7135773 -2.1997986 4.913376 -4.913391 4.913376l0 0c-2.7135773 0 -4.913376 -2.1997986 -4.913376 -4.913376z" fill-rule="evenodd"/><path fill="#000000" fill-opacity="0.0" d="m134.41864 166.9029l-85.133865 0.1574707" fill-rule="evenodd"/><path stroke="#28b76b" stroke-width="3.0" stroke-linejoin="round" stroke-linecap="butt" stroke-dasharray="12.0,9.0" d="m134.41864 166.9029l-67.133896 0.124176025" fill-rule="evenodd"/><path stroke="#28b76b" stroke-width="3.0" stroke-linecap="butt" d="m67.27558 162.07188l-13.605106 4.980377l13.62344 4.9299927z" fill-rule="evenodd"/><path fill="#000000" fill-opacity="0.0" d="m83.80446 197.20473l111.055115 0l0 29.070862l-111.055115 0z" fill-rule="evenodd"/><path fill="#000000" d="m112.520134 210.21284q0.1875 -0.375 0.546875 -0.578125q0.359375 -0.21875 0.875 -0.21875l0 0.75l-0.203125 0q-1.21875 0 -1.21875 1.328125l0 2.390625l-0.734375 0l0 -4.390625l0.734375 0l0 0.71875zm4.171463 3.75q-0.625 0 -1.125 -0.28125q-0.5 -0.28125 -0.78125 -0.796875q-0.28125 -0.515625 -0.28125 -1.203125q0 -0.671875 0.28125 -1.1875q0.296875 -0.515625 0.796875 -0.78125q0.515625 -0.28125 1.140625 -0.28125q0.625 0 1.125 0.28125q0.5 0.265625 0.796875 0.78125q0.296875 0.515625 0.296875 1.1875q0 0.6875 -0.3125 1.203125q-0.296875 0.515625 -0.8125 0.796875q-0.5 0.28125 -1.125 0.28125zm0 -0.640625q0.390625 0 0.734375 -0.1875q0.34375 -0.1875 0.546875 -0.546875q0.21875 -0.375 0.21875 -0.90625q0 -0.53125 -0.21875 -0.890625q-0.203125 -0.375 -0.546875 -0.546875q-0.328125 -0.1875 -0.71875 -0.1875q-0.390625 0 -0.734375 0.1875q-0.328125 0.171875 -0.53125 0.546875q-0.1875 0.359375 -0.1875 0.890625q0 0.546875 0.1875 0.921875q0.203125 0.359375 0.53125 0.546875q0.328125 0.171875 0.71875 0.171875zm3.932434 -5.359375l0 5.921875l-0.734375 0l0 -5.921875l0.734375 0zm1.9679718 0l0 5.921875l-0.734375 0l0 -5.921875l0.734375 0zm1.9679718 2.359375q0.21875 -0.390625 0.65625 -0.640625q0.4375 -0.25 0.984375 -0.25q0.59375 0 1.0625 0.28125q0.46875 0.28125 0.734375 0.796875q0.28125763 0.5 0.28125763 1.171875q0 0.65625 -0.28125763 1.1875q-0.265625 0.515625 -0.75 0.8125q-0.46875 0.28125 -1.046875 0.28125q-0.5625 0 -1.0 -0.25q-0.421875 -0.25 -0.640625 -0.640625l0 0.8125l-0.734375 0l0 -5.921875l0.734375 0l0 2.359375zm2.96875 1.359375q0 -0.5 -0.203125 -0.859375q-0.1875 -0.375 -0.53125 -0.5625q-0.34375 -0.203125 -0.75 -0.203125q-0.390625 0 -0.734375 0.203125q-0.34375 0.1875 -0.546875 0.5625q-0.203125 0.375 -0.203125 0.859375q0 0.5 0.203125 0.875q0.203125 0.375 0.546875 0.578125q0.34375 0.1875 0.734375 0.1875q0.40625 0 0.75 -0.1875q0.34375 -0.203125 0.53125 -0.578125q0.203125 -0.375 0.203125 -0.875zm1.4391861 0q0 -0.671875 0.265625 -1.171875q0.28125 -0.515625 0.75 -0.796875q0.484375 -0.28125 1.0625 -0.28125q0.578125 0 1.0 0.25q0.421875 0.25 0.640625 0.625l0 -0.8125l0.734375 0l0 4.390625l-0.734375 0l0 -0.8125q-0.21875 0.375 -0.65625 0.640625q-0.421875 0.25 -0.984375 0.25q-0.59375 0 -1.0625 -0.28125q-0.46875 -0.296875 -0.75 -0.8125q-0.265625 -0.53125 -0.265625 -1.1875zm3.71875 0q0 -0.5 -0.203125 -0.859375q-0.203125 -0.375 -0.546875 -0.5625q-0.34375 -0.203125 -0.75 -0.203125q-0.40625 0 -0.75 0.203125q-0.328125 0.1875 -0.53125 0.5625q-0.1875 0.359375 -0.1875 0.859375q0 0.5 0.1875 0.875q0.203125 0.375 0.53125 0.578125q0.34375 0.1875 0.75 0.1875q0.40625 0 0.75 -0.1875q0.34375 -0.203125 0.546875 -0.578125q0.203125 -0.375 0.203125 -0.875zm1.6891785 0q0 -0.671875 0.265625 -1.171875q0.28125 -0.515625 0.765625 -0.796875q0.484375 -0.28125 1.109375 -0.28125q0.796875 0 1.328125 0.390625q0.53125 0.390625 0.6875 1.09375l-0.78125 0q-0.109375 -0.40625 -0.4375 -0.640625q-0.328125 -0.234375 -0.796875 -0.234375q-0.625 0 -1.015625 0.4375q-0.375 0.421875 -0.375 1.203125q0 0.796875 0.375 1.234375q0.390625 0.421875 1.015625 0.421875q0.46875 0 0.78125 -0.21875q0.328125 -0.21875 0.453125 -0.640625l0.78125 0q-0.171875 0.671875 -0.703125 1.078125q-0.53125 0.40625 -1.3125 0.40625q-0.625 0 -1.109375 -0.28125q-0.484375 -0.28125 -0.765625 -0.796875q-0.265625 -0.515625 -0.265625 -1.203125zm7.574692 2.203125l-1.71875 -1.9375l0 1.9375l-0.734375 0l0 -5.921875l0.734375 0l0 3.484375l1.6875 -1.953125l1.015625 0l-2.0625 2.1875l2.078125 2.203125l-1.0 0zm5.5996704 -3.78125l-0.921875 0l0 3.78125l-0.734375 0l0 -3.78125l-0.5625 0l0 -0.609375l0.5625 0l0 -0.3125q0 -0.734375 0.375 -1.0625q0.390625 -0.34375 1.234375 -0.34375l0 0.609375q-0.484375 0 -0.6875 0.1875q-0.1875 0.1875 -0.1875 0.609375l0 0.3125l0.921875 0l0 0.609375zm0.56947327 1.578125q0 -0.671875 0.265625 -1.171875q0.28125 -0.515625 0.75 -0.796875q0.484375 -0.28125 1.0625 -0.28125q0.578125 0 1.0 0.25q0.421875 0.25 0.640625 0.625l0 -0.8125l0.734375 0l0 4.390625l-0.734375 0l0 -0.8125q-0.21875 0.375 -0.65625 0.640625q-0.421875 0.25 -0.984375 0.25q-0.59375 0 -1.0625 -0.28125q-0.46875 -0.296875 -0.75 -0.8125q-0.265625 -0.53125 -0.265625 -1.1875zm3.71875 0q0 -0.5 -0.203125 -0.859375q-0.203125 -0.375 -0.546875 -0.5625q-0.34375 -0.203125 -0.75 -0.203125q-0.40625 0 -0.75 0.203125q-0.328125 0.1875 -0.53125 0.5625q-0.1875 0.359375 -0.1875 0.859375q0 0.5 0.1875 0.875q0.203125 0.375 0.53125 0.578125q0.34375 0.1875 0.75 0.1875q0.40625 0 0.75 -0.1875q0.34375 -0.203125 0.546875 -0.578125q0.203125 -0.375 0.203125 -0.875zm2.3298035 -2.890625q-0.203125 0 -0.34375 -0.140625q-0.140625 -0.15625 -0.140625 -0.359375q0 -0.203125 0.140625 -0.34375q0.140625 -0.15625 0.34375 -0.15625q0.203125 0 0.34375 0.15625q0.140625 0.140625 0.140625 0.34375q0 0.203125 -0.140625 0.359375q-0.140625 0.140625 -0.34375 0.140625zm0.359375 0.703125l0 4.390625l-0.734375 0l0 -4.390625l0.734375 0zm1.9679718 -1.53125l0 5.921875l-0.734375 0l0 -5.921875l0.734375 0zm5.233597 3.5625q0 0.203125 -0.015625 0.4375l-3.5 0q0.03125 0.65625 0.4375 1.015625q0.40625 0.359375 0.984375 0.359375q0.46875 0 0.78125 -0.21875q0.3125 -0.21875 0.453125 -0.59375l0.78125 0q-0.171875 0.640625 -0.703125 1.046875q-0.53125 0.390625 -1.3125 0.390625q-0.625 0 -1.125 -0.28125q-0.484375 -0.28125 -0.765625 -0.796875q-0.28125 -0.515625 -0.28125 -1.203125q0 -0.671875 0.265625 -1.1875q0.28125 -0.515625 0.765625 -0.78125q0.5 -0.28125 1.140625 -0.28125q0.625 0 1.09375 0.28125q0.484375 0.265625 0.734375 0.75q0.265625 0.46875 0.265625 1.0625zm-0.75 -0.15625q0 -0.40625 -0.1875 -0.703125q-0.171875 -0.3125 -0.5 -0.46875q-0.3125 -0.15625 -0.6875 -0.15625q-0.5625 0 -0.953125 0.359375q-0.375 0.34375 -0.4375 0.96875l2.765625 0zm1.4443054 0.3125q0 -0.671875 0.265625 -1.171875q0.28125 -0.515625 0.75 -0.796875q0.484375 -0.28125 1.078125 -0.28125q0.5 0 0.9375 0.234375q0.453125 0.234375 0.6875 0.625l0 -2.328125l0.734375 0l0 5.921875l-0.734375 0l0 -0.828125q-0.21875 0.390625 -0.65625 0.65625q-0.421875 0.25 -0.984375 0.25q-0.578125 0 -1.0625 -0.28125q-0.46875 -0.296875 -0.75 -0.8125q-0.265625 -0.53125 -0.265625 -1.1875zm3.71875 0q0 -0.5 -0.203125 -0.859375q-0.203125 -0.375 -0.546875 -0.5625q-0.34375 -0.203125 -0.75 -0.203125q-0.40625 0 -0.75 0.203125q-0.328125 0.1875 -0.53125 0.5625q-0.1875 0.359375 -0.1875 0.859375q0 0.5 0.1875 0.875q0.203125 0.375 0.53125 0.578125q0.34375 0.1875 0.75 0.1875q0.40625 0 0.75 -0.1875q0.34375 -0.203125 0.546875 -0.578125q0.203125 -0.375 0.203125 -0.875z" fill-rule="nonzero"/><path fill="#cc3300" d="m125.93044 151.69029l0 -13.401581l0 0c0 -7.4014893 6.000099 -13.401573 13.401573 -13.401573c7.4014893 0 13.401581 6.000084 13.401581 13.401573l0 13.401581z" fill-rule="evenodd"/><path stroke="#cc0000" stroke-width="1.0" stroke-linejoin="round" stroke-linecap="butt" d="m125.93044 151.69029l0 -13.401581l0 0c0 -7.4014893 6.000099 -13.401573 13.401573 -13.401573c7.4014893 0 13.401581 6.000084 13.401581 13.401573l0 13.401581z" fill-rule="evenodd"/><path fill="#ffcc00" d="m224.50787 151.69029l0 -13.401581l0 0c0 -7.4014893 6.0000916 -13.401573 13.401581 -13.401573c7.401474 0 13.401566 6.000084 13.401566 13.401573l0 13.401581z" fill-rule="evenodd"/><path stroke="#ff9900" stroke-width="1.0" stroke-linejoin="round" stroke-linecap="butt" d="m224.50787 151.69029l0 -13.401581l0 0c0 -7.4014893 6.0000916 -13.401573 13.401581 -13.401573c7.401474 0 13.401566 6.000084 13.401566 13.401573l0 13.401581z" fill-rule="evenodd"/><path fill="#4bb543" d="m328.15222 35.62992l0 -13.401575l0 0c0 -7.4014845 6.0000916 -13.401574 13.401581 -13.401574c7.4014893 0 13.401581 6.0000896 13.401581 13.401574l0 13.401575z" fill-rule="evenodd"/><path stroke="#28b76b" stroke-width="1.0" stroke-linejoin="round" stroke-linecap="butt" d="m328.15222 35.62992l0 -13.401575l0 0c0 -7.4014845 6.0000916 -13.401574 13.401581 -13.401574c7.4014893 0 13.401581 6.0000896 13.401581 13.401574l0 13.401575z" fill-rule="evenodd"/><path fill="#28b76b" d="m134.41864 51.425198l0 0c0 -2.7135887 2.1997986 -4.9133873 4.913376 -4.9133873l0 0c1.3031158 0 2.5528564 0.51765823 3.474289 1.4390984c0.92144775 0.9214401 1.4391022 2.171177 1.4391022 3.474289l0 0c0 2.7135887 -2.1997986 4.9133835 -4.913391 4.9133835l0 0c-2.7135773 0 -4.913376 -2.1997948 -4.913376 -4.9133835z" fill-rule="evenodd"/><path stroke="#28b76b" stroke-width="3.0" stroke-linejoin="round" stroke-linecap="butt" d="m134.41864 51.425198l0 0c0 -2.7135887 2.1997986 -4.9133873 4.913376 -4.9133873l0 0c1.3031158 0 2.5528564 0.51765823 3.474289 1.4390984c0.92144775 0.9214401 1.4391022 2.171177 1.4391022 3.474289l0 0c0 2.7135887 -2.1997986 4.9133835 -4.913391 4.9133835l0 0c-2.7135773 0 -4.913376 -2.1997948 -4.913376 -4.9133835z" fill-rule="evenodd"/><path fill="#28b76b" d="m232.99606 51.425198l0 0c0 -2.7135887 2.1997986 -4.9133873 4.913391 -4.9133873l0 0c1.3031006 0 2.5528412 0.51765823 3.474289 1.4390984c0.9214325 0.9214401 1.4390869 2.171177 1.4390869 3.474289l0 0c0 2.7135887 -2.1997986 4.9133835 -4.913376 4.9133835l0 0c-2.7135925 0 -4.913391 -2.1997948 -4.913391 -4.9133835z" fill-rule="evenodd"/><path stroke="#28b76b" stroke-width="3.0" stroke-linejoin="round" stroke-linecap="butt" d="m232.99606 51.425198l0 0c0 -2.7135887 2.1997986 -4.9133873 4.913391 -4.9133873l0 0c1.3031006 0 2.5528412 0.51765823 3.474289 1.4390984c0.9214325 0.9214401 1.4390869 2.171177 1.4390869 3.474289l0 0c0 2.7135887 -2.1997986 4.9133835 -4.913376 4.9133835l0 0c-2.7135925 0 -4.913391 -2.1997948 -4.913391 -4.9133835z" fill-rule="evenodd"/><path fill="#28b76b" d="m336.64172 51.771652l0 0c0 -2.713585 2.1997986 -4.9133835 4.913391 -4.9133835l0 0c1.3031006 0 2.5528564 0.51765823 3.4743042 1.4390945c0.92141724 0.9214401 1.4390869 2.1711807 1.4390869 3.474289l0 0c0 2.7135887 -2.1997986 4.9133873 -4.913391 4.9133873l0 0c-2.7135925 0 -4.913391 -2.1997986 -4.913391 -4.9133873z" fill-rule="evenodd"/><path stroke="#28b76b" stroke-width="3.0" stroke-linejoin="round" stroke-linecap="butt" d="m336.64172 51.771652l0 0c0 -2.713585 2.1997986 -4.9133835 4.913391 -4.9133835l0 0c1.3031006 0 2.5528564 0.51765823 3.4743042 1.4390945c0.92141724 0.9214401 1.4390869 2.1711807 1.4390869 3.474289l0 0c0 2.7135887 -2.1997986 4.9133873 -4.913391 4.9133873l0 0c-2.7135925 0 -4.913391 -2.1997986 -4.913391 -4.9133873z" fill-rule="evenodd"/><path fill="#ffffff" d="m623.99866 51.425198l0 0c0 -2.7135887 2.199829 -4.9133873 4.913391 -4.9133873l0 0c1.3031616 0 2.5528564 0.51765823 3.4743042 1.4390984c0.92144775 0.9214401 1.4390869 2.171177 1.4390869 3.474289l0 0c0 2.7135887 -2.199768 4.9133835 -4.913391 4.9133835l0 0c-2.713562 0 -4.913391 -2.1997948 -4.913391 -4.9133835z" fill-rule="evenodd"/><path stroke="#28b76b" stroke-width="3.0" stroke-linejoin="round" stroke-linecap="butt" d="m623.99866 51.425198l0 0c0 -2.7135887 2.199829 -4.9133873 4.913391 -4.9133873l0 0c1.3031616 0 2.5528564 0.51765823 3.4743042 1.4390984c0.92144775 0.9214401 1.4390869 2.171177 1.4390869 3.474289l0 0c0 2.7135887 -2.199768 4.9133835 -4.913391 4.9133835l0 0c-2.713562 0 -4.913391 -2.1997948 -4.913391 -4.9133835z" fill-rule="evenodd"/><path fill="#28b76b" d="m232.99606 166.9029l0 0c0 -2.7135925 2.1997986 -4.913391 4.913391 -4.913391l0 0c1.3031006 0 2.5528412 0.5176544 3.474289 1.4391022c0.9214325 0.9214325 1.4390869 2.171173 1.4390869 3.474289l0 0c0 2.7135773 -2.1997986 4.913376 -4.913376 4.913376l0 0c-2.7135925 0 -4.913391 -2.1997986 -4.913391 -4.913376z" fill-rule="evenodd"/><path stroke="#28b76b" stroke-width="3.0" stroke-linejoin="round" stroke-linecap="butt" d="m232.99606 166.9029l0 0c0 -2.7135925 2.1997986 -4.913391 4.913391 -4.913391l0 0c1.3031006 0 2.5528412 0.5176544 3.474289 1.4391022c0.9214325 0.9214325 1.4390869 2.171173 1.4390869 3.474289l0 0c0 2.7135773 -2.1997986 4.913376 -4.913376 4.913376l0 0c-2.7135925 0 -4.913391 -2.1997986 -4.913391 -4.913376z" fill-rule="evenodd"/><path fill="#ffffff" d="m543.20605 51.771652l0 0c0 -2.713585 2.199768 -4.9133835 4.913391 -4.9133835l0 0c1.3031006 0 2.5528564 0.51765823 3.4742432 1.4390945c0.92144775 0.9214401 1.439148 2.1711807 1.439148 3.474289l0 0c0 2.7135887 -2.199829 4.9133873 -4.913391 4.9133873l0 0c-2.713623 0 -4.913391 -2.1997986 -4.913391 -4.9133873z" fill-rule="evenodd"/><path stroke="#28b76b" stroke-width="3.0" stroke-linejoin="round" stroke-linecap="butt" d="m543.20605 51.771652l0 0c0 -2.713585 2.199768 -4.9133835 4.913391 -4.9133835l0 0c1.3031006 0 2.5528564 0.51765823 3.4742432 1.4390945c0.92144775 0.9214401 1.439148 2.1711807 1.439148 3.474289l0 0c0 2.7135887 -2.199829 4.9133873 -4.913391 4.9133873l0 0c-2.713623 0 -4.913391 -2.1997986 -4.913391 -4.9133873z" fill-rule="evenodd"/><path fill="#ffffff" d="m39.463253 166.98163l0 0c0 -2.7135925 2.1997986 -4.913391 4.9133873 -4.913391l0 0c1.303112 0 2.5528488 0.5176697 3.474289 1.4391022c0.9214363 0.9214325 1.4390984 2.171173 1.4390984 3.474289l0 0c0 2.7135925 -2.1997986 4.913391 -4.9133873 4.913391l0 0c-2.7135887 0 -4.9133873 -2.1997986 -4.9133873 -4.913391z" fill-rule="evenodd"/><path stroke="#28b76b" stroke-width="3.0" stroke-linejoin="round" stroke-linecap="butt" d="m39.463253 166.98163l0 0c0 -2.7135925 2.1997986 -4.913391 4.9133873 -4.913391l0 0c1.303112 0 2.5528488 0.5176697 3.474289 1.4391022c0.9214363 0.9214325 1.4390984 2.171173 1.4390984 3.474289l0 0c0 2.7135925 -2.1997986 4.913391 -4.9133873 4.913391l0 0c-2.7135887 0 -4.9133873 -2.1997986 -4.9133873 -4.913391z" fill-rule="evenodd"/><path fill="#000000" d="m36.7231 73.68241l0 0c0 -4.2269287 3.4266052 -7.6535416 7.6535416 -7.6535416l0 0c2.0298462 0 3.9765549 0.80635834 5.411873 2.2416763c1.435318 1.4353104 2.2416687 3.382019 2.2416687 5.411865l0 0c0 4.2269363 -3.4266052 7.653549 -7.6535416 7.653549l0 0c-4.2269363 0 -7.6535416 -3.4266129 -7.6535416 -7.653549z" fill-rule="evenodd"/><path stroke="#000000" stroke-width="3.0" stroke-linejoin="round" stroke-linecap="butt" d="m36.7231 73.68241l0 0c0 -4.2269287 3.4266052 -7.6535416 7.6535416 -7.6535416l0 0c2.0298462 0 3.9765549 0.80635834 5.411873 2.2416763c1.435318 1.4353104 2.2416687 3.382019 2.2416687 5.411865l0 0c0 4.2269363 -3.4266052 7.653549 -7.6535416 7.653549l0 0c-4.2269363 0 -7.6535416 -3.4266129 -7.6535416 -7.653549z" fill-rule="evenodd"/><path fill="#000000" fill-opacity="0.0" d="m32.738846 61.199474l23.275589 0l0 24.755909l-23.275589 0z" fill-rule="evenodd"/><path fill="#ffffff" d="m45.41072 76.93742l-1.28125 0l0 -4.828125q-0.703125 0.65625 -1.65625 0.96875l0 -1.15625q0.5 -0.15625 1.078125 -0.609375q0.59375 -0.46875 0.8125 -1.078125l1.046875 0l0 6.703125z" fill-rule="nonzero"/><path fill="#000000" d="m441.8491 73.68241l0 0c0 -4.2269287 3.4266052 -7.6535416 7.653534 -7.6535416l0 0c2.0298462 0 3.9765625 0.80635834 5.411865 2.2416763c1.4353333 1.4353104 2.2416687 3.382019 2.2416687 5.411865l0 0c0 4.2269363 -3.4266052 7.653549 -7.653534 7.653549l0 0c-4.2269287 0 -7.653534 -3.4266129 -7.653534 -7.653549z" fill-rule="evenodd"/><path stroke="#000000" stroke-width="3.0" stroke-linejoin="round" stroke-linecap="butt" d="m441.8491 73.68241l0 0c0 -4.2269287 3.4266052 -7.6535416 7.653534 -7.6535416l0 0c2.0298462 0 3.9765625 0.80635834 5.411865 2.2416763c1.4353333 1.4353104 2.2416687 3.382019 2.2416687 5.411865l0 0c0 4.2269363 -3.4266052 7.653549 -7.653534 7.653549l0 0c-4.2269287 0 -7.653534 -3.4266129 -7.653534 -7.653549z" fill-rule="evenodd"/><path fill="#000000" fill-opacity="0.0" d="m437.86484 61.199474l23.275574 0l0 24.755909l-23.275574 0z" fill-rule="evenodd"/><path fill="#ffffff" d="m451.5836 75.74992l0 1.1875l-4.484375 0q0.078125 -0.671875 0.4375 -1.265625q0.359375 -0.609375 1.4375 -1.609375q0.859375 -0.8125 1.0625 -1.09375q0.265625 -0.40625 0.265625 -0.78125q0 -0.4375 -0.234375 -0.65625q-0.234375 -0.234375 -0.640625 -0.234375q-0.390625 0 -0.640625 0.25q-0.234375 0.234375 -0.265625 0.796875l-1.28125 -0.140625q0.125 -1.046875 0.71875 -1.5q0.609375 -0.46875 1.5 -0.46875q1.0 0 1.5625 0.53125q0.5625 0.53125 0.5625 1.328125q0 0.453125 -0.171875 0.859375q-0.15625 0.40625 -0.5 0.84375q-0.234375 0.296875 -0.84375 0.859375q-0.609375 0.5625 -0.765625 0.75q-0.15625 0.171875 -0.265625 0.34375l2.546875 0z" fill-rule="nonzero"/><path fill="#000000" d="m621.25854 73.68241l0 0c0 -4.2269287 3.4265747 -7.6535416 7.6535034 -7.6535416l0 0c2.0298462 0 3.9765625 0.80635834 5.4119263 2.2416763c1.4353027 1.4353104 2.2416382 3.382019 2.2416382 5.411865l0 0c0 4.2269363 -3.4265747 7.653549 -7.6535645 7.653549l0 0c-4.2269287 0 -7.6535034 -3.4266129 -7.6535034 -7.653549z" fill-rule="evenodd"/><path stroke="#000000" stroke-width="3.0" stroke-linejoin="round" stroke-linecap="butt" d="m621.25854 73.68241l0 0c0 -4.2269287 3.4265747 -7.6535416 7.6535034 -7.6535416l0 0c2.0298462 0 3.9765625 0.80635834 5.4119263 2.2416763c1.4353027 1.4353104 2.2416382 3.382019 2.2416382 5.411865l0 0c0 4.2269363 -3.4265747 7.653549 -7.6535645 7.653549l0 0c-4.2269287 0 -7.6535034 -3.4266129 -7.6535034 -7.653549z" fill-rule="evenodd"/><path fill="#000000" fill-opacity="0.0" d="m617.2743 61.199474l23.275574 0l0 24.755909l-23.275574 0z" fill-rule="evenodd"/><path fill="#ffffff" d="m626.61804 75.1718l1.25 -0.15625q0.0625 0.46875 0.3125 0.71875q0.265625 0.25 0.625 0.25q0.40625 0 0.671875 -0.296875q0.265625 -0.296875 0.265625 -0.8125q0 -0.484375 -0.265625 -0.765625q-0.25 -0.28125 -0.625 -0.28125q-0.234375 0 -0.578125 0.09375l0.140625 -1.03125q0.515625 0 0.78125 -0.234375q0.28125 -0.234375 0.28125 -0.640625q0 -0.328125 -0.203125 -0.53125q-0.203125 -0.203125 -0.53125 -0.203125q-0.328125 0 -0.5625 0.234375q-0.234375 0.21875 -0.28125 0.65625l-1.171875 -0.1875q0.109375 -0.609375 0.359375 -0.96875q0.25 -0.375 0.6875 -0.578125q0.453125 -0.203125 1.0 -0.203125q0.953125 0 1.515625 0.59375q0.46875 0.5 0.46875 1.125q0 0.875 -0.953125 1.390625q0.5625 0.125 0.90625 0.5625q0.34375 0.421875 0.34375 1.03125q0 0.875 -0.640625 1.5q-0.640625 0.609375 -1.59375 0.609375q-0.90625 0 -1.5 -0.515625q-0.59375 -0.515625 -0.703125 -1.359375z" fill-rule="nonzero"/><path fill="#000000" d="m333.90158 189.50656l0 0c0 -4.2269287 3.4266052 -7.653549 7.653534 -7.653549l0 0c2.0298462 0 3.9765625 0.80636597 5.411865 2.241684c1.4353333 1.435318 2.2416687 3.382019 2.2416687 5.411865l0 0c0 4.2269287 -3.4266052 7.653549 -7.653534 7.653549l0 0c-4.2269287 0 -7.653534 -3.4266205 -7.653534 -7.653549z" fill-rule="evenodd"/><path stroke="#000000" stroke-width="3.0" stroke-linejoin="round" stroke-linecap="butt" d="m333.90158 189.50656l0 0c0 -4.2269287 3.4266052 -7.653549 7.653534 -7.653549l0 0c2.0298462 0 3.9765625 0.80636597 5.411865 2.241684c1.4353333 1.435318 2.2416687 3.382019 2.2416687 5.411865l0 0c0 4.2269287 -3.4266052 7.653549 -7.653534 7.653549l0 0c-4.2269287 0 -7.653534 -3.4266205 -7.653534 -7.653549z" fill-rule="evenodd"/><path fill="#000000" fill-opacity="0.0" d="m329.91733 177.02362l23.275574 0l0 24.755905l-23.275574 0z" fill-rule="evenodd"/><path fill="#ffffff" d="m341.82358 192.76158l0 -1.34375l-2.734375 0l0 -1.125l2.890625 -4.234375l1.078125 0l0 4.234375l0.828125 0l0 1.125l-0.828125 0l0 1.34375l-1.234375 0zm0 -2.46875l0 -2.28125l-1.53125 2.28125l1.53125 0z" fill-rule="nonzero"/><path fill="#000000" d="m131.67848 191.59055l0 0c0 -4.2269287 3.4266052 -7.653534 7.653534 -7.653534l0 0c2.0298462 0 3.9765625 0.8063507 5.4118805 2.2416687c1.435318 1.435318 2.2416687 3.382019 2.2416687 5.411865l0 0c0 4.226944 -3.4266052 7.653549 -7.653549 7.653549l0 0c-4.2269287 0 -7.653534 -3.4266052 -7.653534 -7.653549z" fill-rule="evenodd"/><path stroke="#000000" stroke-width="3.0" stroke-linejoin="round" stroke-linecap="butt" d="m131.67848 191.59055l0 0c0 -4.2269287 3.4266052 -7.653534 7.653534 -7.653534l0 0c2.0298462 0 3.9765625 0.8063507 5.4118805 2.2416687c1.435318 1.435318 2.2416687 3.382019 2.2416687 5.411865l0 0c0 4.226944 -3.4266052 7.653549 -7.653549 7.653549l0 0c-4.2269287 0 -7.653534 -3.4266052 -7.653534 -7.653549z" fill-rule="evenodd"/><path fill="#000000" fill-opacity="0.0" d="m127.69423 179.1076l23.275589 0l0 24.755905l-23.275589 0z" fill-rule="evenodd"/><path fill="#ffffff" d="m137.1161 193.12682l1.265625 -0.125q0.0625 0.421875 0.328125 0.6875q0.265625 0.25 0.609375 0.25q0.40625 0 0.6875 -0.328125q0.28125 -0.328125 0.28125 -0.984375q0 -0.609375 -0.28125 -0.921875q-0.28125 -0.3125 -0.71875 -0.3125q-0.546875 0 -0.984375 0.5l-1.046875 -0.15625l0.65625 -3.484375l3.390625 0l0 1.203125l-2.40625 0l-0.203125 1.140625q0.421875 -0.21875 0.875 -0.21875q0.84375 0 1.4375 0.625q0.59375 0.609375 0.59375 1.609375q0 0.8125 -0.484375 1.46875q-0.640625 0.875 -1.796875 0.875q-0.9375 0 -1.515625 -0.484375q-0.578125 -0.5 -0.6875 -1.34375z" fill-rule="nonzero"/><path fill="#000000" d="m36.7231 191.59055l0 0c0 -4.2269287 3.4266052 -7.653534 7.6535416 -7.653534l0 0c2.0298462 0 3.9765549 0.8063507 5.411873 2.2416687c1.435318 1.435318 2.2416687 3.382019 2.2416687 5.411865l0 0c0 4.226944 -3.4266052 7.653549 -7.6535416 7.653549l0 0c-4.2269363 0 -7.6535416 -3.4266052 -7.6535416 -7.653549z" fill-rule="evenodd"/><path stroke="#000000" stroke-width="3.0" stroke-linejoin="round" stroke-linecap="butt" d="m36.7231 191.59055l0 0c0 -4.2269287 3.4266052 -7.653534 7.6535416 -7.653534l0 0c2.0298462 0 3.9765549 0.8063507 5.411873 2.2416687c1.435318 1.435318 2.2416687 3.382019 2.2416687 5.411865l0 0c0 4.226944 -3.4266052 7.653549 -7.6535416 7.653549l0 0c-4.2269363 0 -7.6535416 -3.4266052 -7.6535416 -7.653549z" fill-rule="evenodd"/><path fill="#000000" fill-opacity="0.0" d="m32.738846 179.1076l23.275589 0l0 24.755905l-23.275589 0z" fill-rule="evenodd"/><path fill="#ffffff" d="m46.47322 189.79869l-1.234375 0.140625q-0.046875 -0.375 -0.25 -0.5625q-0.1875 -0.1875 -0.484375 -0.1875q-0.40625 0 -0.6875 0.375q-0.28125 0.359375 -0.359375 1.515625q0.484375 -0.578125 1.1875 -0.578125q0.8125 0 1.375 0.625q0.578125 0.609375 0.578125 1.5625q0 1.03125 -0.609375 1.65625q-0.59375 0.609375 -1.546875 0.609375q-1.0 0 -1.65625 -0.78125q-0.65625 -0.78125 -0.65625 -2.578125q0 -1.828125 0.671875 -2.640625q0.6875 -0.8125 1.78125 -0.8125q0.75 0 1.25 0.421875q0.5 0.421875 0.640625 1.234375zm-2.90625 2.796875q0 0.625 0.28125 0.96875q0.296875 0.328125 0.671875 0.328125q0.34375 0 0.578125 -0.265625q0.25 -0.28125 0.25 -0.921875q0 -0.640625 -0.265625 -0.9375q-0.25 -0.3125 -0.640625 -0.3125q-0.359375 0 -0.625 0.296875q-0.25 0.28125 -0.25 0.84375z" fill-rule="nonzero"/></g></svg>