<svg version="1.1" viewBox="0.0 0.0 728.9501312335958 378.8503937007874" fill="none" stroke="none" stroke-linecap="square" stroke-miterlimit="10" xmlns:xlink="http://www.w3.org/1999/xlink" xmlns="http://www.w3.org/2000/svg"><clipPath id="p.0"><path d="m0 0l728.95013 0l0 378.8504l-728.95013 0l0 -378.8504z" clip-rule="nonzero"/></clipPath><g clip-path="url(#p.0)"><path fill="#ffffff" d="m0 0l728.95013 0l0 378.8504l-728.95013 0z" fill-rule="evenodd"/><path fill="#000000" fill-opacity="0.0" d="m67.9895 96.98163l299.1496 -0.34645844" fill-rule="evenodd"/><path stroke="#28b76b" stroke-width="3.0" stroke-linejoin="round" stroke-linecap="butt" d="m79.35949 96.96846l269.7796 -0.3124466" fill-rule="evenodd"/><path fill="#28b76b" stroke="#28b76b" stroke-width="3.0" stroke-linecap="butt" d="m69.4895 96.97989c-0.0031585693 -2.725525 2.2037582 -4.9375534 4.929283 -4.940712c2.7255173 -0.0031585693 4.9375534 2.2037582 4.9407043 4.929283c0.0031585693 2.725525 -2.2037506 4.9375534 -4.9292755 4.940712c-2.725525 0.0031585693 -4.9375534 -2.2037582 -4.940712 -4.929283z" fill-rule="nonzero"/><path fill="#28b76b" stroke="#28b76b" stroke-width="3.0" stroke-linecap="butt" d="m349.14487 101.61121l13.608551 -4.9709625l-13.620026 -4.93943z" fill-rule="evenodd"/><path fill="#4bb543" d="m61.47113 80.902885l0 -13.401573l0 0c0 -7.4014854 6.000084 -13.401573 13.401573 -13.401573c7.4014816 0 13.401573 6.0000877 13.401573 13.401573l0 13.401573z" fill-rule="evenodd"/><path stroke="#28b76b" stroke-width="1.0" stroke-linejoin="round" stroke-linecap="butt" d="m61.47113 80.902885l0 -13.401573l0 0c0 -7.4014854 6.000084 -13.401573 13.401573 -13.401573c7.4014816 0 13.401573 6.0000877 13.401573 13.401573l0 13.401573z" fill-rule="evenodd"/><path fill="#4bb543" d="m156.42651 80.902885l0 -13.401573l0 0c0 -7.4014854 6.0000916 -13.401573 13.401566 -13.401573c7.4014893 0 13.401581 6.0000877 13.401581 13.401573l0 13.401573z" fill-rule="evenodd"/><path stroke="#28b76b" stroke-width="1.0" stroke-linejoin="round" stroke-linecap="butt" d="m156.42651 80.902885l0 -13.401573l0 0c0 -7.4014854 6.0000916 -13.401573 13.401566 -13.401573c7.4014893 0 13.401581 6.0000877 13.401581 13.401573l0 13.401573z" fill-rule="evenodd"/><path fill="#4bb543" d="m255.00394 80.902885l0 -13.401573l0 0c0 -7.4014854 6.0000916 -13.401573 13.401581 -13.401573c7.4014893 0 13.401581 6.0000877 13.401581 13.401573l0 13.401573z" fill-rule="evenodd"/><path stroke="#28b76b" stroke-width="1.0" stroke-linejoin="round" stroke-linecap="butt" d="m255.00394 80.902885l0 -13.401573l0 0c0 -7.4014854 6.0000916 -13.401573 13.401581 -13.401573c7.4014893 0 13.401581 6.0000877 13.401581 13.401573l0 13.401573z" fill-rule="evenodd"/><path fill="#cc3300" d="m358.6496 80.902885l0 -13.401573l0 0c0 -7.4014854 6.0000916 -13.401573 13.401581 -13.401573c7.4014893 0 13.401581 6.0000877 13.401581 13.401573l0 13.401573z" fill-rule="evenodd"/><path stroke="#cc0000" stroke-width="1.0" stroke-linejoin="round" stroke-linecap="butt" d="m358.6496 80.902885l0 -13.401573l0 0c0 -7.4014854 6.0000916 -13.401573 13.401581 -13.401573c7.4014893 0 13.401581 6.0000877 13.401581 13.401573l0 13.401573z" fill-rule="evenodd"/><path fill="#ffffff" d="m452.15353 80.902885l0 -13.401573l0 0c0 -7.4014854 6.0000916 -13.401573 13.401581 -13.401573c7.4014893 0 13.401581 6.0000877 13.401581 13.401573l0 13.401573z" fill-rule="evenodd"/><path stroke="#28b76b" stroke-width="1.0" stroke-linejoin="round" stroke-linecap="butt" d="m452.15353 80.902885l0 -13.401573l0 0c0 -7.4014854 6.0000916 -13.401573 13.401581 -13.401573c7.4014893 0 13.401581 6.0000877 13.401581 13.401573l0 13.401573z" fill-rule="evenodd"/><path fill="#ffffff" d="m565.2139 80.902885l0 -13.401573l0 0c0 -7.4014854 6.000061 -13.401573 13.40155 -13.401573c7.4014893 0 13.401611 6.0000877 13.401611 13.401573l0 13.401573z" fill-rule="evenodd"/><path stroke="#28b76b" stroke-width="1.0" stroke-linejoin="round" stroke-linecap="butt" d="m565.2139 80.902885l0 -13.401573l0 0c0 -7.4014854 6.000061 -13.401573 13.40155 -13.401573c7.4014893 0 13.401611 6.0000877 13.401611 13.401573l0 13.401573z" fill-rule="evenodd"/><path fill="#ffffff" d="m646.0066 80.902885l0 -13.401573l0 0c0 -7.4014854 6.000061 -13.401573 13.40155 -13.401573c7.4014893 0 13.40155 6.0000877 13.40155 13.401573l0 13.401573z" fill-rule="evenodd"/><path stroke="#28b76b" stroke-width="1.0" stroke-linejoin="round" stroke-linecap="butt" d="m646.0066 80.902885l0 -13.401573l0 0c0 -7.4014854 6.000061 -13.401573 13.40155 -13.401573c7.4014893 0 13.40155 6.0000877 13.40155 13.401573l0 13.401573z" fill-rule="evenodd"/><path fill="#000000" fill-opacity="0.0" d="m17.297901 109.480316l115.14961 0l0 54.92914l-115.14961 0z" fill-rule="evenodd"/><path fill="#000000" d="m38.875267 122.34157l0 1.09375l-2.796875 0l0 9.125l-1.328125 0l0 -9.125l-2.796875 0l0 -1.09375l6.921875 0zm2.975937 3.484375q0.34375 -0.6875 1.0 -1.0625q0.65625 -0.375 1.59375 -0.375l0 1.375l-0.359375 0q-2.234375 0 -2.234375 2.421875l0 4.375l-1.34375 0l0 -8.03125l1.34375 0l0 1.296875zm3.6230469 2.6875q0 -1.234375 0.5 -2.15625q0.5 -0.9375 1.375 -1.4375q0.875 -0.515625 1.9375 -0.515625q1.0625 0 1.828125 0.453125q0.78125 0.453125 1.171875 1.140625l0 -1.46875l1.34375 0l0 8.03125l-1.34375 0l0 -1.5q-0.40625 0.703125 -1.1875 1.171875q-0.78125 0.453125 -1.828125 0.453125q-1.0625 0 -1.9375 -0.515625q-0.859375 -0.53125 -1.359375 -1.484375q-0.5 -0.953125 -0.5 -2.171875zm6.8125 0.015625q0 -0.90625 -0.375 -1.578125q-0.359375 -0.671875 -0.984375 -1.03125q-0.625 -0.359375 -1.375 -0.359375q-0.75 0 -1.375 0.359375q-0.609375 0.34375 -0.96875 1.015625q-0.359375 0.671875 -0.359375 1.578125q0 0.921875 0.359375 1.609375q0.359375 0.671875 0.96875 1.03125q0.625 0.359375 1.375 0.359375q0.75 0 1.375 -0.359375q0.625 -0.359375 0.984375 -1.03125q0.375 -0.6875 0.375 -1.59375zm7.517044 -4.140625q1.453125 0 2.359375 0.890625q0.921875 0.875 0.921875 2.546875l0 4.734375l-1.328125 0l0 -4.546875q0 -1.203125 -0.609375 -1.828125q-0.59375 -0.640625 -1.625 -0.640625q-1.0625 0 -1.6875 0.65625q-0.609375 0.65625 -0.609375 1.921875l0 4.4375l-1.34375 0l0 -8.03125l1.34375 0l0 1.140625q0.390625 -0.609375 1.0625 -0.9375q0.6875 -0.34375 1.515625 -0.34375zm8.30191 8.296875q-0.921875 0 -1.65625 -0.3125q-0.734375 -0.3125 -1.15625 -0.875q-0.421875 -0.5625 -0.46875 -1.296875l1.375 0q0.0625 0.59375 0.5625 0.984375q0.515625 0.375 1.328125 0.375q0.765625 0 1.203125 -0.328125q0.4375 -0.34375 0.4375 -0.859375q0 -0.53125 -0.46875 -0.78125q-0.46875 -0.25 -1.453125 -0.5q-0.890625 -0.234375 -1.453125 -0.46875q-0.5625 -0.25 -0.96875 -0.71875q-0.40625 -0.484375 -0.40625 -1.265625q0 -0.609375 0.359375 -1.125q0.375 -0.515625 1.046875 -0.8125q0.6875 -0.296875 1.546875 -0.296875q1.328125 0 2.140625 0.671875q0.828125 0.671875 0.890625 1.84375l-1.328125 0q-0.046875 -0.625 -0.515625 -1.0q-0.453125 -0.390625 -1.234375 -0.390625q-0.71875 0 -1.140625 0.3125q-0.421875 0.296875 -0.421875 0.796875q0 0.390625 0.25 0.65625q0.265625 0.25 0.640625 0.40625q0.390625 0.15625 1.078125 0.34375q0.875 0.234375 1.40625 0.46875q0.546875 0.21875 0.9375 0.671875q0.390625 0.453125 0.40625 1.1875q0 0.65625 -0.375 1.1875q-0.359375 0.53125 -1.03125 0.828125q-0.65625 0.296875 -1.53125 0.296875zm4.306839 -4.171875q0 -1.234375 0.5 -2.15625q0.5 -0.9375 1.375 -1.4375q0.875 -0.515625 1.9375 -0.515625q1.0625 0 1.828125 0.453125q0.78125 0.453125 1.171875 1.140625l0 -1.46875l1.34375 0l0 8.03125l-1.34375 0l0 -1.5q-0.40625 0.703125 -1.1875 1.171875q-0.78125 0.453125 -1.828125 0.453125q-1.0625 0 -1.9375 -0.515625q-0.859375 -0.53125 -1.359375 -1.484375q-0.5 -0.953125 -0.5 -2.171875zm6.8125 0.015625q0 -0.90625 -0.375 -1.578125q-0.359375 -0.671875 -0.984375 -1.03125q-0.625 -0.359375 -1.375 -0.359375q-0.75 0 -1.375 0.359375q-0.609375 0.34375 -0.96875 1.015625q-0.359375 0.671875 -0.359375 1.578125q0 0.921875 0.359375 1.609375q0.359375 0.671875 0.96875 1.03125q0.625 0.359375 1.375 0.359375q0.75 0 1.375 -0.359375q0.625 -0.359375 0.984375 -1.03125q0.375 -0.6875 0.375 -1.59375zm3.0951614 0q0 -1.25 0.5 -2.171875q0.5 -0.9375 1.390625 -1.4375q0.890625 -0.515625 2.03125 -0.515625q1.484375 0 2.4375 0.71875q0.953125 0.703125 1.265625 1.984375l-1.4375 0q-0.203125 -0.734375 -0.796875 -1.15625q-0.59375 -0.421875 -1.46875 -0.421875q-1.140625 0 -1.84375 0.78125q-0.703125 0.78125 -0.703125 2.21875q0 1.453125 0.703125 2.25q0.703125 0.78125 1.84375 0.78125q0.875 0 1.453125 -0.40625q0.59375 -0.40625 0.8125 -1.171875l1.4375 0q-0.328125 1.234375 -1.296875 1.96875q-0.953125 0.734375 -2.40625 0.734375q-1.140625 0 -2.03125 -0.5q-0.890625 -0.515625 -1.390625 -1.453125q-0.5 -0.9375 -0.5 -2.203125zm11.021378 -2.90625l0 4.734375q0 0.59375 0.25 0.84375q0.25 0.234375 0.875 0.234375l0.96875 0l0 1.125l-1.1875 0q-1.125 0 -1.6875 -0.515625q-0.546875 -0.515625 -0.546875 -1.6875l0 -4.734375l-1.046875 0l0 -1.09375l1.046875 0l0 -2.015625l1.328125 0l0 2.015625l2.09375 0l0 1.09375l-2.09375 0zm4.3974 -2.40625q-0.375 0 -0.640625 -0.25q-0.265625 -0.265625 -0.265625 -0.65625q0 -0.375 0.265625 -0.640625q0.265625 -0.265625 0.640625 -0.265625q0.375 0 0.625 0.265625q0.265625 0.265625 0.265625 0.640625q0 0.390625 -0.265625 0.65625q-0.25 0.25 -0.625 0.25zm0.65625 1.3125l0 8.03125l-1.34375 0l0 -8.03125l1.34375 0zm5.7617035 8.15625q-1.125 0 -2.046875 -0.5q-0.90625 -0.515625 -1.4375 -1.453125q-0.515625 -0.953125 -0.515625 -2.203125q0 -1.234375 0.53125 -2.171875q0.546875 -0.953125 1.46875 -1.453125q0.921875 -0.5 2.0625 -0.5q1.140625 0 2.0625 0.5q0.9375 0.5 1.46875 1.4375q0.53125 0.9375 0.53125 2.1875q0 1.25 -0.546875 2.203125q-0.546875 0.9375 -1.484375 1.453125q-0.9375 0.5 -2.09375 0.5zm0 -1.171875q0.71875 0 1.34375 -0.328125q0.640625 -0.34375 1.03125 -1.015625q0.390625 -0.671875 0.390625 -1.640625q0 -0.96875 -0.390625 -1.640625q-0.375 -0.671875 -1.0 -1.0q-0.609375 -0.328125 -1.328125 -0.328125q-0.734375 0 -1.34375 0.328125q-0.609375 0.328125 -0.96875 1.0q-0.359375 0.671875 -0.359375 1.640625q0 0.984375 0.359375 1.65625q0.359375 0.671875 0.953125 1.0q0.59375 0.328125 1.3125 0.328125zm9.80191 -7.125q1.453125 0 2.359375 0.890625q0.921875 0.875 0.921875 2.546875l0 4.734375l-1.328125 0l0 -4.546875q0 -1.203125 -0.609375 -1.828125q-0.59375 -0.640625 -1.625 -0.640625q-1.0625 0 -1.6875 0.65625q-0.609375 0.65625 -0.609375 1.921875l0 4.4375l-1.34375 0l0 -8.03125l1.34375 0l0 1.140625q0.390625 -0.609375 1.0625 -0.9375q0.6875 -0.34375 1.515625 -0.34375z" fill-rule="nonzero"/><path fill="#000000" d="m37.909576 150.26968q-1.015625 0 -1.8125 -0.359375q-0.796875 -0.359375 -1.265625 -1.0q-0.453125 -0.640625 -0.46875 -1.46875l1.421875 0q0.078125 0.703125 0.59375 1.203125q0.53125 0.484375 1.53125 0.484375q0.9375 0 1.484375 -0.46875q0.5625 -0.484375 0.5625 -1.21875q0 -0.59375 -0.328125 -0.953125q-0.3125 -0.375 -0.796875 -0.5625q-0.484375 -0.1875 -1.3125 -0.40625q-1.015625 -0.265625 -1.625 -0.53125q-0.59375 -0.265625 -1.03125 -0.828125q-0.4375 -0.5625 -0.4375 -1.515625q0 -0.84375 0.421875 -1.484375q0.4375 -0.640625 1.203125 -0.984375q0.765625 -0.359375 1.765625 -0.359375q1.4375 0 2.34375 0.71875q0.921875 0.71875 1.046875 1.90625l-1.46875 0q-0.078125 -0.59375 -0.625 -1.03125q-0.53125 -0.453125 -1.4375 -0.453125q-0.828125 0 -1.359375 0.4375q-0.53125 0.421875 -0.53125 1.203125q0 0.5625 0.3125 0.921875q0.328125 0.34375 0.78125 0.53125q0.46875 0.171875 1.296875 0.40625q1.015625 0.28125 1.625 0.5625q0.625 0.265625 1.0625 0.828125q0.4375 0.5625 0.4375 1.53125q0 0.75 -0.40625 1.40625q-0.390625 0.65625 -1.171875 1.078125q-0.765625 0.40625 -1.8125 0.40625zm6.978256 -7.046875l0 4.734375q0 0.59375 0.25 0.84375q0.25 0.234375 0.875 0.234375l0.96875 0l0 1.125l-1.1875 0q-1.125 0 -1.6875 -0.515625q-0.546875 -0.515625 -0.546875 -1.6875l0 -4.734375l-1.046875 0l0 -1.09375l1.046875 0l0 -2.015625l1.328125 0l0 2.015625l2.09375 0l0 1.09375l-2.09375 0zm3.2099 2.890625q0 -1.234375 0.5 -2.15625q0.5 -0.9375 1.375 -1.4375q0.875 -0.515625 1.9375 -0.515625q1.0625 0 1.828125 0.453125q0.78125 0.453125 1.171875 1.140625l0 -1.46875l1.34375 0l0 8.03125l-1.34375 0l0 -1.5q-0.40625 0.703125 -1.1875 1.171875q-0.78125 0.453125 -1.828125 0.453125q-1.0625 0 -1.9375 -0.515625q-0.859375 -0.53125 -1.359375 -1.484375q-0.5 -0.953125 -0.5 -2.171875zm6.8125 0.015625q0 -0.90625 -0.375 -1.578125q-0.359375 -0.671875 -0.984375 -1.03125q-0.625 -0.359375 -1.375 -0.359375q-0.75 0 -1.375 0.359375q-0.609375 0.34375 -0.96875 1.015625q-0.359375 0.671875 -0.359375 1.578125q0 0.921875 0.359375 1.609375q0.359375 0.671875 0.96875 1.03125q0.625 0.359375 1.375 0.359375q0.75 0 1.375 -0.359375q0.625 -0.359375 0.984375 -1.03125q0.375 -0.6875 0.375 -1.59375zm4.938919 -2.703125q0.34375 -0.6875 1.0 -1.0625q0.65625 -0.375 1.59375 -0.375l0 1.375l-0.359375 0q-2.234375 0 -2.234375 2.421875l0 4.375l-1.34375 0l0 -8.03125l1.34375 0l0 1.296875zm5.748047 -0.203125l0 4.734375q0 0.59375 0.25 0.84375q0.25 0.234375 0.875 0.234375l0.96875 0l0 1.125l-1.1875 0q-1.125 0 -1.6875 -0.515625q-0.546875 -0.515625 -0.546875 -1.6875l0 -4.734375l-1.046875 0l0 -1.09375l1.046875 0l0 -2.015625l1.328125 0l0 2.015625l2.09375 0l0 1.09375l-2.09375 0zm4.3974 -2.40625q-0.375 0 -0.640625 -0.25q-0.265625 -0.265625 -0.265625 -0.65625q0 -0.375 0.265625 -0.640625q0.265625 -0.265625 0.640625 -0.265625q0.375 0 0.625 0.265625q0.265625 0.265625 0.265625 0.640625q0 0.390625 -0.265625 0.65625q-0.25 0.25 -0.625 0.25zm0.65625 1.3125l0 8.03125l-1.34375 0l0 -8.03125l1.34375 0zm6.1835785 -0.140625q1.453125 0 2.359375 0.890625q0.921875 0.875 0.921875 2.546875l0 4.734375l-1.328125 0l0 -4.546875q0 -1.203125 -0.609375 -1.828125q-0.59375 -0.640625 -1.625 -0.640625q-1.0625 0 -1.6875 0.65625q-0.609375 0.65625 -0.609375 1.921875l0 4.4375l-1.34375 0l0 -8.03125l1.34375 0l0 1.140625q0.390625 -0.609375 1.0625 -0.9375q0.6875 -0.34375 1.515625 -0.34375zm8.77066 0.015625q1.046875 0 1.828125 0.453125q0.78125 0.453125 1.171875 1.140625l0 -1.46875l1.34375 0l0 8.203125q0 1.109375 -0.46875 1.953125q-0.46875 0.859375 -1.34375 1.34375q-0.875 0.484375 -2.03125 0.484375q-1.578125 0 -2.640625 -0.75q-1.046875 -0.734375 -1.234375 -2.03125l1.3125 0q0.21875 0.734375 0.90625 1.171875q0.6875 0.453125 1.65625 0.453125q1.09375 0 1.796875 -0.6875q0.703125 -0.6875 0.703125 -1.9375l0 -1.6875q-0.40625 0.703125 -1.1875 1.171875q-0.765625 0.46875 -1.8125 0.46875q-1.0625 0 -1.9375 -0.515625q-0.875 -0.53125 -1.375 -1.484375q-0.5 -0.953125 -0.5 -2.171875q0 -1.234375 0.5 -2.15625q0.5 -0.9375 1.375 -1.4375q0.875 -0.515625 1.9375 -0.515625zm3.0 4.125q0 -0.90625 -0.375 -1.578125q-0.359375 -0.671875 -0.984375 -1.03125q-0.625 -0.359375 -1.375 -0.359375q-0.75 0 -1.375 0.359375q-0.609375 0.34375 -0.96875 1.015625q-0.359375 0.671875 -0.359375 1.578125q0 0.921875 0.359375 1.609375q0.359375 0.671875 0.96875 1.03125q0.625 0.359375 1.375 0.359375q0.75 0 1.375 -0.359375q0.625 -0.359375 0.984375 -1.03125q0.375 -0.6875 0.375 -1.59375zm17.867783 -6.109375l0 10.140625l-1.328125 0l0 -7.5625l-3.375 7.5625l-0.9375 0l-3.375 -7.578125l0 7.578125l-1.34375 0l0 -10.140625l1.4375 0l3.75 8.375l3.75 -8.375l1.421875 0zm5.5097046 10.25q-1.015625 0 -1.8125 -0.359375q-0.796875 -0.359375 -1.265625 -1.0q-0.453125 -0.640625 -0.46875 -1.46875l1.421875 0q0.078125 0.703125 0.59375 1.203125q0.53125 0.484375 1.53125 0.484375q0.9375 0 1.484375 -0.46875q0.5625 -0.484375 0.5625 -1.21875q0 -0.59375 -0.328125 -0.953125q-0.3125 -0.375 -0.796875 -0.5625q-0.484375 -0.1875 -1.3125 -0.40625q-1.015625 -0.265625 -1.625 -0.53125q-0.59375 -0.265625 -1.03125 -0.828125q-0.4375 -0.5625 -0.4375 -1.515625q0 -0.84375 0.421875 -1.484375q0.4375 -0.640625 1.203125 -0.984375q0.765625 -0.359375 1.765625 -0.359375q1.4375 0 2.34375 0.71875q0.921875 0.71875 1.046875 1.90625l-1.46875 0q-0.078125 -0.59375 -0.625 -1.03125q-0.53125 -0.453125 -1.4375 -0.453125q-0.828125 0 -1.359375 0.4375q-0.53125 0.421875 -0.53125 1.203125q0 0.5625 0.3125 0.921875q0.328125 0.34375 0.78125 0.53125q0.46875 0.171875 1.296875 0.40625q1.015625 0.28125 1.625 0.5625q0.625 0.265625 1.0625 0.828125q0.4375 0.5625 0.4375 1.53125q0 0.75 -0.40625 1.40625q-0.390625 0.65625 -1.171875 1.078125q-0.765625 0.40625 -1.8125 0.40625z" fill-rule="nonzero"/><path fill="#000000" fill-opacity="0.0" d="m600.7467 109.480316l117.322876 0l0 90.48819l-117.322876 0z" fill-rule="evenodd"/><path fill="#000000" d="m643.0135 122.34157l0 1.09375l-2.796875 0l0 9.125l-1.328125 0l0 -9.125l-2.796875 0l0 -1.09375l6.921875 0zm1.1322021 6.171875q0 -1.234375 0.5 -2.15625q0.5 -0.9375 1.375 -1.4375q0.875 -0.515625 1.9375 -0.515625q1.0625 0 1.828125 0.453125q0.78125 0.453125 1.171875 1.140625l0 -1.46875l1.34375 0l0 8.03125l-1.34375 0l0 -1.5q-0.40625 0.703125 -1.1875 1.171875q-0.78125 0.453125 -1.828125 0.453125q-1.0625 0 -1.9375 -0.515625q-0.859375 -0.53125 -1.359375 -1.484375q-0.5 -0.953125 -0.5 -2.171875zm6.8125 0.015625q0 -0.90625 -0.375 -1.578125q-0.359375 -0.671875 -0.984375 -1.03125q-0.625 -0.359375 -1.375 -0.359375q-0.75 0 -1.375 0.359375q-0.609375 0.34375 -0.96875 1.015625q-0.359375 0.671875 -0.359375 1.578125q0 0.921875 0.359375 1.609375q0.359375 0.671875 0.96875 1.03125q0.625 0.359375 1.375 0.359375q0.75 0 1.375 -0.359375q0.625 -0.359375 0.984375 -1.03125q0.375 -0.6875 0.375 -1.59375zm4.938904 -2.703125q0.34375 -0.6875 1.0 -1.0625q0.65625 -0.375 1.59375 -0.375l0 1.375l-0.359375 0q-2.234375 0 -2.234375 2.421875l0 4.375l-1.34375 0l0 -8.03125l1.34375 0l0 1.296875zm7.435547 -1.421875q1.046875 0 1.828125 0.453125q0.78125 0.453125 1.171875 1.140625l0 -1.46875l1.34375 0l0 8.203125q0 1.109375 -0.46875 1.953125q-0.46875 0.859375 -1.34375 1.34375q-0.875 0.484375 -2.03125 0.484375q-1.578125 0 -2.640625 -0.75q-1.046875 -0.734375 -1.234375 -2.03125l1.3125 0q0.21875 0.734375 0.90625 1.171875q0.6875 0.453125 1.65625 0.453125q1.09375 0 1.796875 -0.6875q0.703125 -0.6875 0.703125 -1.9375l0 -1.6875q-0.40625 0.703125 -1.1875 1.171875q-0.765625 0.46875 -1.8125 0.46875q-1.0625 0 -1.9375 -0.515625q-0.875 -0.53125 -1.375 -1.484375q-0.5 -0.953125 -0.5 -2.171875q0 -1.234375 0.5 -2.15625q0.5 -0.9375 1.375 -1.4375q0.875 -0.515625 1.9375 -0.515625zm3.0 4.125q0 -0.90625 -0.375 -1.578125q-0.359375 -0.671875 -0.984375 -1.03125q-0.625 -0.359375 -1.375 -0.359375q-0.75 0 -1.375 0.359375q-0.609375 0.34375 -0.96875 1.015625q-0.359375 0.671875 -0.359375 1.578125q0 0.921875 0.359375 1.609375q0.359375 0.671875 0.96875 1.03125q0.625 0.359375 1.375 0.359375q0.75 0 1.375 -0.359375q0.625 -0.359375 0.984375 -1.03125q0.375 -0.6875 0.375 -1.59375zm10.923279 -0.296875q0 0.390625 -0.046875 0.8125l-6.40625 0q0.0625 1.1875 0.796875 1.859375q0.75 0.65625 1.8125 0.65625q0.859375 0 1.4375 -0.390625q0.578125 -0.40625 0.8125 -1.09375l1.4375 0q-0.328125 1.171875 -1.296875 1.890625q-0.96875 0.71875 -2.390625 0.71875q-1.15625 0 -2.0625 -0.5q-0.890625 -0.515625 -1.40625 -1.453125q-0.515625 -0.953125 -0.515625 -2.203125q0 -1.25 0.5 -2.1875q0.5 -0.9375 1.390625 -1.4375q0.90625 -0.5 2.09375 -0.5q1.140625 0 2.015625 0.5q0.875 0.484375 1.34375 1.359375q0.484375 0.875 0.484375 1.96875zm-1.375 -0.28125q0 -0.75 -0.34375 -1.296875q-0.328125 -0.5625 -0.90625 -0.84375q-0.578125 -0.28125 -1.28125 -0.28125q-1.015625 0 -1.734375 0.640625q-0.703125 0.640625 -0.796875 1.78125l5.0625 0zm4.758789 -2.328125l0 4.734375q0 0.59375 0.25 0.84375q0.25 0.234375 0.875 0.234375l0.96875 0l0 1.125l-1.1875 0q-1.125 0 -1.6875 -0.515625q-0.546875 -0.515625 -0.546875 -1.6875l0 -4.734375l-1.046875 0l0 -1.09375l1.046875 0l0 -2.015625l1.328125 0l0 2.015625l2.09375 0l0 1.09375l-2.09375 0z" fill-rule="nonzero"/><path fill="#000000" d="m615.40173 141.03531l0 3.40625l3.71875 0l0 1.109375l-3.71875 0l0 3.515625l4.15625 0l0 1.09375l-5.5 0l0 -10.234375l5.5 0l0 1.109375l-4.15625 0zm10.096802 0.953125q1.453125 0 2.359375 0.890625q0.921875 0.875 0.921875 2.546875l0 4.734375l-1.328125 0l0 -4.546875q0 -1.203125 -0.609375 -1.828125q-0.59375 -0.640625 -1.625 -0.640625q-1.0625 0 -1.6875 0.65625q-0.609375 0.65625 -0.609375 1.921875l0 4.4375l-1.34375 0l0 -8.03125l1.34375 0l0 1.140625q0.390625 -0.609375 1.0625 -0.9375q0.6875 -0.34375 1.515625 -0.34375zm4.958191 4.125q0 -1.234375 0.5 -2.15625q0.5 -0.9375 1.375 -1.4375q0.875 -0.515625 1.953125 -0.515625q0.9375 0 1.734375 0.4375q0.8125 0.421875 1.25 1.125l0 -4.25l1.34375 0l0 10.84375l-1.34375 0l0 -1.515625q-0.40625 0.71875 -1.1875 1.1875q-0.765625 0.453125 -1.8125 0.453125q-1.0625 0 -1.9375 -0.515625q-0.875 -0.53125 -1.375 -1.484375q-0.5 -0.953125 -0.5 -2.171875zm6.8125 0.015625q0 -0.90625 -0.375 -1.578125q-0.359375 -0.671875 -0.984375 -1.03125q-0.625 -0.359375 -1.375 -0.359375q-0.75 0 -1.375 0.359375q-0.609375 0.34375 -0.96875 1.015625q-0.359375 0.671875 -0.359375 1.578125q0 0.921875 0.359375 1.609375q0.359375 0.671875 0.96875 1.03125q0.625 0.359375 1.375 0.359375q0.75 0 1.375 -0.359375q0.625 -0.359375 0.984375 -1.03125q0.375 -0.6875 0.375 -1.59375zm4.282654 -5.3125q-0.375 0 -0.640625 -0.25q-0.265625 -0.265625 -0.265625 -0.65625q0 -0.375 0.265625 -0.640625q0.265625 -0.265625 0.640625 -0.265625q0.375 0 0.625 0.265625q0.265625 0.265625 0.265625 0.640625q0 0.390625 -0.265625 0.65625q-0.25 0.25 -0.625 0.25zm0.65625 1.3125l0 8.03125l-1.34375 0l0 -8.03125l1.34375 0zm6.1835938 -0.140625q1.453125 0 2.359375 0.890625q0.921875 0.875 0.921875 2.546875l0 4.734375l-1.328125 0l0 -4.546875q0 -1.203125 -0.609375 -1.828125q-0.59375 -0.640625 -1.625 -0.640625q-1.0625 0 -1.6875 0.65625q-0.609375 0.65625 -0.609375 1.921875l0 4.4375l-1.34375 0l0 -8.03125l1.34375 0l0 1.140625q0.390625 -0.609375 1.0625 -0.9375q0.6875 -0.34375 1.515625 -0.34375zm8.77063 0.015625q1.046875 0 1.828125 0.453125q0.78125 0.453125 1.171875 1.140625l0 -1.46875l1.34375 0l0 8.203125q0 1.109375 -0.46875 1.953125q-0.46875 0.859375 -1.34375 1.34375q-0.875 0.484375 -2.03125 0.484375q-1.578125 0 -2.640625 -0.75q-1.046875 -0.734375 -1.234375 -2.03125l1.3125 0q0.21875 0.734375 0.90625 1.171875q0.6875 0.453125 1.65625 0.453125q1.09375 0 1.796875 -0.6875q0.703125 -0.6875 0.703125 -1.9375l0 -1.6875q-0.40625 0.703125 -1.1875 1.171875q-0.765625 0.46875 -1.8125 0.46875q-1.0625 0 -1.9375 -0.515625q-0.875 -0.53125 -1.375 -1.484375q-0.5 -0.953125 -0.5 -2.171875q0 -1.234375 0.5 -2.15625q0.5 -0.9375 1.375 -1.4375q0.875 -0.515625 1.9375 -0.515625zm3.0 4.125q0 -0.90625 -0.375 -1.578125q-0.359375 -0.671875 -0.984375 -1.03125q-0.625 -0.359375 -1.375 -0.359375q-0.75 0 -1.375 0.359375q-0.609375 0.34375 -0.96875 1.015625q-0.359375 0.671875 -0.359375 1.578125q0 0.921875 0.359375 1.609375q0.359375 0.671875 0.96875 1.03125q0.625 0.359375 1.375 0.359375q0.75 0 1.375 -0.359375q0.625 -0.359375 0.984375 -1.03125q0.375 -0.6875 0.375 -1.59375zm17.867798 -6.109375l0 10.140625l-1.328125 0l0 -7.5625l-3.375 7.5625l-0.9375 0l-3.375 -7.578125l0 7.578125l-1.34375 0l0 -10.140625l1.4375 0l3.75 8.375l3.75 -8.375l1.421875 0zm5.5097046 10.25q-1.015625 0 -1.8125 -0.359375q-0.796875 -0.359375 -1.265625 -1.0q-0.453125 -0.640625 -0.46875 -1.46875l1.421875 0q0.078125 0.703125 0.59375 1.203125q0.53125 0.484375 1.53125 0.484375q0.9375 0 1.484375 -0.46875q0.5625 -0.484375 0.5625 -1.21875q0 -0.59375 -0.328125 -0.953125q-0.3125 -0.375 -0.796875 -0.5625q-0.484375 -0.1875 -1.3125 -0.40625q-1.015625 -0.265625 -1.625 -0.53125q-0.59375 -0.265625 -1.03125 -0.828125q-0.4375 -0.5625 -0.4375 -1.515625q0 -0.84375 0.421875 -1.484375q0.4375 -0.640625 1.203125 -0.984375q0.765625 -0.359375 1.765625 -0.359375q1.4375 0 2.34375 0.71875q0.921875 0.71875 1.046875 1.90625l-1.46875 0q-0.078125 -0.59375 -0.625 -1.03125q-0.53125 -0.453125 -1.4375 -0.453125q-0.828125 0 -1.359375 0.4375q-0.53125 0.421875 -0.53125 1.203125q0 0.5625 0.3125 0.921875q0.328125 0.34375 0.78125 0.53125q0.46875 0.171875 1.296875 0.40625q1.015625 0.28125 1.625 0.5625q0.625 0.265625 1.0625 0.828125q0.4375 0.5625 0.4375 1.53125q0 0.75 -0.40625 1.40625q-0.390625 0.65625 -1.171875 1.078125q-0.765625 0.40625 -1.8125 0.40625zm12.7664795 0.015625q-1.125 0 -2.046875 -0.5q-0.90625 -0.515625 -1.4375 -1.453125q-0.515625 -0.953125 -0.515625 -2.203125q0 -1.234375 0.53125 -2.171875q0.546875 -0.953125 1.46875 -1.453125q0.921875 -0.5 2.0625 -0.5q1.140625 0 2.0625 0.5q0.9375 0.5 1.46875 1.4375q0.53125 0.9375 0.53125 2.1875q0 1.25 -0.546875 2.203125q-0.546875 0.9375 -1.484375 1.453125q-0.9375 0.5 -2.09375 0.5zm0 -1.171875q0.71875 0 1.34375 -0.328125q0.640625 -0.34375 1.03125 -1.015625q0.390625 -0.671875 0.390625 -1.640625q0 -0.96875 -0.390625 -1.640625q-0.375 -0.671875 -1.0 -1.0q-0.609375 -0.328125 -1.328125 -0.328125q-0.734375 0 -1.34375 0.328125q-0.609375 0.328125 -0.96875 1.0q-0.359375 0.671875 -0.359375 1.640625q0 0.984375 0.359375 1.65625q0.359375 0.671875 0.953125 1.0q0.59375 0.328125 1.3125 0.328125zm9.14563 -5.890625l-1.671875 0l0 6.9375l-1.34375 0l0 -6.9375l-1.03125 0l0 -1.09375l1.03125 0l0 -0.578125q0 -1.34375 0.6875 -1.96875q0.703125 -0.625 2.25 -0.625l0 1.125q-0.890625 0 -1.25 0.34375q-0.34375 0.34375 -0.34375 1.125l0 0.578125l1.671875 0l0 1.09375z" fill-rule="nonzero"/><path fill="#000000" d="m650.2572 160.82281l0 4.734375q0 0.59375 0.25 0.84375q0.25 0.234375 0.875 0.234375l0.96875 0l0 1.125l-1.1875 0q-1.125 0 -1.6875 -0.515625q-0.546875 -0.515625 -0.546875 -1.6875l0 -4.734375l-1.046875 0l0 -1.09375l1.046875 0l0 -2.015625l1.328125 0l0 2.015625l2.09375 0l0 1.09375l-2.09375 0zm7.694275 -1.234375q0.921875 0 1.640625 0.390625q0.734375 0.375 1.15625 1.15625q0.421875 0.78125 0.421875 1.890625l0 4.734375l-1.328125 0l0 -4.546875q0 -1.203125 -0.609375 -1.828125q-0.59375 -0.640625 -1.625 -0.640625q-1.0625 0 -1.6875 0.65625q-0.609375 0.65625 -0.609375 1.921875l0 4.4375l-1.34375 0l0 -10.84375l1.34375 0l0 3.953125q0.390625 -0.609375 1.078125 -0.9375q0.703125 -0.34375 1.5625 -0.34375zm12.723816 3.84375q0 0.390625 -0.046875 0.8125l-6.40625 0q0.0625 1.1875 0.796875 1.859375q0.75 0.65625 1.8125 0.65625q0.859375 0 1.4375 -0.390625q0.578125 -0.40625 0.8125 -1.09375l1.4375 0q-0.328125 1.171875 -1.296875 1.890625q-0.96875 0.71875 -2.390625 0.71875q-1.15625 0 -2.0625 -0.5q-0.890625 -0.515625 -1.40625 -1.453125q-0.515625 -0.953125 -0.515625 -2.203125q0 -1.25 0.5 -2.1875q0.5 -0.9375 1.390625 -1.4375q0.90625 -0.5 2.09375 -0.5q1.140625 0 2.015625 0.5q0.875 0.484375 1.34375 1.359375q0.484375 0.875 0.484375 1.96875zm-1.375 -0.28125q0 -0.75 -0.34375 -1.296875q-0.328125 -0.5625 -0.90625 -0.84375q-0.578125 -0.28125 -1.28125 -0.28125q-1.015625 0 -1.734375 0.640625q-0.703125 0.640625 -0.796875 1.78125l5.0625 0z" fill-rule="nonzero"/><path fill="#000000" d="m620.0359 178.4228l0 4.734375q0 0.59375 0.25 0.84375q0.25 0.234375 0.875 0.234375l0.96875 0l0 1.125l-1.1875 0q-1.125 0 -1.6875 -0.515625q-0.546875 -0.515625 -0.546875 -1.6875l0 -4.734375l-1.046875 0l0 -1.09375l1.046875 0l0 -2.015625l1.328125 0l0 2.015625l2.09375 0l0 1.09375l-2.09375 0zm5.05365 0.203125q0.34375 -0.6875 1.0 -1.0625q0.65625 -0.375 1.59375 -0.375l0 1.375l-0.359375 0q-2.234375 0 -2.234375 2.421875l0 4.375l-1.34375 0l0 -8.03125l1.34375 0l0 1.296875zm3.6230469 2.6875q0 -1.234375 0.5 -2.15625q0.5 -0.9375 1.375 -1.4375q0.875 -0.515625 1.9375 -0.515625q1.0625 0 1.828125 0.453125q0.78125 0.453125 1.171875 1.140625l0 -1.46875l1.34375 0l0 8.03125l-1.34375 0l0 -1.5q-0.40625 0.703125 -1.1875 1.171875q-0.78125 0.453125 -1.828125 0.453125q-1.0625 0 -1.9375 -0.515625q-0.859375 -0.53125 -1.359375 -1.484375q-0.5 -0.953125 -0.5 -2.171875zm6.8125 0.015625q0 -0.90625 -0.375 -1.578125q-0.359375 -0.671875 -0.984375 -1.03125q-0.625 -0.359375 -1.375 -0.359375q-0.75 0 -1.375 0.359375q-0.609375 0.34375 -0.96875 1.015625q-0.359375 0.671875 -0.359375 1.578125q0 0.921875 0.359375 1.609375q0.359375 0.671875 0.96875 1.03125q0.625 0.359375 1.375 0.359375q0.75 0 1.375 -0.359375q0.625 -0.359375 0.984375 -1.03125q0.375 -0.6875 0.375 -1.59375zm7.51709 -4.140625q1.453125 0 2.359375 0.890625q0.921875 0.875 0.921875 2.546875l0 4.734375l-1.328125 0l0 -4.546875q0 -1.203125 -0.609375 -1.828125q-0.59375 -0.640625 -1.625 -0.640625q-1.0625 0 -1.6875 0.65625q-0.609375 0.65625 -0.609375 1.921875l0 4.4375l-1.34375 0l0 -8.03125l1.34375 0l0 1.140625q0.390625 -0.609375 1.0625 -0.9375q0.6875 -0.34375 1.515625 -0.34375zm8.30188 8.296875q-0.921875 0 -1.65625 -0.3125q-0.734375 -0.3125 -1.15625 -0.875q-0.421875 -0.5625 -0.46875 -1.296875l1.375 0q0.0625 0.59375 0.5625 0.984375q0.515625 0.375 1.328125 0.375q0.765625 0 1.203125 -0.328125q0.4375 -0.34375 0.4375 -0.859375q0 -0.53125 -0.46875 -0.78125q-0.46875 -0.25 -1.453125 -0.5q-0.890625 -0.234375 -1.453125 -0.46875q-0.5625 -0.25 -0.96875 -0.71875q-0.40625 -0.484375 -0.40625 -1.265625q0 -0.609375 0.359375 -1.125q0.375 -0.515625 1.046875 -0.8125q0.6875 -0.296875 1.546875 -0.296875q1.328125 0 2.140625 0.671875q0.828125 0.671875 0.890625 1.84375l-1.328125 0q-0.046875 -0.625 -0.515625 -1.0q-0.453125 -0.390625 -1.234375 -0.390625q-0.71875 0 -1.140625 0.3125q-0.421875 0.296875 -0.421875 0.796875q0 0.390625 0.25 0.65625q0.265625 0.25 0.640625 0.40625q0.390625 0.15625 1.078125 0.34375q0.875 0.234375 1.40625 0.46875q0.546875 0.21875 0.9375 0.671875q0.390625 0.453125 0.40625 1.1875q0 0.65625 -0.375 1.1875q-0.359375 0.53125 -1.03125 0.828125q-0.65625 0.296875 -1.53125 0.296875zm4.3068237 -4.171875q0 -1.234375 0.5 -2.15625q0.5 -0.9375 1.375 -1.4375q0.875 -0.515625 1.9375 -0.515625q1.0625 0 1.828125 0.453125q0.78125 0.453125 1.171875 1.140625l0 -1.46875l1.34375 0l0 8.03125l-1.34375 0l0 -1.5q-0.40625 0.703125 -1.1875 1.171875q-0.78125 0.453125 -1.828125 0.453125q-1.0625 0 -1.9375 -0.515625q-0.859375 -0.53125 -1.359375 -1.484375q-0.5 -0.953125 -0.5 -2.171875zm6.8125 0.015625q0 -0.90625 -0.375 -1.578125q-0.359375 -0.671875 -0.984375 -1.03125q-0.625 -0.359375 -1.375 -0.359375q-0.75 0 -1.375 0.359375q-0.609375 0.34375 -0.96875 1.015625q-0.359375 0.671875 -0.359375 1.578125q0 0.921875 0.359375 1.609375q0.359375 0.671875 0.96875 1.03125q0.625 0.359375 1.375 0.359375q0.75 0 1.375 -0.359375q0.625 -0.359375 0.984375 -1.03125q0.375 -0.6875 0.375 -1.59375zm3.0951538 0q0 -1.25 0.5 -2.171875q0.5 -0.9375 1.390625 -1.4375q0.890625 -0.515625 2.03125 -0.515625q1.484375 0 2.4375 0.71875q0.953125 0.703125 1.265625 1.984375l-1.4375 0q-0.203125 -0.734375 -0.796875 -1.15625q-0.59375 -0.421875 -1.46875 -0.421875q-1.140625 0 -1.84375 0.78125q-0.703125 0.78125 -0.703125 2.21875q0 1.453125 0.703125 2.25q0.703125 0.78125 1.84375 0.78125q0.875 0 1.453125 -0.40625q0.59375 -0.40625 0.8125 -1.171875l1.4375 0q-0.328125 1.234375 -1.296875 1.96875q-0.953125 0.734375 -2.40625 0.734375q-1.140625 0 -2.03125 -0.5q-0.890625 -0.515625 -1.390625 -1.453125q-0.5 -0.9375 -0.5 -2.203125zm11.021423 -2.90625l0 4.734375q0 0.59375 0.25 0.84375q0.25 0.234375 0.875 0.234375l0.96875 0l0 1.125l-1.1875 0q-1.125 0 -1.6875 -0.515625q-0.546875 -0.515625 -0.546875 -1.6875l0 -4.734375l-1.046875 0l0 -1.09375l1.046875 0l0 -2.015625l1.328125 0l0 2.015625l2.09375 0l0 1.09375l-2.09375 0zm4.3974 -2.40625q-0.375 0 -0.640625 -0.25q-0.265625 -0.265625 -0.265625 -0.65625q0 -0.375 0.265625 -0.640625q0.265625 -0.265625 0.640625 -0.265625q0.375 0 0.625 0.265625q0.265625 0.265625 0.265625 0.640625q0 0.390625 -0.265625 0.65625q-0.25 0.25 -0.625 0.25zm0.65625 1.3125l0 8.03125l-1.34375 0l0 -8.03125l1.34375 0zm5.7616577 8.15625q-1.125 0 -2.046875 -0.5q-0.90625 -0.515625 -1.4375 -1.453125q-0.515625 -0.953125 -0.515625 -2.203125q0 -1.234375 0.53125 -2.171875q0.546875 -0.953125 1.46875 -1.453125q0.921875 -0.5 2.0625 -0.5q1.140625 0 2.0625 0.5q0.9375 0.5 1.46875 1.4375q0.53125 0.9375 0.53125 2.1875q0 1.25 -0.546875 2.203125q-0.546875 0.9375 -1.484375 1.453125q-0.9375 0.5 -2.09375 0.5zm0 -1.171875q0.71875 0 1.34375 -0.328125q0.640625 -0.34375 1.03125 -1.015625q0.390625 -0.671875 0.390625 -1.640625q0 -0.96875 -0.390625 -1.640625q-0.375 -0.671875 -1.0 -1.0q-0.609375 -0.328125 -1.328125 -0.328125q-0.734375 0 -1.34375 0.328125q-0.609375 0.328125 -0.96875 1.0q-0.359375 0.671875 -0.359375 1.640625q0 0.984375 0.359375 1.65625q0.359375 0.671875 0.953125 1.0q0.59375 0.328125 1.3125 0.328125zm9.801941 -7.125q1.453125 0 2.359375 0.890625q0.921875 0.875 0.921875 2.546875l0 4.734375l-1.328125 0l0 -4.546875q0 -1.203125 -0.609375 -1.828125q-0.59375 -0.640625 -1.625 -0.640625q-1.0625 0 -1.6875 0.65625q-0.609375 0.65625 -0.609375 1.921875l0 4.4375l-1.34375 0l0 -8.03125l1.34375 0l0 1.140625q0.390625 -0.609375 1.0625 -0.9375q0.6875 -0.34375 1.515625 -0.34375z" fill-rule="nonzero"/><path fill="#ffffff" d="m367.1391 96.63517l0 0c0 -2.713585 2.1997986 -4.9133835 4.913391 -4.9133835l0 0c1.3031006 0 2.5528564 0.5176544 3.4743042 1.4390945c0.92141724 0.9214401 1.4390869 2.1711807 1.4390869 3.474289l0 0c0 2.713585 -2.1997986 4.9133835 -4.913391 4.9133835l0 0c-2.7135925 0 -4.913391 -2.1997986 -4.913391 -4.9133835z" fill-rule="evenodd"/><path stroke="#28b76b" stroke-width="3.0" stroke-linejoin="round" stroke-linecap="butt" d="m367.1391 96.63517l0 0c0 -2.713585 2.1997986 -4.9133835 4.913391 -4.9133835l0 0c1.3031006 0 2.5528564 0.5176544 3.4743042 1.4390945c0.92141724 0.9214401 1.4390869 2.1711807 1.4390869 3.474289l0 0c0 2.713585 -2.1997986 4.9133835 -4.913391 4.9133835l0 0c-2.7135925 0 -4.913391 -2.1997986 -4.913391 -4.9133835z" fill-rule="evenodd"/><path fill="#000000" fill-opacity="0.0" d="m390.90552 96.91863l263.5905 0.12598419" fill-rule="evenodd"/><path stroke="#28b76b" stroke-width="3.0" stroke-linejoin="round" stroke-linecap="butt" stroke-dasharray="12.0,9.0" d="m390.90552 96.91863l245.59052 0.117385864" fill-rule="evenodd"/><path stroke="#28b76b" stroke-width="3.0" stroke-linecap="butt" d="m636.4937 101.99121l13.616638 -4.9486847l-13.611938 -4.961708z" fill-rule="evenodd"/><path fill="#000000" fill-opacity="0.0" d="m313.38977 109.480316l117.322815 0l0 72.72441l-117.322815 0z" fill-rule="evenodd"/><path fill="#000000" d="m330.1106 122.34157l0 1.09375l-2.796875 0l0 9.125l-1.328125 0l0 -9.125l-2.796875 0l0 -1.09375l6.921875 0zm5.616577 2.046875q0.921875 0 1.640625 0.390625q0.734375 0.375 1.15625 1.15625q0.421875 0.78125 0.421875 1.890625l0 4.734375l-1.328125 0l0 -4.546875q0 -1.203125 -0.609375 -1.828125q-0.59375 -0.640625 -1.625 -0.640625q-1.0625 0 -1.6875 0.65625q-0.609375 0.65625 -0.609375 1.921875l0 4.4375l-1.34375 0l0 -10.84375l1.34375 0l0 3.953125q0.390625 -0.609375 1.078125 -0.9375q0.703125 -0.34375 1.5625 -0.34375zm12.723785 3.84375q0 0.390625 -0.046875 0.8125l-6.40625 0q0.0625 1.1875 0.796875 1.859375q0.75 0.65625 1.8125 0.65625q0.859375 0 1.4375 -0.390625q0.578125 -0.40625 0.8125 -1.09375l1.4375 0q-0.328125 1.171875 -1.296875 1.890625q-0.96875 0.71875 -2.390625 0.71875q-1.15625 0 -2.0625 -0.5q-0.890625 -0.515625 -1.40625 -1.453125q-0.515625 -0.953125 -0.515625 -2.203125q0 -1.25 0.5 -2.1875q0.5 -0.9375 1.390625 -1.4375q0.90625 -0.5 2.09375 -0.5q1.140625 0 2.015625 0.5q0.875 0.484375 1.34375 1.359375q0.484375 0.875 0.484375 1.96875zm-1.375 -0.28125q0 -0.75 -0.34375 -1.296875q-0.328125 -0.5625 -0.90625 -0.84375q-0.578125 -0.28125 -1.28125 -0.28125q-1.015625 0 -1.734375 0.640625q-0.703125 0.640625 -0.796875 1.78125l5.0625 0zm17.406403 -5.53125l0 10.140625l-1.328125 0l0 -7.5625l-3.375 7.5625l-0.9375 0l-3.375 -7.578125l0 7.578125l-1.34375 0l0 -10.140625l1.4375 0l3.75 8.375l3.75 -8.375l1.421875 0zm5.5097046 10.25q-1.015625 0 -1.8125 -0.359375q-0.796875 -0.359375 -1.265625 -1.0q-0.453125 -0.640625 -0.46875 -1.46875l1.421875 0q0.078125 0.703125 0.59375 1.203125q0.53125 0.484375 1.53125 0.484375q0.9375 0 1.484375 -0.46875q0.5625 -0.484375 0.5625 -1.21875q0 -0.59375 -0.328125 -0.953125q-0.3125 -0.375 -0.796875 -0.5625q-0.484375 -0.1875 -1.3125 -0.40625q-1.015625 -0.265625 -1.625 -0.53125q-0.59375 -0.265625 -1.03125 -0.828125q-0.4375 -0.5625 -0.4375 -1.515625q0 -0.84375 0.421875 -1.484375q0.4375 -0.640625 1.203125 -0.984375q0.765625 -0.359375 1.765625 -0.359375q1.4375 0 2.34375 0.71875q0.921875 0.71875 1.046875 1.90625l-1.46875 0q-0.078125 -0.59375 -0.625 -1.03125q-0.53125 -0.453125 -1.4375 -0.453125q-0.828125 0 -1.359375 0.4375q-0.53125 0.421875 -0.53125 1.203125q0 0.5625 0.3125 0.921875q0.328125 0.34375 0.78125 0.53125q0.46875 0.171875 1.296875 0.40625q1.015625 0.28125 1.625 0.5625q0.625 0.265625 1.0625 0.828125q0.4375 0.5625 0.4375 1.53125q0 0.75 -0.40625 1.40625q-0.390625 0.65625 -1.171875 1.078125q-0.765625 0.40625 -1.8125 0.40625zm19.969604 -8.140625l-2.5 8.03125l-1.390625 0l-1.921875 -6.375l-1.9375 6.375l-1.375 0l-2.53125 -8.03125l1.359375 0l1.859375 6.734375l1.984375 -6.734375l1.359375 0l1.953125 6.75l1.828125 -6.75l1.3125 0zm5.2994385 -0.140625q0.921875 0 1.640625 0.390625q0.734375 0.375 1.15625 1.15625q0.421875 0.78125 0.421875 1.890625l0 4.734375l-1.328125 0l0 -4.546875q0 -1.203125 -0.609375 -1.828125q-0.59375 -0.640625 -1.625 -0.640625q-1.0625 0 -1.6875 0.65625q-0.609375 0.65625 -0.609375 1.921875l0 4.4375l-1.34375 0l0 -10.84375l1.34375 0l0 3.953125q0.390625 -0.609375 1.078125 -0.9375q0.703125 -0.34375 1.5625 -0.34375zm6.0831604 -1.171875q-0.375 0 -0.640625 -0.25q-0.265625 -0.265625 -0.265625 -0.65625q0 -0.375 0.265625 -0.640625q0.265625 -0.265625 0.640625 -0.265625q0.375 0 0.625 0.265625q0.265625 0.265625 0.265625 0.640625q0 0.390625 -0.265625 0.65625q-0.25 0.25 -0.625 0.25zm0.65625 1.3125l0 8.03125l-1.34375 0l0 -8.03125l1.34375 0zm1.7616882 4.0q0 -1.25 0.5 -2.171875q0.5 -0.9375 1.390625 -1.4375q0.890625 -0.515625 2.03125 -0.515625q1.484375 0 2.4375 0.71875q0.953125 0.703125 1.265625 1.984375l-1.4375 0q-0.203125 -0.734375 -0.796875 -1.15625q-0.59375 -0.421875 -1.46875 -0.421875q-1.140625 0 -1.84375 0.78125q-0.703125 0.78125 -0.703125 2.21875q0 1.453125 0.703125 2.25q0.703125 0.78125 1.84375 0.78125q0.875 0 1.453125 -0.40625q0.59375 -0.40625 0.8125 -1.171875l1.4375 0q-0.328125 1.234375 -1.296875 1.96875q-0.953125 0.734375 -2.40625 0.734375q-1.140625 0 -2.03125 -0.5q-0.890625 -0.515625 -1.390625 -1.453125q-0.5 -0.9375 -0.5 -2.203125zm13.380768 -4.140625q0.921875 0 1.640625 0.390625q0.734375 0.375 1.15625 1.15625q0.421875 0.78125 0.421875 1.890625l0 4.734375l-1.328125 0l0 -4.546875q0 -1.203125 -0.609375 -1.828125q-0.59375 -0.640625 -1.625 -0.640625q-1.0625 0 -1.6875 0.65625q-0.609375 0.65625 -0.609375 1.921875l0 4.4375l-1.34375 0l0 -10.84375l1.34375 0l0 3.953125q0.390625 -0.609375 1.078125 -0.9375q0.703125 -0.34375 1.5625 -0.34375z" fill-rule="nonzero"/><path fill="#000000" d="m363.07065 145.83218q0 0.390625 -0.046875 0.8125l-6.40625 0q0.0625 1.1875 0.796875 1.859375q0.75 0.65625 1.8125 0.65625q0.859375 0 1.4375 -0.390625q0.578125 -0.40625 0.8125 -1.09375l1.4375 0q-0.328125 1.171875 -1.296875 1.890625q-0.96875 0.71875 -2.390625 0.71875q-1.15625 0 -2.0625 -0.5q-0.890625 -0.515625 -1.40625 -1.453125q-0.515625 -0.953125 -0.515625 -2.203125q0 -1.25 0.5 -2.1875q0.5 -0.9375 1.390625 -1.4375q0.90625 -0.5 2.09375 -0.5q1.140625 0 2.015625 0.5q0.875 0.484375 1.34375 1.359375q0.484375 0.875 0.484375 1.96875zm-1.375 -0.28125q0 -0.75 -0.34375 -1.296875q-0.328125 -0.5625 -0.90625 -0.84375q-0.578125 -0.28125 -1.28125 -0.28125q-1.015625 0 -1.734375 0.640625q-0.703125 0.640625 -0.796875 1.78125l5.0625 0zm4.477539 -2.125q0.34375 -0.6875 1.0 -1.0625q0.65625 -0.375 1.59375 -0.375l0 1.375l-0.359375 0q-2.234375 0 -2.234375 2.421875l0 4.375l-1.34375 0l0 -8.03125l1.34375 0l0 1.296875zm5.466797 0q0.34375 -0.6875 1.0 -1.0625q0.65625 -0.375 1.59375 -0.375l0 1.375l-0.359375 0q-2.234375 0 -2.234375 2.421875l0 4.375l-1.34375 0l0 -8.03125l1.34375 0l0 1.296875zm7.623047 6.859375q-1.125 0 -2.046875 -0.5q-0.90625 -0.515625 -1.4375 -1.453125q-0.515625 -0.953125 -0.515625 -2.203125q0 -1.234375 0.53125 -2.171875q0.546875 -0.953125 1.46875 -1.453125q0.921875 -0.5 2.0625 -0.5q1.140625 0 2.0625 0.5q0.9375 0.5 1.46875 1.4375q0.53125 0.9375 0.53125 2.1875q0 1.25 -0.546875 2.203125q-0.546875 0.9375 -1.484375 1.453125q-0.9375 0.5 -2.09375 0.5zm0 -1.171875q0.71875 0 1.34375 -0.328125q0.640625 -0.34375 1.03125 -1.015625q0.390625 -0.671875 0.390625 -1.640625q0 -0.96875 -0.390625 -1.640625q-0.375 -0.671875 -1.0 -1.0q-0.609375 -0.328125 -1.328125 -0.328125q-0.734375 0 -1.34375 0.328125q-0.609375 0.328125 -0.96875 1.0q-0.359375 0.671875 -0.359375 1.640625q0 0.984375 0.359375 1.65625q0.359375 0.671875 0.953125 1.0q0.59375 0.328125 1.3125 0.328125zm7.2237854 -5.6875q0.34375 -0.6875 1.0 -1.0625q0.65625 -0.375 1.59375 -0.375l0 1.375l-0.359375 0q-2.234375 0 -2.234375 2.421875l0 4.375l-1.34375 0l0 -8.03125l1.34375 0l0 1.296875z" fill-rule="nonzero"/><path fill="#000000" d="m343.43567 167.88531q-1.125 0 -2.046875 -0.5q-0.90625 -0.515625 -1.4375 -1.453125q-0.515625 -0.953125 -0.515625 -2.203125q0 -1.234375 0.53125 -2.171875q0.546875 -0.953125 1.46875 -1.453125q0.921875 -0.5 2.0625 -0.5q1.140625 0 2.0625 0.5q0.9375 0.5 1.46875 1.4375q0.53125 0.9375 0.53125 2.1875q0 1.25 -0.546875 2.203125q-0.546875 0.9375 -1.484375 1.453125q-0.9375 0.5 -2.09375 0.5zm0 -1.171875q0.71875 0 1.34375 -0.328125q0.640625 -0.34375 1.03125 -1.015625q0.390625 -0.671875 0.390625 -1.640625q0 -0.96875 -0.390625 -1.640625q-0.375 -0.671875 -1.0 -1.0q-0.609375 -0.328125 -1.328125 -0.328125q-0.734375 0 -1.34375 0.328125q-0.609375 0.328125 -0.96875 1.0q-0.359375 0.671875 -0.359375 1.640625q0 0.984375 0.359375 1.65625q0.359375 0.671875 0.953125 1.0q0.59375 0.328125 1.3125 0.328125zm5.3800354 -2.984375q0 -1.25 0.5 -2.171875q0.5 -0.9375 1.390625 -1.4375q0.890625 -0.515625 2.03125 -0.515625q1.484375 0 2.4375 0.71875q0.953125 0.703125 1.265625 1.984375l-1.4375 0q-0.203125 -0.734375 -0.796875 -1.15625q-0.59375 -0.421875 -1.46875 -0.421875q-1.140625 0 -1.84375 0.78125q-0.703125 0.78125 -0.703125 2.21875q0 1.453125 0.703125 2.25q0.703125 0.78125 1.84375 0.78125q0.875 0 1.453125 -0.40625q0.59375 -0.40625 0.8125 -1.171875l1.4375 0q-0.328125 1.234375 -1.296875 1.96875q-0.953125 0.734375 -2.40625 0.734375q-1.140625 0 -2.03125 -0.5q-0.890625 -0.515625 -1.390625 -1.453125q-0.5 -0.9375 -0.5 -2.203125zm8.896393 0q0 -1.25 0.5 -2.171875q0.5 -0.9375 1.390625 -1.4375q0.890625 -0.515625 2.03125 -0.515625q1.484375 0 2.4375 0.71875q0.953125 0.703125 1.265625 1.984375l-1.4375 0q-0.203125 -0.734375 -0.796875 -1.15625q-0.59375 -0.421875 -1.46875 -0.421875q-1.140625 0 -1.84375 0.78125q-0.703125 0.78125 -0.703125 2.21875q0 1.453125 0.703125 2.25q0.703125 0.78125 1.84375 0.78125q0.875 0 1.453125 -0.40625q0.59375 -0.40625 0.8125 -1.171875l1.4375 0q-0.328125 1.234375 -1.296875 1.96875q-0.953125 0.734375 -2.40625 0.734375q-1.140625 0 -2.03125 -0.5q-0.890625 -0.515625 -1.390625 -1.453125q-0.5 -0.9375 -0.5 -2.203125zm16.521362 -4.0l0 8.03125l-1.328125 0l0 -1.1875q-0.390625 0.609375 -1.078125 0.96875q-0.671875 0.34375 -1.484375 0.34375q-0.9375 0 -1.6875 -0.390625q-0.75 -0.390625 -1.1875 -1.171875q-0.421875 -0.78125 -0.421875 -1.890625l0 -4.703125l1.3125 0l0 4.53125q0 1.1875 0.59375 1.828125q0.609375 0.625 1.640625 0.625q1.078125 0 1.6875 -0.65625q0.625 -0.65625 0.625 -1.921875l0 -4.40625l1.328125 0zm3.5987854 1.296875q0.34375 -0.6875 1.0 -1.0625q0.65625 -0.375 1.59375 -0.375l0 1.375l-0.359375 0q-2.234375 0 -2.234375 2.421875l0 4.375l-1.34375 0l0 -8.03125l1.34375 0l0 1.296875zm5.466797 0q0.34375 -0.6875 1.0 -1.0625q0.65625 -0.375 1.59375 -0.375l0 1.375l-0.359375 0q-2.234375 0 -2.234375 2.421875l0 4.375l-1.34375 0l0 -8.03125l1.34375 0l0 1.296875zm11.451172 2.40625q0 0.390625 -0.046875 0.8125l-6.40625 0q0.0625 1.1875 0.796875 1.859375q0.75 0.65625 1.8125 0.65625q0.859375 0 1.4375 -0.390625q0.578125 -0.40625 0.8125 -1.09375l1.4375 0q-0.328125 1.171875 -1.296875 1.890625q-0.96875 0.71875 -2.390625 0.71875q-1.15625 0 -2.0625 -0.5q-0.890625 -0.515625 -1.40625 -1.453125q-0.515625 -0.953125 -0.515625 -2.203125q0 -1.25 0.5 -2.1875q0.5 -0.9375 1.390625 -1.4375q0.90625 -0.5 2.09375 -0.5q1.140625 0 2.015625 0.5q0.875 0.484375 1.34375 1.359375q0.484375 0.875 0.484375 1.96875zm-1.375 -0.28125q0 -0.75 -0.34375 -1.296875q-0.328125 -0.5625 -0.90625 -0.84375q-0.578125 -0.28125 -1.28125 -0.28125q-1.015625 0 -1.734375 0.640625q-0.703125 0.640625 -0.796875 1.78125l5.0625 0zm2.633789 0.5625q0 -1.234375 0.5 -2.15625q0.5 -0.9375 1.375 -1.4375q0.875 -0.515625 1.953125 -0.515625q0.9375 0 1.734375 0.4375q0.8125 0.421875 1.25 1.125l0 -4.25l1.34375 0l0 10.84375l-1.34375 0l0 -1.515625q-0.40625 0.71875 -1.1875 1.1875q-0.765625 0.453125 -1.8125 0.453125q-1.0625 0 -1.9375 -0.515625q-0.875 -0.53125 -1.375 -1.484375q-0.5 -0.953125 -0.5 -2.171875zm6.8125 0.015625q0 -0.90625 -0.375 -1.578125q-0.359375 -0.671875 -0.984375 -1.03125q-0.625 -0.359375 -1.375 -0.359375q-0.75 0 -1.375 0.359375q-0.609375 0.34375 -0.96875 1.015625q-0.359375 0.671875 -0.359375 1.578125q0 0.921875 0.359375 1.609375q0.359375 0.671875 0.96875 1.03125q0.625 0.359375 1.375 0.359375q0.75 0 1.375 -0.359375q0.625 -0.359375 0.984375 -1.03125q0.375 -0.6875 0.375 -1.59375z" fill-rule="nonzero"/><path fill="#000000" fill-opacity="0.0" d="m273.32022 252.33333l104.0 0" fill-rule="evenodd"/><path stroke="#28b76b" stroke-width="3.0" stroke-linejoin="round" stroke-linecap="butt" d="m291.32022 252.33333l74.630005 0" fill-rule="evenodd"/><path fill="#28b76b" stroke="#28b76b" stroke-width="3.0" stroke-linecap="butt" d="m291.32022 247.37814l-13.614319 4.955185l13.614319 4.9552155z" fill-rule="evenodd"/><path fill="#28b76b" stroke="#28b76b" stroke-width="3.0" stroke-linecap="butt" d="m375.82022 252.33333c0 2.725525 -2.2094727 4.935013 -4.9349976 4.935013c-2.725525 0 -4.935028 -2.209488 -4.935028 -4.935013c0 -2.725525 2.2095032 -4.9349976 4.935028 -4.9349976c2.725525 0 4.9349976 2.2094727 4.9349976 4.9349976z" fill-rule="nonzero"/><path fill="#ffffff" d="m61.472443 236.96326l0 -13.401581l0 0c0 -7.401474 6.000084 -13.401566 13.401573 -13.401566c7.4014816 0 13.401573 6.0000916 13.401573 13.401566l0 13.401581z" fill-rule="evenodd"/><path stroke="#ff9900" stroke-width="1.0" stroke-linejoin="round" stroke-linecap="butt" d="m61.472443 236.96326l0 -13.401581l0 0c0 -7.401474 6.000084 -13.401566 13.401573 -13.401566c7.4014816 0 13.401573 6.0000916 13.401573 13.401566l0 13.401581z" fill-rule="evenodd"/><path fill="#cc3300" d="m255.00525 236.96326l0 -13.401581l0 0c0 -7.401474 6.0000916 -13.401566 13.401581 -13.401566c7.4014893 0 13.401581 6.0000916 13.401581 13.401566l0 13.401581z" fill-rule="evenodd"/><path stroke="#cc0000" stroke-width="1.0" stroke-linejoin="round" stroke-linecap="butt" d="m255.00525 236.96326l0 -13.401581l0 0c0 -7.401474 6.0000916 -13.401566 13.401581 -13.401566c7.4014893 0 13.401581 6.0000916 13.401581 13.401566l0 13.401581z" fill-rule="evenodd"/><path fill="#ffcc00" d="m358.6509 236.96326l0 -13.401581l0 0c0 -7.401474 6.0000916 -13.401566 13.401581 -13.401566c7.4014893 0 13.401581 6.0000916 13.401581 13.401566l0 13.401581z" fill-rule="evenodd"/><path stroke="#ff9900" stroke-width="1.0" stroke-linejoin="round" stroke-linecap="butt" d="m358.6509 236.96326l0 -13.401581l0 0c0 -7.401474 6.0000916 -13.401566 13.401581 -13.401566c7.4014893 0 13.401581 6.0000916 13.401581 13.401566l0 13.401581z" fill-rule="evenodd"/><path fill="#28b76b" d="m69.96063 252.33333l0 0c0 -2.7135773 2.1997986 -4.913376 4.9133835 -4.913376l0 0c1.3031082 0 2.5528488 0.5176544 3.474289 1.4390869c0.9214401 0.92144775 1.4390945 2.1711884 1.4390945 3.474289l0 0c0 2.7135925 -2.1997986 4.913376 -4.9133835 4.913376l0 0c-2.713585 0 -4.9133835 -2.1997833 -4.9133835 -4.913376z" fill-rule="evenodd"/><path stroke="#28b76b" stroke-width="3.0" stroke-linejoin="round" stroke-linecap="butt" d="m69.96063 252.33333l0 0c0 -2.7135773 2.1997986 -4.913376 4.9133835 -4.913376l0 0c1.3031082 0 2.5528488 0.5176544 3.474289 1.4390869c0.9214401 0.92144775 1.4390945 2.1711884 1.4390945 3.474289l0 0c0 2.7135925 -2.1997986 4.913376 -4.9133835 4.913376l0 0c-2.713585 0 -4.9133835 -2.1997833 -4.9133835 -4.913376z" fill-rule="evenodd"/><path fill="#000000" fill-opacity="0.0" d="m23.27559 260.60104l115.14961 0l0 54.92914l-115.14961 0z" fill-rule="evenodd"/><path fill="#000000" d="m64.455765 273.4623l0 1.09375l-2.7968788 0l0 9.125l-1.328125 0l0 -9.125l-2.796875 0l0 -1.09375l6.921879 0zm1.1321869 6.171875q0 -1.234375 0.5 -2.15625q0.5 -0.9375 1.375 -1.4375q0.875 -0.515625 1.9375 -0.515625q1.0625 0 1.828125 0.453125q0.78125 0.453125 1.171875 1.140625l0 -1.46875l1.34375 0l0 8.03125l-1.34375 0l0 -1.5q-0.40625 0.703125 -1.1875 1.171875q-0.78125 0.453125 -1.828125 0.453125q-1.0625 0 -1.9375 -0.515625q-0.859375 -0.53125 -1.359375 -1.484375q-0.5 -0.953125 -0.5 -2.171875zm6.8125 0.015625q0 -0.90625 -0.375 -1.578125q-0.359375 -0.671875 -0.984375 -1.03125q-0.625 -0.359375 -1.375 -0.359375q-0.75 0 -1.375 0.359375q-0.609375 0.34375 -0.96875 1.015625q-0.359375 0.671875 -0.359375 1.578125q0 0.921875 0.359375 1.609375q0.359375 0.671875 0.96875 1.03125q0.625 0.359375 1.375 0.359375q0.75 0 1.375 -0.359375q0.625 -0.359375 0.984375 -1.03125q0.375 -0.6875 0.375 -1.59375zm4.938919 -2.703125q0.34375 -0.6875 1.0 -1.0625q0.65625 -0.375 1.59375 -0.375l0 1.375l-0.359375 0q-2.234375 0 -2.234375 2.421875l0 4.375l-1.34375 0l0 -8.03125l1.34375 0l0 1.296875zm7.435547 -1.421875q1.046875 0 1.828125 0.453125q0.78125 0.453125 1.171875 1.140625l0 -1.46875l1.34375 0l0 8.203125q0 1.109375 -0.46875 1.953125q-0.46875 0.859375 -1.34375 1.34375q-0.875 0.484375 -2.03125 0.484375q-1.578125 0 -2.640625 -0.75q-1.046875 -0.734375 -1.234375 -2.03125l1.3125 0q0.21875 0.734375 0.90625 1.171875q0.6875 0.453125 1.65625 0.453125q1.09375 0 1.796875 -0.6875q0.703125 -0.6875 0.703125 -1.9375l0 -1.6875q-0.40625 0.703125 -1.1875 1.171875q-0.765625 0.46875 -1.8125 0.46875q-1.0625 0 -1.9375 -0.515625q-0.875 -0.53125 -1.375 -1.484375q-0.5 -0.953125 -0.5 -2.171875q0 -1.234375 0.5 -2.15625q0.5 -0.9375 1.375 -1.4375q0.875 -0.515625 1.9375 -0.515625zm3.0 4.125q0 -0.90625 -0.375 -1.578125q-0.359375 -0.671875 -0.984375 -1.03125q-0.625 -0.359375 -1.375 -0.359375q-0.75 0 -1.375 0.359375q-0.609375 0.34375 -0.96875 1.015625q-0.359375 0.671875 -0.359375 1.578125q0 0.921875 0.359375 1.609375q0.359375 0.671875 0.96875 1.03125q0.625 0.359375 1.375 0.359375q0.75 0 1.375 -0.359375q0.625 -0.359375 0.984375 -1.03125q0.375 -0.6875 0.375 -1.59375zm10.923294 -0.296875q0 0.390625 -0.046875 0.8125l-6.40625 0q0.0625 1.1875 0.796875 1.859375q0.75 0.65625 1.8125 0.65625q0.859375 0 1.4375 -0.390625q0.578125 -0.40625 0.8125 -1.09375l1.4375 0q-0.328125 1.171875 -1.296875 1.890625q-0.96875 0.71875 -2.390625 0.71875q-1.15625 0 -2.0625 -0.5q-0.890625 -0.515625 -1.40625 -1.453125q-0.515625 -0.953125 -0.515625 -2.203125q0 -1.25 0.5 -2.1875q0.5 -0.9375 1.390625 -1.4375q0.90625 -0.5 2.09375 -0.5q1.140625 0 2.015625 0.5q0.875 0.484375 1.34375 1.359375q0.484375 0.875 0.484375 1.96875zm-1.375 -0.28125q0 -0.75 -0.34375 -1.296875q-0.328125 -0.5625 -0.90625 -0.84375q-0.578125 -0.28125 -1.28125 -0.28125q-1.015625 0 -1.734375 0.640625q-0.703125 0.640625 -0.796875 1.78125l5.0625 0zm4.758789 -2.328125l0 4.734375q0 0.59375 0.25 0.84375q0.25 0.234375 0.875 0.234375l0.96875 0l0 1.125l-1.1875 0q-1.125 0 -1.6875 -0.515625q-0.546875 -0.515625 -0.546875 -1.6875l0 -4.734375l-1.046875 0l0 -1.09375l1.046875 0l0 -2.015625l1.328125 0l0 2.015625l2.09375 0l0 1.09375l-2.09375 0z" fill-rule="nonzero"/><path fill="#000000" d="m41.592625 294.54666q0.34375 -0.6875 1.0 -1.0625q0.65625 -0.375 1.59375 -0.375l0 1.375l-0.359375 0q-2.234375 0 -2.234375 2.421875l0 4.375l-1.34375 0l0 -8.03125l1.34375 0l0 1.296875zm7.623047 6.859375q-1.125 0 -2.046875 -0.5q-0.90625 -0.515625 -1.4375 -1.453125q-0.515625 -0.953125 -0.515625 -2.203125q0 -1.234375 0.53125 -2.171875q0.546875 -0.953125 1.46875 -1.453125q0.921875 -0.5 2.0625 -0.5q1.140625 0 2.0625 0.5q0.9375 0.5 1.46875 1.4375q0.53125 0.9375 0.53125 2.1875q0 1.25 -0.546875 2.203125q-0.546875 0.9375 -1.484375 1.453125q-0.9375 0.5 -2.09375 0.5zm0 -1.171875q0.71875 0 1.34375 -0.328125q0.640625 -0.34375 1.03125 -1.015625q0.390625 -0.671875 0.390625 -1.640625q0 -0.96875 -0.390625 -1.640625q-0.375 -0.671875 -1.0 -1.0q-0.609375 -0.328125 -1.328125 -0.328125q-0.734375 0 -1.34375 0.328125q-0.609375 0.328125 -0.96875 1.0q-0.359375 0.671875 -0.359375 1.640625q0 0.984375 0.359375 1.65625q0.359375 0.671875 0.953125 1.0q0.59375 0.328125 1.3125 0.328125zm7.2237854 -9.796875l0 10.84375l-1.34375 0l0 -10.84375l1.34375 0zm3.6054535 0l0 10.84375l-1.34375 0l0 -10.84375l1.34375 0zm3.6054535 4.3125q0.4062538 -0.71875 1.1875038 -1.171875q0.796875 -0.453125 1.8125 -0.453125q1.078125 0 1.9375 0.515625q0.875 0.5 1.375 1.4375q0.5 0.921875 0.5 2.15625q0 1.21875 -0.5 2.171875q-0.5 0.953125 -1.375 1.484375q-0.875 0.515625 -1.9375 0.515625q-1.046875 0 -1.828125 -0.453125q-0.78125 -0.453125 -1.1718788 -1.15625l0 1.484375l-1.34375 0l0 -10.84375l1.34375 0l0 4.3125zm5.453129 2.484375q0 -0.90625 -0.375 -1.578125q-0.359375 -0.671875 -0.984375 -1.015625q-0.625 -0.359375 -1.375 -0.359375q-0.734375 0 -1.359375 0.359375q-0.625 0.359375 -1.0 1.046875q-0.3593788 0.671875 -0.3593788 1.5625q0 0.90625 0.3593788 1.59375q0.375 0.671875 1.0 1.03125q0.625 0.359375 1.359375 0.359375q0.75 0 1.375 -0.359375q0.625 -0.359375 0.984375 -1.03125q0.375 -0.6875 0.375 -1.609375zm2.610794 0q0 -1.234375 0.5 -2.15625q0.5 -0.9375 1.375 -1.4375q0.875 -0.515625 1.9375 -0.515625q1.0625 0 1.828125 0.453125q0.78125 0.453125 1.171875 1.140625l0 -1.46875l1.34375 0l0 8.03125l-1.34375 0l0 -1.5q-0.40625 0.703125 -1.1875 1.171875q-0.78125 0.453125 -1.828125 0.453125q-1.0625 0 -1.9375 -0.515625q-0.859375 -0.53125 -1.359375 -1.484375q-0.5 -0.953125 -0.5 -2.171875zm6.8125 0.015625q0 -0.90625 -0.375 -1.578125q-0.359375 -0.671875 -0.984375 -1.03125q-0.625 -0.359375 -1.375 -0.359375q-0.75 0 -1.375 0.359375q-0.609375 0.34375 -0.96875 1.015625q-0.359375 0.671875 -0.359375 1.578125q0 0.921875 0.359375 1.609375q0.359375 0.671875 0.96875 1.03125q0.625 0.359375 1.375 0.359375q0.75 0 1.375 -0.359375q0.625 -0.359375 0.984375 -1.03125q0.375 -0.6875 0.375 -1.59375zm3.095169 0q0 -1.25 0.5 -2.171875q0.5 -0.9375 1.390625 -1.4375q0.890625 -0.515625 2.03125 -0.515625q1.484375 0 2.4374924 0.71875q0.953125 0.703125 1.265625 1.984375l-1.4375 0q-0.203125 -0.734375 -0.7968674 -1.15625q-0.59375 -0.421875 -1.46875 -0.421875q-1.140625 0 -1.84375 0.78125q-0.703125 0.78125 -0.703125 2.21875q0 1.453125 0.703125 2.25q0.703125 0.78125 1.84375 0.78125q0.875 0 1.453125 -0.40625q0.5937424 -0.40625 0.8124924 -1.171875l1.4375 0q-0.328125 1.234375 -1.296875 1.96875q-0.9531174 0.734375 -2.4062424 0.734375q-1.140625 0 -2.03125 -0.5q-0.890625 -0.515625 -1.390625 -1.453125q-0.5 -0.9375 -0.5 -2.203125zm13.880745 4.03125l-3.140625 -3.546875l0 3.546875l-1.34375 0l0 -10.84375l1.34375 0l0 6.375l3.09375 -3.5625l1.859375 0l-3.78125 4.0l3.796875 4.03125l-1.828125 0zm17.336243 -10.140625l0 10.140625l-1.328125 0l0 -7.5625l-3.375 7.5625l-0.9375 0l-3.375 -7.578125l0 7.578125l-1.34375 0l0 -10.140625l1.4375 0l3.75 8.375l3.75 -8.375l1.421875 0zm5.5097046 10.25q-1.015625 0 -1.8125 -0.359375q-0.796875 -0.359375 -1.265625 -1.0q-0.453125 -0.640625 -0.46875 -1.46875l1.421875 0q0.078125 0.703125 0.59375 1.203125q0.53125 0.484375 1.53125 0.484375q0.9375 0 1.484375 -0.46875q0.5625 -0.484375 0.5625 -1.21875q0 -0.59375 -0.328125 -0.953125q-0.3125 -0.375 -0.796875 -0.5625q-0.484375 -0.1875 -1.3125 -0.40625q-1.015625 -0.265625 -1.625 -0.53125q-0.59375 -0.265625 -1.03125 -0.828125q-0.4375 -0.5625 -0.4375 -1.515625q0 -0.84375 0.421875 -1.484375q0.4375 -0.640625 1.203125 -0.984375q0.765625 -0.359375 1.765625 -0.359375q1.4375 0 2.34375 0.71875q0.921875 0.71875 1.046875 1.90625l-1.46875 0q-0.078125 -0.59375 -0.625 -1.03125q-0.53125 -0.453125 -1.4375 -0.453125q-0.828125 0 -1.359375 0.4375q-0.53125 0.421875 -0.53125 1.203125q0 0.5625 0.3125 0.921875q0.328125 0.34375 0.78125 0.53125q0.46875 0.171875 1.296875 0.40625q1.015625 0.28125 1.625 0.5625q0.625 0.265625 1.0625 0.828125q0.4375 0.5625 0.4375 1.53125q0 0.75 -0.40625 1.40625q-0.390625 0.65625 -1.171875 1.078125q-0.765625 0.40625 -1.8125 0.40625z" fill-rule="nonzero"/><path fill="#000000" fill-opacity="0.0" d="m302.66666 260.60104l138.77167 0l0 54.92914l-138.77167 0z" fill-rule="evenodd"/><path fill="#000000" d="m330.1119 273.4623l0 1.09375l-2.796875 0l0 9.125l-1.328125 0l0 -9.125l-2.796875 0l0 -1.09375l6.921875 0zm5.616577 2.046875q0.921875 0 1.640625 0.390625q0.734375 0.375 1.15625 1.15625q0.421875 0.78125 0.421875 1.890625l0 4.734375l-1.328125 0l0 -4.546875q0 -1.203125 -0.609375 -1.828125q-0.59375 -0.640625 -1.625 -0.640625q-1.0625 0 -1.6875 0.65625q-0.609375 0.65625 -0.609375 1.921875l0 4.4375l-1.34375 0l0 -10.84375l1.34375 0l0 3.953125q0.390625 -0.609375 1.078125 -0.9375q0.703125 -0.34375 1.5625 -0.34375zm12.723785 3.84375q0 0.390625 -0.046875 0.8125l-6.40625 0q0.0625 1.1875 0.796875 1.859375q0.75 0.65625 1.8125 0.65625q0.859375 0 1.4375 -0.390625q0.578125 -0.40625 0.8125 -1.09375l1.4375 0q-0.328125 1.171875 -1.296875 1.890625q-0.96875 0.71875 -2.390625 0.71875q-1.15625 0 -2.0625 -0.5q-0.890625 -0.515625 -1.40625 -1.453125q-0.515625 -0.953125 -0.515625 -2.203125q0 -1.25 0.5 -2.1875q0.5 -0.9375 1.390625 -1.4375q0.90625 -0.5 2.09375 -0.5q1.140625 0 2.015625 0.5q0.875 0.484375 1.34375 1.359375q0.484375 0.875 0.484375 1.96875zm-1.375 -0.28125q0 -0.75 -0.34375 -1.296875q-0.328125 -0.5625 -0.90625 -0.84375q-0.578125 -0.28125 -1.28125 -0.28125q-1.015625 0 -1.734375 0.640625q-0.703125 0.640625 -0.796875 1.78125l5.0625 0zm17.406403 -5.53125l0 10.140625l-1.328125 0l0 -7.5625l-3.375 7.5625l-0.9375 0l-3.375 -7.578125l0 7.578125l-1.34375 0l0 -10.140625l1.4375 0l3.75 8.375l3.75 -8.375l1.421875 0zm5.5097046 10.25q-1.015625 0 -1.8125 -0.359375q-0.796875 -0.359375 -1.265625 -1.0q-0.453125 -0.640625 -0.46875 -1.46875l1.421875 0q0.078125 0.703125 0.59375 1.203125q0.53125 0.484375 1.53125 0.484375q0.9375 0 1.484375 -0.46875q0.5625 -0.484375 0.5625 -1.21875q0 -0.59375 -0.328125 -0.953125q-0.3125 -0.375 -0.796875 -0.5625q-0.484375 -0.1875 -1.3125 -0.40625q-1.015625 -0.265625 -1.625 -0.53125q-0.59375 -0.265625 -1.03125 -0.828125q-0.4375 -0.5625 -0.4375 -1.515625q0 -0.84375 0.421875 -1.484375q0.4375 -0.640625 1.203125 -0.984375q0.765625 -0.359375 1.765625 -0.359375q1.4375 0 2.34375 0.71875q0.921875 0.71875 1.046875 1.90625l-1.46875 0q-0.078125 -0.59375 -0.625 -1.03125q-0.53125 -0.453125 -1.4375 -0.453125q-0.828125 0 -1.359375 0.4375q-0.53125 0.421875 -0.53125 1.203125q0 0.5625 0.3125 0.921875q0.328125 0.34375 0.78125 0.53125q0.46875 0.171875 1.296875 0.40625q1.015625 0.28125 1.625 0.5625q0.625 0.265625 1.0625 0.828125q0.4375 0.5625 0.4375 1.53125q0 0.75 -0.40625 1.40625q-0.390625 0.65625 -1.171875 1.078125q-0.765625 0.40625 -1.8125 0.40625zm19.969604 -8.140625l-2.5 8.03125l-1.390625 0l-1.921875 -6.375l-1.9375 6.375l-1.375 0l-2.53125 -8.03125l1.359375 0l1.859375 6.734375l1.984375 -6.734375l1.359375 0l1.953125 6.75l1.828125 -6.75l1.3125 0zm5.2994385 -0.140625q0.921875 0 1.640625 0.390625q0.734375 0.375 1.15625 1.15625q0.421875 0.78125 0.421875 1.890625l0 4.734375l-1.328125 0l0 -4.546875q0 -1.203125 -0.609375 -1.828125q-0.59375 -0.640625 -1.625 -0.640625q-1.0625 0 -1.6875 0.65625q-0.609375 0.65625 -0.609375 1.921875l0 4.4375l-1.34375 0l0 -10.84375l1.34375 0l0 3.953125q0.390625 -0.609375 1.078125 -0.9375q0.703125 -0.34375 1.5625 -0.34375zm6.0831604 -1.171875q-0.375 0 -0.640625 -0.25q-0.265625 -0.265625 -0.265625 -0.65625q0 -0.375 0.265625 -0.640625q0.265625 -0.265625 0.640625 -0.265625q0.375 0 0.625 0.265625q0.265625 0.265625 0.265625 0.640625q0 0.390625 -0.265625 0.65625q-0.25 0.25 -0.625 0.25zm0.65625 1.3125l0 8.03125l-1.34375 0l0 -8.03125l1.34375 0zm1.7616882 4.0q0 -1.25 0.5 -2.171875q0.5 -0.9375 1.390625 -1.4375q0.890625 -0.515625 2.03125 -0.515625q1.484375 0 2.4375 0.71875q0.953125 0.703125 1.265625 1.984375l-1.4375 0q-0.203125 -0.734375 -0.796875 -1.15625q-0.59375 -0.421875 -1.46875 -0.421875q-1.140625 0 -1.84375 0.78125q-0.703125 0.78125 -0.703125 2.21875q0 1.453125 0.703125 2.25q0.703125 0.78125 1.84375 0.78125q0.875 0 1.453125 -0.40625q0.59375 -0.40625 0.8125 -1.171875l1.4375 0q-0.328125 1.234375 -1.296875 1.96875q-0.953125 0.734375 -2.40625 0.734375q-1.140625 0 -2.03125 -0.5q-0.890625 -0.515625 -1.390625 -1.453125q-0.5 -0.9375 -0.5 -2.203125zm13.380768 -4.140625q0.921875 0 1.640625 0.390625q0.734375 0.375 1.15625 1.15625q0.421875 0.78125 0.421875 1.890625l0 4.734375l-1.328125 0l0 -4.546875q0 -1.203125 -0.609375 -1.828125q-0.59375 -0.640625 -1.625 -0.640625q-1.0625 0 -1.6875 0.65625q-0.609375 0.65625 -0.609375 1.921875l0 4.4375l-1.34375 0l0 -10.84375l1.34375 0l0 3.953125q0.390625 -0.609375 1.078125 -0.9375q0.703125 -0.34375 1.5625 -0.34375z" fill-rule="nonzero"/><path fill="#000000" d="m322.7332 294.54666q0.34375 -0.6875 1.0 -1.0625q0.65625 -0.375 1.59375 -0.375l0 1.375l-0.359375 0q-2.234375 0 -2.234375 2.421875l0 4.375l-1.34375 0l0 -8.03125l1.34375 0l0 1.296875zm7.623047 6.859375q-1.125 0 -2.046875 -0.5q-0.90625 -0.515625 -1.4375 -1.453125q-0.515625 -0.953125 -0.515625 -2.203125q0 -1.234375 0.53125 -2.171875q0.546875 -0.953125 1.46875 -1.453125q0.921875 -0.5 2.0625 -0.5q1.140625 0 2.0625 0.5q0.9375 0.5 1.46875 1.4375q0.53125 0.9375 0.53125 2.1875q0 1.25 -0.546875 2.203125q-0.546875 0.9375 -1.484375 1.453125q-0.9375 0.5 -2.09375 0.5zm0 -1.171875q0.71875 0 1.34375 -0.328125q0.640625 -0.34375 1.03125 -1.015625q0.390625 -0.671875 0.390625 -1.640625q0 -0.96875 -0.390625 -1.640625q-0.375 -0.671875 -1.0 -1.0q-0.609375 -0.328125 -1.328125 -0.328125q-0.734375 0 -1.34375 0.328125q-0.609375 0.328125 -0.96875 1.0q-0.359375 0.671875 -0.359375 1.640625q0 0.984375 0.359375 1.65625q0.359375 0.671875 0.953125 1.0q0.59375 0.328125 1.3125 0.328125zm7.2237854 -9.796875l0 10.84375l-1.34375 0l0 -10.84375l1.34375 0zm3.6054382 0l0 10.84375l-1.34375 0l0 -10.84375l1.34375 0zm3.6054688 4.3125q0.40625 -0.71875 1.1875 -1.171875q0.796875 -0.453125 1.8125 -0.453125q1.078125 0 1.9375 0.515625q0.875 0.5 1.375 1.4375q0.5 0.921875 0.5 2.15625q0 1.21875 -0.5 2.171875q-0.5 0.953125 -1.375 1.484375q-0.875 0.515625 -1.9375 0.515625q-1.046875 0 -1.828125 -0.453125q-0.78125 -0.453125 -1.171875 -1.15625l0 1.484375l-1.34375 0l0 -10.84375l1.34375 0l0 4.3125zm5.453125 2.484375q0 -0.90625 -0.375 -1.578125q-0.359375 -0.671875 -0.984375 -1.015625q-0.625 -0.359375 -1.375 -0.359375q-0.734375 0 -1.359375 0.359375q-0.625 0.359375 -1.0 1.046875q-0.359375 0.671875 -0.359375 1.5625q0 0.90625 0.359375 1.59375q0.375 0.671875 1.0 1.03125q0.625 0.359375 1.359375 0.359375q0.75 0 1.375 -0.359375q0.625 -0.359375 0.984375 -1.03125q0.375 -0.6875 0.375 -1.609375zm2.6107788 0q0 -1.234375 0.5 -2.15625q0.5 -0.9375 1.375 -1.4375q0.875 -0.515625 1.9375 -0.515625q1.0625 0 1.828125 0.453125q0.78125 0.453125 1.171875 1.140625l0 -1.46875l1.34375 0l0 8.03125l-1.34375 0l0 -1.5q-0.40625 0.703125 -1.1875 1.171875q-0.78125 0.453125 -1.828125 0.453125q-1.0625 0 -1.9375 -0.515625q-0.859375 -0.53125 -1.359375 -1.484375q-0.5 -0.953125 -0.5 -2.171875zm6.8125 0.015625q0 -0.90625 -0.375 -1.578125q-0.359375 -0.671875 -0.984375 -1.03125q-0.625 -0.359375 -1.375 -0.359375q-0.75 0 -1.375 0.359375q-0.609375 0.34375 -0.96875 1.015625q-0.359375 0.671875 -0.359375 1.578125q0 0.921875 0.359375 1.609375q0.359375 0.671875 0.96875 1.03125q0.625 0.359375 1.375 0.359375q0.75 0 1.375 -0.359375q0.625 -0.359375 0.984375 -1.03125q0.375 -0.6875 0.375 -1.59375zm3.0951843 0q0 -1.25 0.5 -2.171875q0.5 -0.9375 1.390625 -1.4375q0.890625 -0.515625 2.03125 -0.515625q1.484375 0 2.4375 0.71875q0.953125 0.703125 1.265625 1.984375l-1.4375 0q-0.203125 -0.734375 -0.796875 -1.15625q-0.59375 -0.421875 -1.46875 -0.421875q-1.140625 0 -1.84375 0.78125q-0.703125 0.78125 -0.703125 2.21875q0 1.453125 0.703125 2.25q0.703125 0.78125 1.84375 0.78125q0.875 0 1.453125 -0.40625q0.59375 -0.40625 0.8125 -1.171875l1.4375 0q-0.328125 1.234375 -1.296875 1.96875q-0.953125 0.734375 -2.40625 0.734375q-1.140625 0 -2.03125 -0.5q-0.890625 -0.515625 -1.390625 -1.453125q-0.5 -0.9375 -0.5 -2.203125zm13.880737 4.03125l-3.140625 -3.546875l0 3.546875l-1.34375 0l0 -10.84375l1.34375 0l0 6.375l3.09375 -3.5625l1.859375 0l-3.78125 4.0l3.796875 4.03125l-1.828125 0zm9.820618 0.125q-0.921875 0 -1.65625 -0.3125q-0.734375 -0.3125 -1.15625 -0.875q-0.421875 -0.5625 -0.46875 -1.296875l1.375 0q0.0625 0.59375 0.5625 0.984375q0.515625 0.375 1.328125 0.375q0.765625 0 1.203125 -0.328125q0.4375 -0.34375 0.4375 -0.859375q0 -0.53125 -0.46875 -0.78125q-0.46875 -0.25 -1.453125 -0.5q-0.890625 -0.234375 -1.453125 -0.46875q-0.5625 -0.25 -0.96875 -0.71875q-0.40625 -0.484375 -0.40625 -1.265625q0 -0.609375 0.359375 -1.125q0.375 -0.515625 1.046875 -0.8125q0.6875 -0.296875 1.546875 -0.296875q1.328125 0 2.140625 0.671875q0.828125 0.671875 0.890625 1.84375l-1.328125 0q-0.046875 -0.625 -0.515625 -1.0q-0.453125 -0.390625 -1.234375 -0.390625q-0.71875 0 -1.140625 0.3125q-0.421875 0.296875 -0.421875 0.796875q0 0.390625 0.25 0.65625q0.265625 0.25 0.640625 0.40625q0.390625 0.15625 1.078125 0.34375q0.875 0.234375 1.40625 0.46875q0.546875 0.21875 0.9375 0.671875q0.390625 0.453125 0.40625 1.1875q0 0.65625 -0.375 1.1875q-0.359375 0.53125 -1.03125 0.828125q-0.65625 0.296875 -1.53125 0.296875zm6.4318542 -7.0625l0 4.734375q0 0.59375 0.25 0.84375q0.25 0.234375 0.875 0.234375l0.96875 0l0 1.125l-1.1875 0q-1.125 0 -1.6875 -0.515625q-0.546875 -0.515625 -0.546875 -1.6875l0 -4.734375l-1.046875 0l0 -1.09375l1.046875 0l0 -2.015625l1.328125 0l0 2.015625l2.09375 0l0 1.09375l-2.09375 0zm3.2099 2.890625q0 -1.234375 0.5 -2.15625q0.5 -0.9375 1.375 -1.4375q0.875 -0.515625 1.9375 -0.515625q1.0625 0 1.828125 0.453125q0.78125 0.453125 1.171875 1.140625l0 -1.46875l1.34375 0l0 8.03125l-1.34375 0l0 -1.5q-0.40625 0.703125 -1.1875 1.171875q-0.78125 0.453125 -1.828125 0.453125q-1.0625 0 -1.9375 -0.515625q-0.859375 -0.53125 -1.359375 -1.484375q-0.5 -0.953125 -0.5 -2.171875zm6.8125 0.015625q0 -0.90625 -0.375 -1.578125q-0.359375 -0.671875 -0.984375 -1.03125q-0.625 -0.359375 -1.375 -0.359375q-0.75 0 -1.375 0.359375q-0.609375 0.34375 -0.96875 1.015625q-0.359375 0.671875 -0.359375 1.578125q0 0.921875 0.359375 1.609375q0.359375 0.671875 0.96875 1.03125q0.625 0.359375 1.375 0.359375q0.75 0 1.375 -0.359375q0.625 -0.359375 0.984375 -1.03125q0.375 -0.6875 0.375 -1.59375zm4.938904 -2.703125q0.34375 -0.6875 1.0 -1.0625q0.65625 -0.375 1.59375 -0.375l0 1.375l-0.359375 0q-2.234375 0 -2.234375 2.421875l0 4.375l-1.34375 0l0 -8.03125l1.34375 0l0 1.296875zm5.748047 -0.203125l0 4.734375q0 0.59375 0.25 0.84375q0.25 0.234375 0.875 0.234375l0.96875 0l0 1.125l-1.1875 0q-1.125 0 -1.6875 -0.515625q-0.546875 -0.515625 -0.546875 -1.6875l0 -4.734375l-1.046875 0l0 -1.09375l1.046875 0l0 -2.015625l1.328125 0l0 2.015625l2.09375 0l0 1.09375l-2.09375 0zm6.55365 7.0625q-0.921875 0 -1.65625 -0.3125q-0.734375 -0.3125 -1.15625 -0.875q-0.421875 -0.5625 -0.46875 -1.296875l1.375 0q0.0625 0.59375 0.5625 0.984375q0.515625 0.375 1.328125 0.375q0.765625 0 1.203125 -0.328125q0.4375 -0.34375 0.4375 -0.859375q0 -0.53125 -0.46875 -0.78125q-0.46875 -0.25 -1.453125 -0.5q-0.890625 -0.234375 -1.453125 -0.46875q-0.5625 -0.25 -0.96875 -0.71875q-0.40625 -0.484375 -0.40625 -1.265625q0 -0.609375 0.359375 -1.125q0.375 -0.515625 1.046875 -0.8125q0.6875 -0.296875 1.546875 -0.296875q1.328125 0 2.140625 0.671875q0.828125 0.671875 0.890625 1.84375l-1.328125 0q-0.046875 -0.625 -0.515625 -1.0q-0.453125 -0.390625 -1.234375 -0.390625q-0.71875 0 -1.140625 0.3125q-0.421875 0.296875 -0.421875 0.796875q0 0.390625 0.25 0.65625q0.265625 0.25 0.640625 0.40625q0.390625 0.15625 1.078125 0.34375q0.875 0.234375 1.40625 0.46875q0.546875 0.21875 0.9375 0.671875q0.390625 0.453125 0.40625 1.1875q0 0.65625 -0.375 1.1875q-0.359375 0.53125 -1.03125 0.828125q-0.65625 0.296875 -1.53125 0.296875z" fill-rule="nonzero"/><path fill="#ffffff" d="m156.42783 236.96326l0 -13.401581l0 0c0 -7.401474 6.0000916 -13.401566 13.401566 -13.401566c7.4014893 0 13.401581 6.0000916 13.401581 13.401566l0 13.401581z" fill-rule="evenodd"/><path stroke="#ff9900" stroke-width="1.0" stroke-linejoin="round" stroke-linecap="butt" d="m156.42783 236.96326l0 -13.401581l0 0c0 -7.401474 6.0000916 -13.401566 13.401566 -13.401566c7.4014893 0 13.401581 6.0000916 13.401581 13.401566l0 13.401581z" fill-rule="evenodd"/><path fill="#ffffff" d="m263.49344 252.33333l0 0c0 -2.7135773 2.1997986 -4.913376 4.913391 -4.913376l0 0c1.3031006 0 2.5528564 0.5176544 3.4742737 1.4390869c0.92144775 0.92144775 1.4391174 2.1711884 1.4391174 3.474289l0 0c0 2.7135925 -2.1997986 4.913376 -4.913391 4.913376l0 0c-2.7135925 0 -4.913391 -2.1997833 -4.913391 -4.913376z" fill-rule="evenodd"/><path stroke="#28b76b" stroke-width="3.0" stroke-linejoin="round" stroke-linecap="butt" d="m263.49344 252.33333l0 0c0 -2.7135773 2.1997986 -4.913376 4.913391 -4.913376l0 0c1.3031006 0 2.5528564 0.5176544 3.4742737 1.4390869c0.92144775 0.92144775 1.4391174 2.1711884 1.4391174 3.474289l0 0c0 2.7135925 -2.1997986 4.913376 -4.913391 4.913376l0 0c-2.7135925 0 -4.913391 -2.1997833 -4.913391 -4.913376z" fill-rule="evenodd"/><path fill="#28b76b" d="m654.49603 97.04462l0 0c0 -2.713585 2.199829 -4.9133835 4.913391 -4.9133835l0 0c1.3031616 0 2.5528564 0.51766205 3.4743042 1.4390945c0.92144775 0.9214401 1.4390869 2.1711807 1.4390869 3.474289l0 0c0 2.7135925 -2.199768 4.913391 -4.913391 4.913391l0 0c-2.713562 0 -4.913391 -2.1997986 -4.913391 -4.913391z" fill-rule="evenodd"/><path stroke="#28b76b" stroke-width="3.0" stroke-linejoin="round" stroke-linecap="butt" d="m654.49603 97.04462l0 0c0 -2.713585 2.199829 -4.9133835 4.913391 -4.9133835l0 0c1.3031616 0 2.5528564 0.51766205 3.4743042 1.4390945c0.92144775 0.9214401 1.4390869 2.1711807 1.4390869 3.474289l0 0c0 2.7135925 -2.199768 4.913391 -4.913391 4.913391l0 0c-2.713562 0 -4.913391 -2.1997986 -4.913391 -4.913391z" fill-rule="evenodd"/><path fill="#000000" fill-opacity="0.0" d="m263.49344 252.33333l-183.71654 0" fill-rule="evenodd"/><path stroke="#28b76b" stroke-width="3.0" stroke-linejoin="round" stroke-linecap="butt" stroke-dasharray="12.0,9.0" d="m263.49344 252.33333l-165.71654 0" fill-rule="evenodd"/><path stroke="#28b76b" stroke-width="3.0" stroke-linecap="butt" d="m97.7769 247.37814l-13.614288 4.955185l13.614288 4.9552155z" fill-rule="evenodd"/><path fill="#000000" fill-opacity="0.0" d="m232.94226 391.10498l0 -138.77165l72.724396 0l0 138.77165z" fill-rule="evenodd"/><path fill="#000000" d="m245.80351 363.65973l1.09375 0l0 2.796875l9.124985 0l0 1.328125l-9.124985 0l0 2.796875l-1.09375 0l0 -6.921875zm2.046875 -5.6165466q0 -0.921875 0.390625 -1.640625q0.375 -0.734375 1.15625 -1.15625q0.78125 -0.421875 1.890625 -0.421875l4.7343597 0l0 1.328125l-4.5468597 0q-1.203125 0 -1.828125 0.609375q-0.640625 0.59375 -0.640625 1.625q0 1.0625 0.65625 1.6875q0.65625 0.609375 1.921875 0.609375l4.4374847 0l0 1.34375l-10.843735 0l0 -1.34375l3.953125 0q-0.609375 -0.390625 -0.9375 -1.078125q-0.34375 -0.703125 -0.34375 -1.5625zm3.84375 -12.723785q0.390625 0 0.8125 0.046875l0 6.40625q1.1875 -0.0625 1.859375 -0.796875q0.65625 -0.75 0.65625 -1.8125q0 -0.859375 -0.390625 -1.4375q-0.40625 -0.578125 -1.09375 -0.8125l0 -1.4375q1.171875 0.328125 1.890625 1.296875q0.71873474 0.96875 0.71873474 2.390625q0 1.15625 -0.49998474 2.0625q-0.515625 0.890625 -1.453125 1.40625q-0.953125 0.515625 -2.203125 0.515625q-1.25 0 -2.1875 -0.5q-0.9375 -0.5 -1.4375 -1.390625q-0.5 -0.90625 -0.5 -2.09375q0 -1.140625 0.5 -2.015625q0.484375 -0.875 1.359375 -1.34375q0.875 -0.484375 1.96875 -0.484375zm-0.28125 1.375q-0.75 0 -1.296875 0.34375q-0.5625 0.328125 -0.84375 0.90625q-0.28125 0.578125 -0.28125 1.28125q0 1.015625 0.640625 1.734375q0.640625 0.703125 1.78125 0.796875l0 -5.0625zm-5.53125 -17.406403l10.14061 0l0 1.328125l-7.5624847 0l7.5624847 3.375l0 0.9375l-7.5781097 3.375l7.5781097 0l0 1.34375l-10.14061 0l0 -1.4375l8.375 -3.75l-8.375 -3.75l0 -1.421875zm10.249985 -5.5097046q0 1.015625 -0.35935974 1.8125q-0.359375 0.796875 -1.0 1.265625q-0.640625 0.453125 -1.46875 0.46875l0 -1.421875q0.703125 -0.078125 1.203125 -0.59375q0.484375 -0.53125 0.484375 -1.53125q0 -0.9375 -0.46875 -1.484375q-0.484375 -0.5625 -1.21875 -0.5625q-0.59375 0 -0.953125 0.328125q-0.375 0.3125 -0.5625 0.796875q-0.1875 0.484375 -0.40625 1.3125q-0.265625 1.015625 -0.53125 1.625q-0.265625 0.59375 -0.828125 1.03125q-0.5625 0.4375 -1.515625 0.4375q-0.84375 0 -1.484375 -0.421875q-0.640625 -0.4375 -0.984375 -1.203125q-0.359375 -0.765625 -0.359375 -1.765625q0 -1.4375 0.71875 -2.34375q0.71875 -0.921875 1.90625 -1.046875l0 1.46875q-0.59375 0.078125 -1.03125 0.625q-0.453125 0.53125 -0.453125 1.4375q0 0.828125 0.4375 1.359375q0.421875 0.53125 1.203125 0.53125q0.5625 0 0.921875 -0.3125q0.34375 -0.328125 0.53125 -0.78125q0.171875 -0.46875 0.40625 -1.296875q0.28125 -1.015625 0.5625 -1.625q0.265625 -0.625 0.828125 -1.0625q0.5625 -0.4375 1.53125 -0.4375q0.75 0 1.40625 0.40625q0.65625 0.390625 1.078125 1.171875q0.40623474 0.765625 0.40623474 1.8125zm-8.14061 -19.969635l8.031235 2.5l0 1.390625l-6.3749847 1.921875l6.3749847 1.9375l0 1.375l-8.031235 2.53125l0 -1.359375l6.734375 -1.859375l-6.734375 -1.984375l0 -1.359375l6.75 -1.953125l-6.75 -1.828125l0 -1.3125zm-0.140625 -5.299408q0 -0.921875 0.390625 -1.640625q0.375 -0.734375 1.15625 -1.15625q0.78125 -0.421875 1.890625 -0.421875l4.7343597 0l0 1.328125l-4.5468597 0q-1.203125 0 -1.828125 0.609375q-0.640625 0.59375 -0.640625 1.625q0 1.0625 0.65625 1.6875q0.65625 0.609375 1.921875 0.609375l4.4374847 0l0 1.34375l-10.843735 0l0 -1.34375l3.953125 0q-0.609375 -0.390625 -0.9375 -1.078125q-0.34375 -0.703125 -0.34375 -1.5625zm-1.171875 -6.0831604q0 0.375 -0.25 0.640625q-0.265625 0.265625 -0.65625 0.265625q-0.375 0 -0.640625 -0.265625q-0.265625 -0.265625 -0.265625 -0.640625q0 -0.375 0.265625 -0.625q0.265625 -0.265625 0.640625 -0.265625q0.390625 0 0.65625 0.265625q0.25 0.25 0.25 0.625zm1.3125 -0.65625l8.031235 0l0 1.34375l-8.031235 0l0 -1.34375zm4.0 -1.7617188q-1.25 0 -2.171875 -0.5q-0.9375 -0.5 -1.4375 -1.390625q-0.515625 -0.890625 -0.515625 -2.03125q0 -1.484375 0.71875 -2.4375q0.703125 -0.953125 1.984375 -1.265625l0 1.4375q-0.734375 0.203125 -1.15625 0.796875q-0.421875 0.59375 -0.421875 1.46875q0 1.140625 0.78125 1.84375q0.78125 0.703125 2.21875 0.703125q1.453125 0 2.25 -0.703125q0.78125 -0.703125 0.78125 -1.84375q0 -0.875 -0.40625 -1.453125q-0.40625 -0.59375 -1.171875 -0.8125l0 -1.4375q1.234375 0.328125 1.96875 1.296875q0.73435974 0.953125 0.73435974 2.40625q0 1.140625 -0.49998474 2.03125q-0.515625 0.890625 -1.453125 1.390625q-0.9375 0.5 -2.203125 0.5zm-4.140625 -13.380737q0 -0.921875 0.390625 -1.640625q0.375 -0.734375 1.15625 -1.15625q0.78125 -0.421875 1.890625 -0.421875l4.7343597 0l0 1.328125l-4.5468597 0q-1.203125 0 -1.828125 0.609375q-0.640625 0.59375 -0.640625 1.625q0 1.0625 0.65625 1.6875q0.65625 0.609375 1.921875 0.609375l4.4374847 0l0 1.34375l-10.843735 0l0 -1.34375l3.953125 0q-0.609375 -0.390625 -0.9375 -1.078125q-0.34375 -0.703125 -0.34375 -1.5625z" fill-rule="nonzero"/><path fill="#000000" d="m266.88788 367.79944q-0.6875 -0.34375 -1.0625 -1.0q-0.375 -0.65625 -0.375 -1.59375l1.375 0l0 0.359375q0 2.234375 2.421875 2.234375l4.375 0l0 1.34375l-8.03125 0l0 -1.34375l1.296875 0zm6.859375 -7.623047q0 1.125 -0.5 2.046875q-0.515625 0.90625 -1.453125 1.4375q-0.953125 0.515625 -2.203125 0.515625q-1.234375 0 -2.171875 -0.53125q-0.953125 -0.546875 -1.453125 -1.46875q-0.5 -0.921875 -0.5 -2.0625q0 -1.140625 0.5 -2.0625q0.5 -0.9375 1.4375 -1.46875q0.9375 -0.53125 2.1875 -0.53125q1.25 0 2.203125 0.546875q0.9375 0.546875 1.453125 1.484375q0.5 0.9375 0.5 2.09375zm-1.171875 0q0 -0.71875 -0.328125 -1.34375q-0.34375 -0.640625 -1.015625 -1.03125q-0.671875 -0.390625 -1.640625 -0.390625q-0.96875 0 -1.640625 0.390625q-0.671875 0.375 -1.0 1.0q-0.328125 0.609375 -0.328125 1.328125q0 0.734375 0.328125 1.34375q0.328125 0.609375 1.0 0.96875q0.671875 0.359375 1.640625 0.359375q0.984375 0 1.65625 -0.359375q0.671875 -0.359375 1.0 -0.953125q0.328125 -0.59375 0.328125 -1.3125zm-9.796875 -7.2237854l10.84375 0l0 1.34375l-10.84375 0l0 -1.34375zm0 -3.6054688l10.84375 0l0 1.34375l-10.84375 0l0 -1.34375zm4.3125 -3.6054382q-0.71875 -0.40625 -1.171875 -1.1875q-0.453125 -0.796875 -0.453125 -1.8125q0 -1.078125 0.515625 -1.9375q0.5 -0.875 1.4375 -1.375q0.921875 -0.5 2.15625 -0.5q1.21875 0 2.171875 0.5q0.953125 0.5 1.484375 1.375q0.515625 0.875 0.515625 1.9375q0 1.046875 -0.453125 1.828125q-0.453125 0.78125 -1.15625 1.171875l1.484375 0l0 1.34375l-10.84375 0l0 -1.34375l4.3125 0zm2.484375 -5.453125q-0.90625 0 -1.578125 0.375q-0.671875 0.359375 -1.015625 0.984375q-0.359375 0.625 -0.359375 1.375q0 0.734375 0.359375 1.359375q0.359375 0.625 1.046875 1.0q0.671875 0.359375 1.5625 0.359375q0.90625 0 1.59375 -0.359375q0.671875 -0.375 1.03125 -1.0q0.359375 -0.625 0.359375 -1.359375q0 -0.75 -0.359375 -1.375q-0.359375 -0.625 -1.03125 -0.984375q-0.6875 -0.375 -1.609375 -0.375zm0 -2.6108093q-1.234375 0 -2.15625 -0.5q-0.9375 -0.5 -1.4375 -1.375q-0.515625 -0.875 -0.515625 -1.9375q0 -1.0625 0.453125 -1.828125q0.453125 -0.78125 1.140625 -1.171875l-1.46875 0l0 -1.34375l8.03125 0l0 1.34375l-1.5 0q0.703125 0.40625 1.171875 1.1875q0.453125 0.78125 0.453125 1.828125q0 1.0625 -0.515625 1.9375q-0.53125 0.859375 -1.484375 1.359375q-0.953125 0.5 -2.171875 0.5zm0.015625 -6.8125q-0.90625 0 -1.578125 0.375q-0.671875 0.359375 -1.03125 0.984375q-0.359375 0.625 -0.359375 1.375q0 0.75 0.359375 1.375q0.34375 0.609375 1.015625 0.96875q0.671875 0.359375 1.578125 0.359375q0.921875 0 1.609375 -0.359375q0.671875 -0.359375 1.03125 -0.96875q0.359375 -0.625 0.359375 -1.375q0 -0.75 -0.359375 -1.375q-0.359375 -0.625 -1.03125 -0.984375q-0.6875 -0.375 -1.59375 -0.375zm0 -3.0951538q-1.25 0 -2.171875 -0.5q-0.9375 -0.5 -1.4375 -1.390625q-0.515625 -0.890625 -0.515625 -2.03125q0 -1.484375 0.71875 -2.4375q0.703125 -0.953125 1.984375 -1.265625l0 1.4375q-0.734375 0.203125 -1.15625 0.796875q-0.421875 0.59375 -0.421875 1.46875q0 1.140625 0.78125 1.84375q0.78125 0.703125 2.21875 0.703125q1.453125 0 2.25 -0.703125q0.78125 -0.703125 0.78125 -1.84375q0 -0.875 -0.40625 -1.453125q-0.40625 -0.59375 -1.171875 -0.8125l0 -1.4375q1.234375 0.328125 1.96875 1.296875q0.734375 0.953125 0.734375 2.40625q0 1.140625 -0.5 2.03125q-0.515625 0.890625 -1.453125 1.390625q-0.9375 0.5 -2.203125 0.5zm4.03125 -13.880768l-3.546875 3.140625l3.546875 0l0 1.34375l-10.84375 0l0 -1.34375l6.375 0l-3.5625 -3.09375l0 -1.859375l4.0 3.78125l4.03125 -3.796875l0 1.828125zm-4.328125 -14.304993q0.390625 0 0.8125 0.046875l0 6.40625q1.1875 -0.0625 1.859375 -0.796875q0.65625 -0.75 0.65625 -1.8125q0 -0.859375 -0.390625 -1.4375q-0.40625 -0.578125 -1.09375 -0.8125l0 -1.4375q1.171875 0.328125 1.890625 1.296875q0.71875 0.96875 0.71875 2.390625q0 1.15625 -0.5 2.0625q-0.515625 0.890625 -1.453125 1.40625q-0.953125 0.515625 -2.203125 0.515625q-1.25 0 -2.1875 -0.5q-0.9375 -0.5 -1.4375 -1.390625q-0.5 -0.90625 -0.5 -2.09375q0 -1.140625 0.5 -2.015625q0.484375 -0.875 1.359375 -1.34375q0.875 -0.484375 1.96875 -0.484375zm-0.28125 1.375q-0.75 0 -1.296875 0.34375q-0.5625 0.328125 -0.84375 0.90625q-0.28125 0.578125 -0.28125 1.28125q0 1.015625 0.640625 1.734375q0.640625 0.703125 1.78125 0.796875l0 -5.0625zm-2.125 -4.477539q-0.6875 -0.34375 -1.0625 -1.0q-0.375 -0.65625 -0.375 -1.59375l1.375 0l0 0.359375q0 2.234375 2.421875 2.234375l4.375 0l0 1.34375l-8.03125 0l0 -1.34375l1.296875 0zm0 -5.466797q-0.6875 -0.34375 -1.0625 -1.0q-0.375 -0.65625 -0.375 -1.59375l1.375 0l0 0.359375q0 2.234375 2.421875 2.234375l4.375 0l0 1.34375l-8.03125 0l0 -1.34375l1.296875 0zm6.859375 -7.623047q0 1.125 -0.5 2.046875q-0.515625 0.90625 -1.453125 1.4375q-0.953125 0.515625 -2.203125 0.515625q-1.234375 0 -2.171875 -0.53125q-0.953125 -0.546875 -1.453125 -1.46875q-0.5 -0.921875 -0.5 -2.0625q0 -1.140625 0.5 -2.0625q0.5 -0.9375 1.4375 -1.46875q0.9375 -0.53125 2.1875 -0.53125q1.25 0 2.203125 0.546875q0.9375 0.546875 1.453125 1.484375q0.5 0.9375 0.5 2.09375zm-1.171875 0q0 -0.71875 -0.328125 -1.34375q-0.34375 -0.640625 -1.015625 -1.03125q-0.671875 -0.390625 -1.640625 -0.390625q-0.96875 0 -1.640625 0.390625q-0.671875 0.375 -1.0 1.0q-0.328125 0.609375 -0.328125 1.328125q0 0.734375 0.328125 1.34375q0.328125 0.609375 1.0 0.96875q0.671875 0.359375 1.640625 0.359375q0.984375 0 1.65625 -0.359375q0.671875 -0.359375 1.0 -0.953125q0.328125 -0.59375 0.328125 -1.3125zm-5.6875 -7.2237854q-0.6875 -0.34375 -1.0625 -1.0q-0.375 -0.65625 -0.375 -1.59375l1.375 0l0 0.359375q0 2.234375 2.421875 2.234375l4.375 0l0 1.34375l-8.03125 0l0 -1.34375l1.296875 0z" fill-rule="nonzero"/><path fill="#000000" d="m291.34726 350.33466q0 1.125 -0.5 2.046875q-0.515625 0.90625 -1.453125 1.4375q-0.953125 0.515625 -2.203125 0.515625q-1.234375 0 -2.171875 -0.53125q-0.953125 -0.546875 -1.453125 -1.46875q-0.5 -0.921875 -0.5 -2.0625q0 -1.140625 0.5 -2.0625q0.5 -0.9375 1.4375 -1.46875q0.9375 -0.53125 2.1875 -0.53125q1.25 0 2.203125 0.546875q0.9375 0.546875 1.453125 1.484375q0.5 0.9375 0.5 2.09375zm-1.171875 0q0 -0.71875 -0.328125 -1.34375q-0.34375 -0.640625 -1.015625 -1.03125q-0.671875 -0.390625 -1.640625 -0.390625q-0.96875 0 -1.640625 0.390625q-0.671875 0.375 -1.0 1.0q-0.328125 0.609375 -0.328125 1.328125q0 0.734375 0.328125 1.34375q0.328125 0.609375 1.0 0.96875q0.671875 0.359375 1.640625 0.359375q0.984375 0 1.65625 -0.359375q0.671875 -0.359375 1.0 -0.953125q0.328125 -0.59375 0.328125 -1.3125zm-2.984375 -5.3800354q-1.25 0 -2.171875 -0.5q-0.9375 -0.5 -1.4375 -1.390625q-0.515625 -0.890625 -0.515625 -2.03125q0 -1.484375 0.71875 -2.4375q0.703125 -0.953125 1.984375 -1.265625l0 1.4375q-0.734375 0.203125 -1.15625 0.796875q-0.421875 0.59375 -0.421875 1.46875q0 1.140625 0.78125 1.84375q0.78125 0.703125 2.21875 0.703125q1.453125 0 2.25 -0.703125q0.78125 -0.703125 0.78125 -1.84375q0 -0.875 -0.40625 -1.453125q-0.40625 -0.59375 -1.171875 -0.8125l0 -1.4375q1.234375 0.328125 1.96875 1.296875q0.734375 0.953125 0.734375 2.40625q0 1.140625 -0.5 2.03125q-0.515625 0.890625 -1.453125 1.390625q-0.9375 0.5 -2.203125 0.5zm0 -8.896362q-1.25 0 -2.171875 -0.5q-0.9375 -0.5 -1.4375 -1.390625q-0.515625 -0.890625 -0.515625 -2.03125q0 -1.484375 0.71875 -2.4375q0.703125 -0.953125 1.984375 -1.265625l0 1.4375q-0.734375 0.203125 -1.15625 0.796875q-0.421875 0.59375 -0.421875 1.46875q0 1.140625 0.78125 1.84375q0.78125 0.703125 2.21875 0.703125q1.453125 0 2.25 -0.703125q0.78125 -0.703125 0.78125 -1.84375q0 -0.875 -0.40625 -1.453125q-0.40625 -0.59375 -1.171875 -0.8125l0 -1.4375q1.234375 0.328125 1.96875 1.296875q0.734375 0.953125 0.734375 2.40625q0 1.140625 -0.5 2.03125q-0.515625 0.890625 -1.453125 1.390625q-0.9375 0.5 -2.203125 0.5zm-4.0 -16.521393l8.03125 0l0 1.328125l-1.1875 0q0.609375 0.390625 0.96875 1.078125q0.34375 0.671875 0.34375 1.484375q0 0.9375 -0.390625 1.6875q-0.390625 0.75 -1.171875 1.1875q-0.78125 0.421875 -1.890625 0.421875l-4.703125 0l0 -1.3125l4.53125 0q1.1875 0 1.828125 -0.59375q0.625 -0.609375 0.625 -1.640625q0 -1.078125 -0.65625 -1.6875q-0.65625 -0.625 -1.921875 -0.625l-4.40625 0l0 -1.328125zm1.296875 -3.5987854q-0.6875 -0.34375 -1.0625 -1.0q-0.375 -0.65625 -0.375 -1.59375l1.375 0l0 0.359375q0 2.234375 2.421875 2.234375l4.375 0l0 1.34375l-8.03125 0l0 -1.34375l1.296875 0zm0 -5.466797q-0.6875 -0.34375 -1.0625 -1.0q-0.375 -0.65625 -0.375 -1.59375l1.375 0l0 0.359375q0 2.234375 2.421875 2.234375l4.375 0l0 1.34375l-8.03125 0l0 -1.34375l1.296875 0zm2.40625 -11.451172q0.390625 0 0.8125 0.046875l0 6.40625q1.1875 -0.0625 1.859375 -0.796875q0.65625 -0.75 0.65625 -1.8125q0 -0.859375 -0.390625 -1.4375q-0.40625 -0.578125 -1.09375 -0.8125l0 -1.4375q1.171875 0.328125 1.890625 1.296875q0.71875 0.96875 0.71875 2.390625q0 1.15625 -0.5 2.0625q-0.515625 0.890625 -1.453125 1.40625q-0.953125 0.515625 -2.203125 0.515625q-1.25 0 -2.1875 -0.5q-0.9375 -0.5 -1.4375 -1.390625q-0.5 -0.90625 -0.5 -2.09375q0 -1.140625 0.5 -2.015625q0.484375 -0.875 1.359375 -1.34375q0.875 -0.484375 1.96875 -0.484375zm-0.28125 1.375q-0.75 0 -1.296875 0.34375q-0.5625 0.328125 -0.84375 0.90625q-0.28125 0.578125 -0.28125 1.28125q0 1.015625 0.640625 1.734375q0.640625 0.703125 1.78125 0.796875l0 -5.0625zm0.5625 -2.633789q-1.234375 0 -2.15625 -0.5q-0.9375 -0.5 -1.4375 -1.375q-0.515625 -0.875 -0.515625 -1.953125q0 -0.9375 0.4375 -1.734375q0.421875 -0.8125 1.125 -1.25l-4.25 0l0 -1.34375l10.84375 0l0 1.34375l-1.515625 0q0.71875 0.40625 1.1875 1.1875q0.453125 0.765625 0.453125 1.8125q0 1.0625 -0.515625 1.9375q-0.53125 0.875 -1.484375 1.375q-0.953125 0.5 -2.171875 0.5zm0.015625 -6.8125q-0.90625 0 -1.578125 0.375q-0.671875 0.359375 -1.03125 0.984375q-0.359375 0.625 -0.359375 1.375q0 0.75 0.359375 1.375q0.34375 0.609375 1.015625 0.96875q0.671875 0.359375 1.578125 0.359375q0.921875 0 1.609375 -0.359375q0.671875 -0.359375 1.03125 -0.96875q0.359375 -0.625 0.359375 -1.375q0 -0.75 -0.359375 -1.375q-0.359375 -0.625 -1.03125 -0.984375q-0.6875 -0.375 -1.59375 -0.375z" fill-rule="nonzero"/><path fill="#cc3300" d="m0 0l729.2598 0l0 7.4960628l-729.2598 0z" fill-rule="evenodd"/><path stroke="#cc3300" stroke-width="1.0" stroke-linejoin="round" stroke-linecap="butt" d="m0 0l729.2598 0l0 7.4960628l-729.2598 0z" fill-rule="evenodd"/></g></svg>